<svg xmlns="http://www.w3.org/2000/svg" width="64" height="64" viewBox="0 0 64 64"><path d="M58.472 43.752c-1.604-7.827-9.088-21.115-14.24-31.02C39.082 2.827 36.508-.314 32.862.024s-5.59 2.223-8.36 6.813-7.676 14.495-11.32 22.564c-3.645 8.07-6.41 14.187-6.9 16.38-.584 2.61-.438 5.075 2.234 11.115 2.673 6.04 7.387 7.972 14.433 6.764 7.046-1.21 10.642-7.104 10.642-7.104s4.423 3.672 8.457 4.542 8.6-.193 12.197-2.947 5.83-6.57 4.227-14.397h-.002zm-1.41 5.46c-.29-.146-2.09-3.238-2.43-3.238s-.728.628-.485.967c.243.34 2.38 3.24 2.38 3.53s-.97 1.255-.97 1.255-1.994-3.286-2.285-3.382-.875.53-.73.87c.147.338 2.09 3.19 1.896 3.382-.194.193-.923.82-.972.676-.05-.144-1.798-2.705-1.992-2.705s-.875.483-.68.82c.194.34 1.895 2.175 1.75 2.562-.147.387-1.12 1.16-1.167 1.015-.05-.144-1.604-2.753-1.75-2.753s-.728.482-.63.724c.096.242 1.554 2.56 1.457 2.85-.097.29-.972.726-.972.726s-1.7-2.9-2.138-2.947-.923.532-.826.822c.097.29 1.75 2.27 1.555 2.464-.194.192-1.458.434-1.458.434s-1.41-2.318-1.652-2.366c-.243-.048-.875.338-.875.628s1.36 2.03 1.118 2.078c-.243.048-2.333 0-5.59-1.74-3.255-1.738-5.004-3.43-5.345-3.574-.34-.145-.68 1.16-3.11 3.044s-9.134 4.107-12.973 3.914c-3.84-.193-7.775-3.286-9.428-7.055-1.653-3.77-1.556-5.026-1.508-5.992.09-1.77 5.395-12.852 8.554-19.906 3.16-7.053 10.108-21.307 12.15-22.9s3.935-2.175 5.928-1.982 5.54 4.445 8.845 11.064c3.304 6.62 11.13 21.79 12.73 26.768 1.604 4.976 1.604 5.798 1.604 5.798s-2.04-3.044-2.333-3.092c-.29-.048-.582.918-.485 1.16.097.24 2.964 3.575 3.013 4.06.05.48.098 2.17-.194 2.025l-.002-.003zM26.837 9.3c.292 0 .535-.532 1.555-2.175 1.022-1.643 1.993-2.61 1.993-2.85 0-.242-.34-.58-.68-.58s-.826.434-1.944 1.835c-1.12 1.4-1.847 3.334-1.847 3.334 0 .145.632.435.924.436zM41.66 19.736c-3.45-7.103-6.415-12.914-8.505-12.997-3.645-.145-6.22 4.735-9.136 10.68S12.985 42.3 12.547 44.812c-.436 2.513.34 5.846 3.937 7.682 3.596 1.836 6.998-.24 9.04-1.256s3.595-3.77 3.4-4.205c-.193-.435-1.7-2.174-3.74-5.412-2.042-3.237-1.8-6.57-.827-10.098.972-3.527 4.18-6.28 6.9-6.716 2.722-.436 4.18-.24 7.436 2.03s3.353 9.033 2.673 12.32c-.68 3.285-4.52 8.165-4.617 8.793s1.992 2.85 5.394 3.914c3.402 1.063 6.123.53 8.116-1.594 1.992-2.126 2.43-4.832.73-9.905-1.702-5.074-5.882-13.53-9.33-20.632zm5.44 30.538c-2.477 1.015-7.677-.773-7.726-1.353-.05-.58 3.305-5.07 3.645-10.483.34-5.41.727-8.214-3.258-12.37-3.985-4.154-8.942-2.608-10.886-1.787-1.944.82-5.734 3.43-6.415 8.745-.68 5.315-.145 9.035.876 11.45 1.02 2.417 2.333 3.818 2.43 4.205.083.332-.923 1.69-3.16 2.367-2.234.677-5.928.532-6.754-2.464-.826-2.996.243-5.12 2.284-10.58 2.04-5.46 8.31-19.714 10.205-23.048s3.063-4.35 4.91-4.204c1.846.147 4.275 5.17 6.365 9.327s8.845 19.28 9.622 22.564c.78 3.287.34 6.62-2.137 7.634zM28.15 30.706c.146-.193-.146-.822-.583-.773-.437.048-1.847.966-2.235 3.43-.39 2.464.206 3.372.34 3.527.292.338 1.555 0 1.506-.53-.05-.533-.437-1.595-.292-2.948s1.118-2.513 1.264-2.706zm3.888-1.498c-3.062.82-3.742 3.044-3.45 5.895.292 2.85 3.45 7.876 4.762 7.876s3.548-2.708 4.277-8.023c.728-5.315-3.268-6.373-5.59-5.75zm1.798 11.645c-.583 0-2.43-4.494-2.576-5.508s.68-2.464 1.798-2.754c1.642-.424 3.256.533 3.256 2.32 0 1.788-1.895 5.944-2.478 5.943z"/></svg>