<svg xmlns="http://www.w3.org/2000/svg" width="64" height="64" viewBox="0 0 64 64"><path d="M47.125 15.068c-.445-3.604-4.73-7.597-4.73-7.597s2.838-5.21 2.225-5.82c-.612-.61-2.727-1.275-3.618-1-.89.28-3.507 3.773-3.618 3.994-.11.222-2.17-1.11-5.677-1.11s-5.79 1.11-6.178 1.11S22.855.65 22.354.096s-3.562 1.442-3.73 1.996c-.166.555 2.728 4.38 3.007 5.046.278.665-1.002.665-2.393 2.052-1.393 1.386-2.728 3.77-3.118 6.32-.39 2.552-.056 4.88.39 5.102 1.002.5 26.94.61 29 .277 2.057-.333 2.057-2.22 1.612-5.823zm-2.17 3.16c-.836.39-24.714.777-27.052-.054-.667-.237-.445-2.495.056-4.49s6.12-5.158 5.842-5.88c-.278-.72-3.284-4.88-3.228-5.21.056-.334.835-1.498 1.224-.888.39.61 3.005 4.99 3.56 4.935.558-.053 2.506-1.94 6.736-1.33s5.176 1.886 5.844 1.443c.668-.444 3.34-4.38 3.618-4.49.278-.112 1.948 0 1.67.664-.278.665-3.73 4.602-2.894 5.212.835.61 3.228 3.05 4.34 4.88 1.115 1.827 1.115 4.82.28 5.21l.003-.002zm-2.95 3.716c-2.45-.11-18.424-.388-21.54-.222-3.118.166-3.842 1.496-3.842 2.495 0 4.27.668 29.943.668 30.664 0 .723 3.453.945 4.176.945.724 0 .11 5.99.78 7.486.667 1.498 8.125.167 8.57-.332.446-.5.168-6.876.168-7.43 0-.555 1.17-.444 1.447-.333.28.11-.277 7.32.5 8.15.78.833 6.904.777 7.96-.443 1.06-1.22.335-6.986.28-7.485-.057-.5 1-.11 2.17-.222 1.17-.11 2.505-1.33 2.672-3.604.168-2.273.28-25.563.335-27.06.056-1.496-1.892-2.494-4.34-2.605h-.002zm2.67 13.862c-.222-.166-1.502-1.553-1.947-1.553s-1.002.887-.612 1.22 2.45 1.94 2.45 2.218.11 3.384-.112 3.218c-.223-.166-2.338-3.05-2.672-2.94-.334.112-1.002 1.665-.557 1.942.445.276 2.783 2.162 3.006 2.77.225.61.225 1.775.058 1.72s-2.894-2.94-3.284-2.662c-.39.277-.835 1.11-.278 1.497.557.388 3.674 3.216 3.674 3.493s0 3.16-.224 2.94c-.223-.223-3.228-4.27-3.562-4.215s-.946.555-.39 1.275c.557.72 4.23 4.77 3.896 5.1s-1.78.278-1.948 0c-.167-.276-2.56-4.158-2.783-4.158-.225 0-1.45.222-1.06.776.39.555 2.616 3.77 2.45 3.77s-.725.777-1.06.334c-.333-.444-2.114-3.16-2.114-3.16s-1.225.332-.946.775c.28.444 2.506 3.05 2.506 3.327s.445 6.71.11 6.93c-.333.223-3.84.556-3.95-.276-.112-.832.277-7.375-.224-7.597-.5-.224-5.844-.667-5.956.33-.11 1 .5 7.32.167 7.487-.334.166-4.62.776-4.62-.166 0-.942.39-7.707-.5-7.93-.892-.22-4.398.113-4.454-.442-.058-.556-1.115-26.784-1.06-28.003.02-.447 4.787-.444 11.243-.333 6.457.11 13.804-.11 14.193.555.392.666.78 11.923.56 11.756v.003zM13.395 22.83c-1.67-.276-3.774-.153-4.396.556-.78.887-1.448 19.74-.613 22.125.835 2.386 3.006 2.386 4.842 2.22s2.67-1.83 2.893-3.16c.223-1.33-.223-17.69-.278-18.8-.056-1.11-.78-2.66-2.45-2.94zm-.277 20.684c-.668.444-2.95.277-3.06 0-.112-.277-.168-18.3.055-18.964.103-.307 2.45-.333 2.672-.055.22.277 1 18.575.333 19.02zm42.468-19.52c-.278-1.663-2.56-2.494-4.842-2.328-2.282.166-2.903.76-3.06 1.497-.168.776-.502 19.075-.28 21.238.224 2.165.446 4.826 3.897 4.715 3.45-.11 4.398-2.273 4.62-3.105.223-.832-.056-20.35-.334-22.015zM52.69 45.678c-.333.333-3.394.555-3.506 0-.11-.555-.334-21.127-.056-21.847.144-.372 2.95-.443 3.34-.11.39.33.557 21.625.222 21.958zM19.908 24.883c-.39.11-.11 4.328.167 4.602.278.277.89.222 1.224-.11.333-.334-.168-2.552-.168-2.773 0-.222 1.95-.166 2.172-.166.223 0 0-1.164-.167-1.608s-2.838-.056-3.23.055zm9.462-14.806c-.892-.61-3.753-.678-4.565.333-.89 1.11-1.057 2.883-.167 3.66.89.776 2.95 1.774 4.675.5 1.726-1.276.947-3.883.056-4.493zm-2.56 3.438c-.78-.166-1.17-1.275.11-1.885.78-.37 1.39.055 1.39.776s-.722 1.276-1.5 1.11zm7.123-3.05c-3.173 2.718 1.002 4.825 2.393 4.825 1.392 0 3.173-2.052 2.06-3.493-1.113-1.442-3.11-2.48-4.453-1.33v-.002zm2.56 2.55c-.5.556-1.056.666-1.724.39-.67-.278-.17-1.554.555-1.498.498.04 1.67.555 1.168 1.11v-.002z"/></svg>