<svg xmlns="http://www.w3.org/2000/svg" width="64" height="64" viewBox="0 0 64 64"><path d="M56.766 44.742c-.522-.85-2.09-1.086-3.04-1.936-.95-.85-2.517-4.817-1.948-9.446.57-4.63 4.37-7.32 4.75-8.454s-.618-3.873-3.087-6.99c-2.47-3.117-6.98-4.062-11.113-3.92-4.132.142-9.142 2.93-9.357 2.74-5.273-4.677-9.69-3.26-14.25-1.75-4.56 1.512-10.356 5.81-11.4 14.5-1.046 8.69.522 12.043 3.99 19.46 3.466 7.414 8.074 11.24 10.83 12.75 2.754 1.512 4.94.473 8.93 0 3.99-.47 4.226.615 8.17 1.748 3.94 1.134 5.746.803 10.83-3.59 5.08-4.39 6.174-9.445 6.46-11.003.283-1.556.758-3.257.236-4.108zM54.96 47.34c-.19-.047-1.044-1.417-1.47-1.275s-.713.142-.523.472c.19.33 1.33 1.89 1.187 2.598-.142.708-.475 1.748-.712 1.653-.238-.095-3.135-7.32-3.61-7.415-.475-.094-1.045-.094-.903.756s4.13 7.79 3.99 8.17c-.144.377-.62 1.51-.857 1.227-.237-.283-4.465-9.446-4.797-9.35-.333.094-.855.377-.76.707s5.272 9.115 4.797 9.54c-.475.425-1.093 1.464-1.235 1.18-.143-.282-4.608-9.587-4.846-9.634-.237-.046-.95.237-.807.662.142.425 5.225 9.35 5.082 9.493-.143.142-1.426 1.464-1.52 1.322-.096-.142-4.323-8.17-4.56-8.17-.238 0-1.378.52-.998 1.18.38.66 4.75 7.462 4.7 7.65-.047.19-1.14.993-1.14.993s-3.276-6.848-3.894-6.848-.903.614-.808.992c.095.378 4.037 6.282 3.657 6.33-.38.046-.76.33-.856.093-.096-.236-3.278-5.762-3.61-5.81-.334-.046-1.33.237-.95.898.38.66 3.466 4.912 3.18 5.006-.284.097-.996.285-1.09.144-.096-.142-2.186-3.826-2.566-3.826-.38 0-1.046.472-.904.945.142.472 1.9 1.842 1.282 1.89-.618.046-4.322-2.032-7.03-1.276-2.707.756-3.942 2.362-7.742 1.18-3.8-1.18-8.977-4.864-12.445-11.523s-4.75-13.555-3.37-18.94c1.376-5.383 4.89-10.153 10.45-12.23 5.556-2.08 9.404-.38 10.64.282 1.234.66 1.756 2.503 2.28 2.88.584.424 1.33-.802 3.466-2.077 2.138-1.276 6.983-2.693 11.448-1.37s6.46 5.053 6.792 5.62c.333.566.238 1.085.048 1.416-.19.33-4.56 4.392-5.89 6.99s-1.377 7.273.333 9.87c1.71 2.6 4.323 4.063 5.273 4.63.95.566 1.045.046 1.377.755.333.71.096 2.268-.094 2.22h.004zM11.88 27.173c-2.043 4.298-1.046 6.896-1.046 6.896.285.423.855.14 1.235.092s.71-3.212.853-5.62 3.847-6.234 4.037-6.47c.19-.236-.237-.19-.617-.283-.38-.097-2.42 1.084-4.464 5.382zm29.544-14.83c2.707-1.606 6.412-5.1 6.365-7.604-.05-2.505-.62-5.34-4.42-4.63-3.8.708-7.885 5.904-9.547 9.068-1.662 3.164-.385 4.49-.19 4.723 1.424 1.703 5.08.05 7.79-1.557zm-.808-9.682c2.992-1.65 4.417-1.934 5.177-.28s-3.515 6.847-5.89 8.217-5.13 2.362-5.985 1.322c-.2-.246 3.706-7.605 6.698-9.258z" fill="#232021"/></svg>