<svg xmlns="http://www.w3.org/2000/svg" width="64" height="64" viewBox="0 0 64 64"><path d="M46.612 12.356C44.97 3.646 34.728.612 29.398 2.572c-13.534 4.977-11.155 18.212-7.87 22.793s12.004 8.2 18.402 4.468c6.4-3.733 8.324-8.767 6.682-17.477zm-11.948 9.67c.17.114 3.114 5.09 3.114 5.09l-1.755.623s-2.322-4.98-2.718-5.036c-.396-.056-.85.453-.736.622s2.263 4.58 2.263 4.58-2.322.17-2.605-.056c-.284-.225-1.7-2.883-1.926-2.996s-1.36.68-1.36.68 1.473 2.205 1.19 2.318c-.283.113-5.04-.68-7.418-4.41S18.81 9.414 28.152 4.89C30.8 3.608 36.93 3.42 40.95 6.756c4.02 3.337 4.02 10.972 3.68 10.86-.34-.114-2.66-5.09-3.51-5.26s-.907.508-.737.678c.17.17 3.398 5.825 3.398 6.165s-.34 1.81-.51 1.81-3.34-5.713-3.792-5.77c-.453-.056-.793 1.075-.68 1.244.113.17 3.68 5.373 3.624 5.995-.056.62-1.075 1.865-1.245 1.752-.17-.113-3-5.316-3.398-5.373-.397-.058-.964.45-.68.68.282.224 3.34 5.54 3.227 5.71-.113.17-1.642 1.075-1.642 1.075s-2.548-4.75-2.888-4.864c-.338-.112-1.3.453-1.13.566h-.003zm-5.21-14.873c-.51 0-1.472.566-3.058 2.32-1.585 1.752-1.982 3.28-1.982 3.62s.906.565 1.19.565c.282 0 .395-1.188 1.47-2.828 1.077-1.64 3.06-2.375 3.06-2.375s-.35-1.302-.68-1.302zm23.33 24.263c-4.587-.51-14.78 1.584-16.308 11.03-1.53 9.444 2.152 15.156 9.173 18.55C52.67 64.39 63.824 58.96 63.994 48.1c.17-10.858-5.133-16.01-11.212-16.684zm8.267 15.327s-.224 2.997-.564 2.6c-.34-.395-2.888-4.58-3.114-4.636-.226-.057-.792.848-.792.848s3.51 4.864 3.454 5.26c-.057.396-1.19 2.036-1.19 2.036s-2.83-5.427-3.17-5.484c-.34-.057-.85.51-.793.735.057.227 3.51 5.317 3.228 5.77-.283.45-.85 1.527-1.076 1.357-.226-.17-2.887-5.26-3.17-5.26-.283 0-.963.565-.85.848.114.283 3.4 4.977 3.23 5.316-.17.34-1.36.963-1.53.793-.17-.17-2.718-4.75-3.058-4.807s-.85.452-.85.452 2.89 5.034 2.606 5.26c-.283.226-2.04.34-2.04.34s-2.434-4.243-2.774-4.412c-.34-.17-.793.396-.793.68 0 .282 2.606 3.788 2.323 3.788-.283 0-1.53.057-1.87-.17-.34-.226-1.868-2.997-2.32-3.11-.454-.114-.964.565-.85.79.113.227 1.416 2.207 1.246 2.207-.17 0-4.248-.734-6.57-3.96-2.322-3.222-2.718-10.8.226-15.44 2.945-4.636 9.4-6.446 14.043-5.145 3.138.88 6.285 4.468 6.908 6.844.623 2.374.283 4.41.283 4.41s-1.584-3.11-1.924-3.167c-.34-.057-.906.51-.85.68.058.17 2.606 4.58 2.606 4.58zm-13.474-10.52c-.566.227-1.87.906-3.737 2.602s-2.55 3.45-2.55 3.79c0 .338.794.678 1.077.62.283-.055.68-1.64 2.208-3.166 1.53-1.53 3.567-2.49 3.68-2.66.113-.17-.347-1.32-.68-1.187zm-33.013-4.41C3.973 32.037-.614 41.086.066 47.873s6.4 12.895 13.987 13.63c7.588.735 16.478-7.353 14.893-17.25-1.587-9.897-9.32-12.55-14.384-12.44zM25.83 47.59s-2.378-4.58-3.17-4.637c-.794-.057-.907.566-.68.792.226.226 3.453 4.298 3.34 4.864-.113.563-.34 1.3-.51 1.3s-2.945-4.356-3.34-4.47c-.397-.112-.907.68-.794.906.113.226 3.51 4.92 3.51 4.92l-.848 1.47s-2.888-4.524-3.114-4.58c-.227-.057-1.02.62-.85.79.17.17 3.342 4.638 3.172 4.978-.17.34-.396.848-.566.848s-2.66-4.185-3-4.298-.85.68-.85.68 3.228 4.014 2.888 4.41-1.02.68-1.02.68-2.66-4.412-2.887-4.412-.96.68-.904.848c.057.17 3.058 4.016 2.718 4.243-.34.226-1.925.735-1.925.735l-2.493-3.733s-.963.283-.85.68c.114.395 2.153 3.392 1.926 3.506-.227.115-1.02.115-1.19 0-.17-.11-2.153-2.94-2.493-3.11s-1.076.226-1.076.396 2.208 2.77 1.925 2.94c-.285.17-3.626-.508-6.74-3.562-3.115-3.054-6.544-9.61-1.473-16.232 3.68-4.807 8.55-5.147 10.08-5.203 4.923-.184 9.342 2.09 10.814 7.237s.4 7.013.4 7.013zM10.37 36.055c-.395.17-1.81 1.414-3.057 2.715-1.246 1.3-2.152 2.6-2.095 2.996.057.396 1.36.622 1.53.283s.112-.624 1.13-2.038c1.02-1.414 3.06-2.545 3.172-2.715.114-.17-.375-1.374-.68-1.244v.002z"/></svg>