<svg xmlns="http://www.w3.org/2000/svg" width="64" height="64" viewBox="0 0 64 64"><path d="M7.352 10.71c-.73 0-3.692-.035-4.04.208s-.197 6.717.035 6.69c.313-.034.975-.068 1.15-.138s.07-5.027.07-5.304 3.238-.07 3.62-.38c.384-.314-.103-1.076-.835-1.076zm1.185 15.22c.07 1.005.488 1.387 1.15 1.942.66.555 1.114.728 2.09.693s5.955-.312 8.254-.763c2.3-.45 3.31-2.635 3.59-5.235s-.592-4.61-2.612-5.686-5.643-1.35-7.315-1.246-4.097.546-4.598.693c-1.533.45-.627 8.598-.557 9.604zm3.726-6.172c.365-.333 1.115-1.005 2.055-1.11s6.2-.45 6.688.07 1.88 2.53 1.22 4.715-1.708 2.982-3.45 3.19c-1.74.208-5.293.52-6.164.555s-.906.277-.975-.104-.174-5.686-.21-5.998c-.034-.312.418-.936.836-1.318zM8.92 29.674c-.035-.416-.557-.243-.975-.416s-.418-2.6-.488-3.016c-.07-.416-1.323-.55-1.463-.104-.174.555.14 3.883.28 4.438.138.555 1.148.208 2.193.173 1.045-.037.488-.66.453-1.077zM24.872 14.28c1.324 1.7 1.08 3.4 1.324 3.745s.906.173 1.324-.035.383-2.323-1.463-4.438c-2.088-2.392-4.174-2.41-4.493-2.323-.383.102-.488.97-.21 1.21.28.245 2.145.077 3.518 1.84zm6.177 15.902l.602-1.895c.604-1.895 1.858-7.997.743-12.25-1.115-4.253-6.78-7.165-9.38-8.413-2.602-1.248-12.633-.277-15.606-.046-2.973.23-6.866.204-7.338.832-.28.37.325 16.18.464 23.76.14 7.58-.046 20.293.046 20.617.093.324 2.23 3.097 2.554 3.375.325.277.882 0 2.694 0s7.525.508 12.17.786c4.643.277 8.73-.555 11.377-2.265s5.248-7.257 5.434-14.33c.188-7.073-3.76-10.17-3.76-10.17zm.44 8.506c-.07-.104-.73-1.283-1.046-1.213s-.766.624-.662.936c.104.314 1.88 3.157 1.846 3.4-.036.243-.105 1.005-.314.763s-1.498-2.808-1.672-2.808c-.174 0-.87.485-.662 1.04.21.555 1.88 3.536 1.916 3.918.035.38-.383 2.01-.522 1.768s-1.776-3.26-1.985-3.26c-.21 0-.8.73-.697 1.04s1.985 3.365 1.95 3.573c-.034.208-.974 1.42-1.183 1.352s-1.706-3.675-1.95-3.71c-.244-.035-1.15.277-.975.66s1.916 3.813 1.846 4.02c-.07.21-.416.66-.59.556-.174-.103-1.707-4.02-2.02-4.09-.313-.07-1.08.38-1.01.555.07.173 2.194 3.814 2.055 4.022-.14.208-.662.867-.906.555-.245-.31-2.056-4.367-2.37-4.367-.313 0-.906.485-.8.763.103.277 2.37 3.918 1.845 4.09-.522.174-1.115.174-1.22 0-.103-.172-1.915-3.882-2.09-3.95s-.905.068-.87.346c.035.277 2.02 3.57 1.707 3.64-.312.07-1.497 0-1.636-.14s-1.498-3.674-1.81-3.71-1.046.382-.94.625c.103.242 1.566 3.05 1.392 3.05s-1.567-.035-1.567-.035-1.393-3.05-1.672-3.12c-.28-.07-.975.416-.87.66.103.242 1.462 2.322 1.253 2.322-.21 0-1.253.07-1.462-.07-.21-.138-1.393-2.877-1.707-2.91-.312-.036-.905.034-.94.415-.034.38 1.36 2.67 1.15 2.74-.21.068-.906.068-1.08 0-.174-.07-1.36-2.844-1.602-2.844-.244 0-1.045.312-1.045.59s1.29 2.183 1.115 2.183c-.174 0-1.393.07-1.533-.035C8.015 51.9 6.9 49.23 6.76 49.23c-.138 0-1.114.485-1.044.59.07.103 1.115 1.836.906 1.906-.21.07-1.498.173-1.742.035s-.73-2.252-.906-2.252c-.174 0-.836.416-.8.624.034.21.556 1.734.417 1.77-.137.034-1.39.138-1.46 0-.07-.14-.105-11.997-.14-17.856s-.523-24.2-.384-24.513c.11-.246 5.33-.588 9.37-.796s9.927-.624 12.19.485 7.21 3.986 6.898 9.082-1.498 7.974-2.438 8.875-2.37 1.11-2.37 1.767c0 .66 1.464.624 1.917 1.11.453.484 3.31 3.43 3.38 3.847s.07.485-.07.555-.837.796-.558.935 1.637 1.872 1.672 2.22c.034.347-.036 1.18-.106 1.075v-.002zm-8.778-5.166c-.557-.416-6.93-.832-9.44-.832s-4.563.072-4.84.624c-.175.347-.105 12.516-.036 12.828.07.312.383.347 1.15.416.765.07 5.642.07 7.28.104 1.636.035 3.273.208 5.955-1.04s3.345-2.947 3.17-6.17c-.173-3.225-2.68-5.514-3.238-5.93zm1.81 7.87c-.208 1.837-1.95 3.502-3.83 3.744-1.88.243-6.165 0-7.315-.035-1.15-.033-1.29.07-1.324-.033-.035-.104-.104-7.454.035-7.94.13-.452 2.054-.9 5.433-1.178 3.38-.278 4.773-.38 5.4.103.627.487 1.81 3.503 1.6 5.34h.002zm17.173-19.415c.453.173 2.82.035 6.06-.208 3.24-.245 9.614-.21 9.963-.21.347 0 .312-4.576.208-5.443s-2.682-1.42-4.667-1.525c-1.985-.104-12.05-.208-12.783.07-.73.276-.73 4.99-.488 5.407 0 0 1.252 1.733 1.705 1.907zm-.105-5.824c.18-.133 8.36-.277 10.45-.173 2.09.104 2.334.173 2.473.416s.21 1.42-.035 1.7c-.244.276-8.708.207-10.45.207-1.74 0-2.09.173-2.368-.035s-.208-2.01-.07-2.115zm21.144 27.493c-.313-.208-5.4-.243-5.817-.173s-.836 2.08-1.742 3.155c-.906 1.075-3.448 1.317-4.284 1.005-.834-.312-2.02-4.784-1.914-4.992.104-.206 11.738-.345 12.052-.345s1.602-1.976 1.707-2.15c.104-.173.453-1.907.348-4.992-.104-3.086-.14-3.987-1.81-6.483-1.673-2.497-5.435-4.16-7.873-4.44-2.44-.276-6.62-.38-9.475.937-2.856 1.317-4.822 3.146-6.13 5.304-1.22 2.013-2.403 6.555-2.09 10.334.313 3.78 2.508 8.77 4.18 10.61 1.672 1.836 5.294 4.02 9.335 4.23s7.245-.14 10.45-1.422c3.203-1.282 4.18-5.858 4.318-6.586.138-.728-.94-3.78-1.254-3.988v-.002zM49.498 52.21c-.244-.174-1.567-3.156-1.846-3.295-.28-.14-1.01-.035-1.184.243s.94 2.6.627 2.53-4.215-1.455-6.374-4.194c-2.16-2.74-3.62-6.45-3.795-9.29-.174-2.844 1.88-7.56 4.075-9.5s4.492-3.225 9.264-3.26c2.125-.015 5.05.416 7.628 2.115 2.578 1.697 3.38 3.777 3.553 4.852.174 1.075.348 2.358.174 2.323-.176-.035-.977-3.294-1.186-3.26-.21.036-.836.625-.836 1.11s1.915 4.923 1.915 5.2.174 1.283-.035 1.317c-.21.035-1.95-4.992-2.194-4.992s-.975.105-.906.73c.07.623 1.916 4.47 1.776 4.506-.14.035-.766.104-1.045-.035s-1.324-3.57-1.67-3.604c-.35-.035-.768.52-.733.728s1.15 2.843 1.01 2.843h-.348s-1.15-2.74-1.325-2.74-.836.21-.8.417 1.01 2.496 1.01 2.496-.42.138-.558-.105c-.14-.243-1.045-2.74-1.29-2.774-.243-.033-.835.453-.73.73.104.277.8 2.115.662 2.115s-.628.14-.73-.07c-.106-.207-.908-2.426-1.186-2.46-.28-.036-1.15.346-1.01.554s.836 1.94.662 1.94-7.315-.242-7.524.036c-.21.277-.592 2.947-.14 4.715s1.603 3.537 3.17 4.196c1.568.66 1.917.797 1.917.797l1.044 3.155c-.002.002-.803.106-1.047-.068zm2.3-.07c-.28-.173-1.29-2.496-1.22-2.704.11-.326.8-.14 1.08.07.28.207 1.393 2.565 1.254 2.67-.14.103-.837.137-1.114-.036zm2.75 0c-.14.035-.21.104-.488-.07s-1.324-2.39-1.393-2.6c-.055-.163.662-.242.906 0 .244.243 1.115 2.635.975 2.67zm2.682-.97c-.21.276-1.29.935-1.533.658s-.975-2.808-.975-3.05c0-.28.592-.625.87-.486s1.847 2.6 1.638 2.878zm.94-.555c-.278-.07-1.6-2.878-1.67-3.12-.076-.26.243-.485.487-.347.244.14 1.776 2.982 1.707 3.224-.07.243-.244.312-.523.243zm1.255-.97c-.244-.21-1.846-3.92-1.88-4.16-.043-.296.208-.417.59-.417.384 0 1.917 3.814 1.917 3.918 0 .103-.383.866-.627.66zm1.463-1.7c-.453 0-1.254-2.6-1.22-2.843.023-.154 1.708-.277 1.882-.104s-.21 2.947-.662 2.947zm-12.052-13.07c1.88 0 7.35-.105 7.698-.105s.313-1.11.174-2.184c-.14-1.075-.94-3.398-3.97-3.848s-6.096.693-7.28 2.08-1.19 3.857-.907 3.987c.456.208 2.406.07 4.286.07zm1.045-3.467c1.36-.485 2.823-.59 3.624-.45.8.138 2.742 1.91 1.602 2.287-.21.07-5.99.38-6.827.14-.234-.07.244-1.492 1.602-1.977zm-6.337-2.566c-.28-.173-2.578 1.976-3.622 4.09s-1.656 5.272-1.357 5.41c.453.207.418.103.73.068.314-.035.49-1.733 1.22-3.78s1.95-3.12 2.786-4.298c.835-1.178.52-1.317.243-1.49z"/></svg>