<svg xmlns="http://www.w3.org/2000/svg" width="64" height="64" viewBox="0 0 64 64"><path d="M62.965 9.597c-.73-1.207-8.344-.644-8.344-.644s.407-4.183-2.43-4.988S17.437 3 10.63 3 2.27 4.11.91 5.413c-2.27 2.172.404 40.384.566 41.832s6.157.965 6.48 1.207-2.105 11.1-.81 11.182 9.48-7.08 10.37-7.562c.892-.483 27.546.322 28.113.322S53 60.68 54.7 59.956c1.7-.724 3.97-9.653 3.97-9.653s2.998.16 4.537-.483c1.536-.644.483-39.017-.245-40.223zM53 21.583c-.243-.483-.567-1.207-1.053-.965-.486.24-1.134.885-.73 1.207.406.32 1.783 1.93 1.783 2.17s-.162 2.173-.162 2.173-1.296-2.172-1.7-1.85c-.406.322-1.054 1.126-.568 1.448s2.268 2.494 2.268 2.976c0 .483-.08 2.413-.08 2.413s-2.43-3.78-2.836-3.46c-.405.323-.89 1.127-.486 1.37s3.16 4.343 3.24 4.584c.082.24.406 2.894.163 2.653-.245-.24-3.324-5.39-3.73-5.23s-.97.805-.647 1.208c.324.403 4.294 6.356 4.294 6.84s0 3.46-.324 3.46-4.618-8.127-5.023-8.047c-.404.08-1.295 1.046-1.052 1.287.243.242 5.266 8.046 4.78 8.206s-2.268.16-2.592-.08-3.24-6.114-3.565-6.114-1.294.402-.89.885c.406.483 3 5.148 2.674 5.148s-2.268.08-2.35-.24c-.08-.323-2.43-4.828-2.672-4.828s-1.052.322-.647 1.046 2.106 3.78 1.782 3.78-2.35.484-2.51.08c-.163-.4-1.46-3.217-2.107-3.297-.648-.08-1.62.402-1.053.885s2.106 2.657 1.782 2.657-3-.24-3-.24-1.053-2.817-1.62-2.977c-.567-.162-1.296.4-1.053.723.243.322 1.215 2.333 1.215 2.333s-13.204-.724-14.176-.24-10.615 9.41-11.02 9.41 2.916-9.814 1.944-10.217-6.886.32-7.453-.243c-.57-.562-2.837-35.637.078-36.6 1.37-.454 16.77-1.288 23.9-1.37s24.385.805 24.79 1.61.65 15.93.405 15.446zm-40.02-14.4c-.243-.483-5.51-.24-6.48.24s-.76 6.888-.325 7.322c.567.563.972.16 1.377.16s.162-4.826.162-5.71c0-.886 4.375-.403 4.86-.403s.65-1.126.406-1.61zm33.134-.08c-.324.16-.567 1.448.324 1.85s2.187.402 3.08.483c.89.08.323 2.816.404 3.218.08.402.972.322 1.458.24.486-.08.243-4.826 0-5.39s-4.714-.675-5.266-.4zM20.838 19.41c-.81-.12-6.657-.54-7.008-.24-.567.483-2.51 6.315-2.47 6.717s2.59.16 5.224.16 4.132.122 5.185-2.25-.123-4.266-.933-4.386zm-.527 4.063c-.484 1.207-1.213 1.086-1.74 1.086s-3.767-.04-3.767-.04.85-2.415 1.053-2.496c.226-.09 3.484.04 3.808.04s1.135.202.648 1.408zm.49-6.476c2.146 0 3.24-.2 3.89-3.82s-8.14-2.588-8.468-2.334c-.364.282-2.065 5.43-2.024 5.832.04.403 4.455.322 6.6.322zm-2.108-4.142s3-.04 3.363 0c.365.04 1.296-.08.85 1.448s-1.012 1.327-1.457 1.327-3.808 0-3.767-.16c.04-.162.77-2.455 1.012-2.615zm18.796 1.93c.69-2.413-.77-3.42-1.215-3.46s-5.283-.428-5.71-.12c-.89.644-2.552 5.67-2.51 6.033.04.362 4.414.362 5.913.362 1.498 0 2.835-.4 3.522-2.815zm-1.66-.04c-.365.885-.648 1.368-1.54 1.327-.89-.04-2.997-.08-2.997-.24s.93-2.776 1.296-2.897c.27-.09 2.228.12 2.51.16.285.04 1.095.765.73 1.65h.002zm10.936 1.93c-.243 0-5.266-.28-5.428-.16-.324.24-2.147 5.872-1.985 6.315.16.442 5.347.483 6.036.402.69-.08 2.147-.523 2.795-2.775s-1.174-3.78-1.417-3.78v-.002zm-.162 3.54c-.203 1.046-.85 1.408-1.377 1.408s-2.916-.04-3.038-.2.648-2.615.85-2.857c.215-.255 2.634.08 2.836.08s.933.523.73 1.57zM43.2 26.29c-.608 0-4.883-.39-5.063-.163-.446.563-2.025 5.872-1.904 6.154.123.283 4.7.443 5.63.323.933-.12 2.553-.442 3.363-3.137s-1.418-3.178-2.025-3.178zm.202 3.62c-.324.6-1.013 1.325-1.823 1.245-.81-.08-2.47 0-2.47-.12 0-.122.89-3.018 1.213-3.138.194-.072 2.553-.04 2.917.282.366.32.487 1.125.162 1.73zm-12.395.52c-.365 0-5.817-.132-6.036 0-.527.323-2.835 6.195-2.552 6.396.284.2 6.927.2 7.615.16.69-.04 1.54-.08 2.552-2.774 1.014-2.695-1.214-3.78-1.58-3.78h.002zm-1.093 4.988c-1.377.04-4.172.12-4.213-.202-.04-.322 1.013-2.413 1.296-2.574.25-.14 3.403-.04 3.89.16.485.202.404 2.575-.972 2.616zm3.645-15.366c-.77-.04-5.55-.282-5.996 0-.446.282-1.7 5.792-1.54 5.953.163.16 4.983.16 6.158.16 1.175 0 2.106-.28 2.754-2.412s-.607-3.66-1.377-3.7zm-.406 3.5c-.203.885-.81 1.126-1.175 1.126s-2.47-.08-2.47-.08.403-2.212.525-2.373c.1-.133 2.43 0 2.633 0s.69.442.486 1.327z"/></svg>