<svg xmlns="http://www.w3.org/2000/svg" width="64" height="64" viewBox="0 0 64 64"><path d="M63.944 49.424c.09-7.24-.89-42.47-.89-43.882s-1.42-3.62-2.844-4.856C58.788-.55 45.632.244 39.855.333 34.077.42 12.12.597 8.92.51c-3.2-.09-7.035-.023-7.2.794-.177.883.268 6.18.268 9.36s.445 15.45.178 21.543-.978 22.16-1.156 25.428c-.178 3.267 2.133 5.916 2.756 5.916.622 0 10.933.355 16.89.443 5.955.088 36.088-.618 37.777-.618 1.69 0 3.822.353 4.89-.44 1.065-.796.532-6.27.62-13.51zm-13.956 10.02c-.355.045-2.045.222-2.267-.087-.22-.31-2.043-4.238-2-4.326.086-.165.89-.44 1.247-.175.355.265 3.377 4.547 3.022 4.59zm3.067-6.533c-.755.134-5.822.4-8.445.488-3.554.12-9.29-.044-9.6-.397-.31-.352.045-14.39.49-15.45.443-1.06 1.51-1.68 4.22-1.9 2.712-.22 8.4 0 10.8.046 2.4.044 3.38.22 3.512.44.133.222-.267 13.466-.267 14.79s.045 1.854-.71 1.986zm-.445 6.227c-.4.088-1.467.22-1.69.044s-2.577-4.15-2.577-4.414c0-.283 1.645-.132 1.733 0 .09.133 2.934 4.283 2.534 4.37zm2.756.265c-.356-.043-1.378.045-1.6-.13-.222-.178-2.8-4.372-2.756-4.592.044-.216 1.067-.353 1.156-.177.09.177 3.555 4.945 3.2 4.9zm2.267-.22c-.356.044-1.245.31-1.51-.044-.268-.353-2.49-4.68-2.534-4.856 0 0 .487-.397.8-.22.31.176 3.597 5.076 3.242 5.12zm2.444.045c-.267 0-1.11.132-1.333-.044-.222-.176-3.467-5.826-3.69-6.224-.173-.31.046-2.076.268-2.03.222.042 4.533 6.49 4.71 6.973.178.486.312 1.325.045 1.325zm.178-11.92c-.09-.132-3.69-6.754-4-6.534-.31.222-.31 1.237-.31 1.37 0 .132 4.177 6.18 4.177 6.313 0 .132.09 4.017 0 3.84s-3.956-6.268-4.133-6.312c-.18-.043-.4.663-.357.84.044.177 4.4 6.445 4.356 6.666-.046.22.132 3.443.044 3.31-.09-.13-4.09-7.24-4.222-7.24-.133 0-.578.487-.578.487s.133-11.302.09-14.304-.4-3.974-1.78-4.24c-1.377-.264-7.777-.794-12.8-.794-5.02 0-9.955-.884-10.132 2.12-.178 3-.222 17.083-.222 18.45 0 1.37.446 2.78 1.112 3.003.667.22 4.89.31 7.867.397 2.976.088 4.8.397 4.8.397l2.353 4.106s-1.333.088-1.6-.177c-.267-.265-1.778-3.31-2.09-3.355-.31-.043-1.02-.043-.888.487s2.045 3.002 1.69 3.09c-.357.088-1.38.177-1.468.044-.09-.13-1.378-3.663-1.822-3.663-.444 0-1.2.177-1.022.574.178.398 1.733 3.135 1.51 3.135-.22 0-1.555.044-1.555.044s-2-3.84-2.268-3.84c-.267 0-1.067.086-.978.44.09.352 1.91 3.575 1.91 3.575s-1.42 0-1.51-.132c-.09-.132-1.778-3.885-2.045-3.885-.268 0-1.156.044-.98.486.18.442 1.868 3.356 1.69 3.356-.178 0-.978.044-.978.044s-2.356-4.415-2.89-4.547c-.533-.132-1.11.662-1.11.662s2.8 4.016 2.444 3.93c-.356-.09-1.822-.134-1.822-.134s-4.178-7.946-4.533-8.21c-.356-.266-1.38.043-1.29.22.09.177 4.49 7.858 4.31 7.902-.177.044-1.11 0-1.11 0s-4.18-8.874-4.58-9.006c-.4-.132-1.02.088-.976.31.044.22 4.978 8.784 4.444 8.784-.532 0-1.688.044-1.82-.044-.134-.088-3.912-8.564-4.223-8.697-.31-.13-1.11-.087-1.067.442.044.53 3.867 8.344 3.644 8.344-.222 0-.755-.043-.755-.043s-4-7.726-4.49-7.77c-.49-.044-1.067.84-1.022 1.104.045.266 4.356 6.71 4.09 6.755-.268.044-1.69.265-1.912.177s-3.245-6.71-3.555-6.754c-.31-.044-.755.574-.666.706.09.13 3.51 6.224 3.244 6.18-.267-.044-.755.088-.933-.177-.178-.265-3.022-5.474-3.29-5.563-.266-.088-.888.486-.844.75.045.266 2.98 4.857 2.845 4.857-.133 0-.845.133-.933 0-.09-.13-2.045-3.53-2.31-3.53-.268 0-.534.617-.4.97.132.353 1.732 2.56 1.555 2.56-.178 0-.622.133-.756.045-.132-.087-1.29-2.162-1.51-2.206-.222-.045-.622.485-.445.617.178.132 1.245 1.678 1.067 1.678s-5.467.132-7.29.044c-1.82-.09-2.888-.62-2.977-1.546-.09-.928.222-10.508.89-17.836s.532-9.8.22-18.32c-.312-8.52-.578-19.073-.356-19.91.106-.406 4.977-.09 6.844-.09s15.69-.176 23.867-.264c8.18-.088 22.046-.44 22.846-.397.8.044 2.355 0 2.533.486.177.485.49 8.563.31 8.475-.178-.088-.4-.44-.62-.31s-.67 1.06-.58 1.325c.09.265 1.29 1.5 1.29 1.987s.22 1.015.043 1.015-1.91-3.134-2.267-2.825c-.355.31-.49.795-.31 1.192.177.396 2.8 3.398 2.8 4.15 0 .75.043 2.692-.134 2.383-.178-.31-3.29-5.827-3.556-5.607-.267.22-.667.75-.533 1.148s4.045 6.004 4.133 6.357c.09.354.133 3.18 0 3.18s-4.71-8.3-5.067-8.08c-.356.222-.756.972-.623 1.15.133.176 5.778 8.343 5.778 8.652s.044 2.65-.222 2.605c-.267-.044-5.156-8.697-5.467-8.653-.31.044-.71.883-.444 1.324.267.44 5.91 8.61 5.91 8.74s.18 3.313-.043 3.27c-.223-.045-6.446-9.978-6.757-9.8-.31.175-.578.88-.578.88s7.333 9.448 7.333 9.625c0 .177.177 3.002.177 3.002l-3.29-5.564-.354 1.192s4.045 5.783 4 5.916c-.044.133.09 3.003-.044 2.96-.133-.045-3.29-6.314-3.51-6.226-.223.09-.356 1.325-.268 1.634.09.31 3.91 5.607 3.91 5.783s.224 4.68.135 4.55zM6.12 56.885c-.266 0-.31-4.06-.266-4.547.045-.486-.933-.706-1.245-.177-.313.53-.223 6.31.176 6.49.978.443 2.49-.572 3.2-.66s1.2-.97 1.067-1.15c-.133-.175-2.666.046-2.933.046zm-.488-43.088c.844.22 1.11-.088 1.2-.397.09-.31 0-7.108.044-7.46.045-.354.4-.575 1.29-.62.888-.043 4.933-.22 5.333-.22s.62-1.148-.047-1.324c-.667-.177-5.467.044-7.2.265-1.733.223-1.155 4.417-1.067 6.315.09 1.898.056 3.342.445 3.443zm24-5.74c-1.2-.264-9.51-.705-14.356-.75-4.844-.043-5.453.76-5.91 1.28-.623.707-.623 3.09-.623 5.784S8.21 28.5 8.3 30.045c.088 1.545.666 1.59 2.977 1.633 2.31.044 10.533 0 14.8.044 4.267.045 3.956-.396 4.533-.882.578-.486 1.067-16.643 1.156-19.336.09-2.69-.934-3.177-2.134-3.442zm.045 18.587c-.267 3.002-.044 3.267-.755 3.488-.71.22-4.356.177-9.378.132-5.022-.044-6.71.177-6.933-.22-.22-.398-.576-14.702 1.2-16.953.554-.697 2.358-1.102 4.58-1.146 2.22-.044 10.756.618 11.467.883s.087 10.816-.18 13.818zM56.687 4.89c.3 0 .334 2.882.4 3.312.068.43 1.034.232 1.3.066.268-.166.034-4.106-.4-4.536-.432-.43-6.62-.257-6.8.1-.166.33-.1.96.134 1.092.236.132 5.07-.033 5.37-.033zM614.78 1185.41c-7-12.5-20.834-14.167-31.918-11-11.083 3.167-15.417 9.417-16.167 13.833s-.083 19.333 0 27.583.623 10.202 1 11.417c.375 1.208 9.188.792 9.938.042s-3.188-21.625-.562-30.812 6.814-11.125 15.74-11.188 12.887 5.5 14.76 12.188-.623 13.188-4.623 17-9.25 3.625-9.438 3.625 0-2.625 0-2.625 3.874-.062 6.187-1 5.75-3.938 5.688-12.375-5-13.5-12.25-13.562-11.27 2.958-12.52 7.125c-1.25 4.17.082 28.67.082 29.92s.75 2.332 1.833 2.666c1.082.333 12 1 19.332-.5 7.333-1.5 11.833-4.917 14.583-10.75s5.334-19.085-1.666-31.585zm-4.334 33.5c-4.312 4.25-7.75 5.688-14.438 5.938s-12.812.562-13.125-.188-.75-28.375 0-29.938 7.125-5.938 13.375-3.812 6.125 11.125 5.125 15.062-3.25 5.062-5.438 5.625-7.438.375-7.562 1-.438 7.188.312 7.375 4.875 1.062 10.438-1.188 9.812-6.562 10.438-13.688-1.623-14.438-6.873-19.375-16.25-3.936-21.688-.436-7.376 11.062-7.44 14.938 1.063 24.44.626 24.69-4.812.25-5.188-.063c-.483-.403-.688-26.876-.625-31.126s-.062-7.688 4.5-11.75 14.812-9.188 26.25-5.375 15.5 13.437 17.062 21.687-1.436 16.375-5.748 20.625zm-35.292-35.875c-2.417 2.083-2.605 3.132-2.542 3.292.083.208.792.625.958.625s.417-.917 2-2.542 3.958-2.333 4.208-2.583.25-1-.125-1.25-2.082.375-4.5 2.458zm14.167 9.917c-.456-.292-3.75.542-4.08 1.333-.334.792-.094 4.53.082 4.708.25.25.918.458 1.25.167.334-.292-.124-3.458.084-4.042.208-.583 2.625-.792 2.792-.917s.333-.955-.125-1.247zm4.335 17.75c.042-.208-.927-1.94-1.125-1.875-.126.042-.75.333-.793.458-.042.125 1.042 1.625 1.167 1.708s.708-.083.75-.29zm3.375-.375c.207-.167-1.876-2.833-2.084-3-.208-.167-.97.316-1 .5-.042.25 1.958 2.625 2.083 2.792s.79-.127 1-.294zm2-1.333c.082-.208-2.376-3.542-2.626-3.625s-.697.356-.667.54c.042.25 2.333 3.333 2.583 3.542.25.207.626-.25.71-.46zm1.25-2.25c.04-.25-2.75-3.833-3.084-3.958s-.667.708-.667.708c.08.333 3.5 3.75 3.5 3.75s.206-.25.25-.5zm-.418-2.167c.25.167.542-.292.583-.5.042-.208-2.333-2.958-2.5-3.125-.167-.167-.583.708-.583.708.125.125 2.25 2.75 2.5 2.917zm.917-2.625s.25-.25.206-.5c-.042-.25-2.833-3.417-3.083-3.458s-.333.542-.333.542c.21.124 3.21 3.416 3.21 3.416zm-.377-4.25c.167.042.042-.333 0-.708-.042-.375-1.792-1.792-2.125-1.875-.334-.085-.168.75-.168.75s2.125 1.79 2.292 1.83z"/></svg>