<svg xmlns="http://www.w3.org/2000/svg" width="64" height="64" viewBox="0 0 64 64"><path d="M25.026 21.63c-.393-.07-3.858-.252-4.36-.252s-1.464.506-1.57.506-.108-2.456-.037-2.6c.07-.144.534.325.82.506.286.18.25.253 1 .433s4.86-.036 5.502-.144c.643-.11.393-5.31.18-5.636-.215-.325-1.573-.83-2.145-.975-.572-.145-4.966.07-5.18.07s-.107-2.346-.214-2.635-1.93-.867-3.68-.903-4.716.47-5.037.795c-.322.325-.107 9.715-.143 9.823-.036.11-.322.11-3.287.254s-5.54.464-6.073.83c-.786.543-.75 2.204-.715 4.118S-.055 39.724.016 40.59c.07.867 1.286 3.973 1.858 4.55.572.578 2.644.397 5.645.578 3 .18 8.11.29 8.68.325.573.036 1.644-.47 1.86-.83.213-.362.25-7.91.25-7.91s.43 6.61.463 7.042.715.795 1.036.94c.32.143 2.285-.29 3.036-.326.75-.038 3.68.25 3.894.287.215.036.465-.253.43-1.083s-.107-19.14-.107-20.404-1.644-2.057-2.037-2.13zm-4.538-6.717c.132-.266 2.787-.18 3.108-.036.322.144.464 2.456.143 2.636-.324.18-2.86.578-3.325.29-.464-.29 0-2.745.073-2.89zm-4.18 11.52c.036 2.168-.18 3.9-.357 3.865s-1.39-2.78-1.82-2.6c-.43.18-.857.975-.715 1.12.143.144 2.286 3.178 2.286 3.61s0 1.698-.18 1.59c-.177-.108-1.64-4.08-2.177-3.936s-.5 1.047-.464 1.445c.035.397 2.607 4.406 2.607 4.73s.25 1.95-.036 1.77-2.035-3.935-2.25-3.827c-.214.108-.93.686-.607 1.264.322.578 2.43 4.298 2.537 4.803.106.506.213 2.13-.18 2.095-.393-.036-3-5.887-3.323-5.85-.322.036-.965.397-.75.722.214.325 3.037 4.984 2.822 5.02s-1.43.036-1.68-.108-2.323-4.117-2.61-4.08-.82.432-.642.757 2 3.25 1.785 3.25c-.214 0-.68.108-.893-.036-.214-.144-2.144-3.503-2.572-3.503-.43 0-.857.29-.75.614.107.325 2.036 2.89 1.894 2.89-.143 0-1.643.143-2-.037-.358-.18-1.644-3.32-2.002-3.393-.357-.072-1.072.36-1 .614.07.254 1.358 2.78 1.18 2.78-.18 0-1.644-.07-2.252-.36s-.643-2.094-.607-4.84c.037-2.743.07-13.47.5-14.19.26-.44 3-.36 4.788-.434 1.786-.072 4.537.144 4.787-.506s.286-7.224.25-8.018c-.036-.795.107-1.914.25-2.022.143-.108 4.073-.325 4.287-.036s-.14 12.673-.106 14.84h.002zm8.753 9.138c-.14-.07-1.32-2.2-1.677-2.093-.357.108-.786.758-.572 1.01.215.254 1.93 2.998 1.93 3.287s-.07 2.022-.107 1.77c-.036-.253-1.286-2.6-1.643-2.636s-.716 1.01-.465 1.264c.25.254 2.144 3.07 1.93 3.25-.215.182-.894.29-1.25.073-.358-.217-1.68-2.78-1.86-2.853-.178-.072-.964.325-.75.65.215.325 1.573 2.275 1.25 2.275s-1.57.18-1.678-.108c-.107-.29-.357-10.763-.43-13.038s-.213-4.66-.106-5.237c.035-.177 1.645-.18 2.967-.18s1.93.143 1.965.252c.037.11.644 12.388.5 12.316v-.002zM6.128 27.736c-.857.36-.607 6.645-.536 7.367.07.723.358 1.446.823 1.554.464.108 4-.614 4.287-.867s.07-8.27-.144-8.307c-.214-.035-3.986.067-4.43.254v-.002zm3.287 7.006c-.18.073-.5.29-.75 0s-.07-4.585-.107-4.874c-.038-.306.822-.072.893.108.07.18.142 4.695-.037 4.767zM6.626 23.546c-.18-.253-3.465.072-3.858.072s-.43 3.36-.393 4.045c.036.686.537.987.965 1.01.643.037.536-3.033.5-3.394-.036-.36 2.108-.578 2.644-.722s.32-.76.142-1.01zm14.648 2.383c0 .29-.536 5.634-.464 6.03s.393.615.822.58c.43-.037.965-.434 1.072-1.193.107-.758.322-5.056.036-5.453-.287-.397-1.466-.376-1.466.036zm42.157 13.58c-.105-5.13.466-13.87.36-14.7-.108-.83-1.61-2.13-2.43-2.744s-2.787-.795-6.038-.94c-3.25-.143-8.11-.107-8.823 0-.716.11-1.43 1.95-1.43 1.95 0-.252-.357-.938-.857-1.19-.5-.254-2.285-.254-3.893-.218s-5.895-.108-7.43-.144c-1.537-.036-3.462.838-3.895 1.59-.25.432-.25 3.07-.214 5.236s.323 11.123.394 13.868c.007.212.017.39.027.58.173.387.42.837.69.973.5.25 5.11.142 6.25.106s1.93-.29 2.038.036.357 1.553-.143 1.625-6.823.325-7.644.325c-.33 0-.602.022-.83.038-.064.063-.15.132-.277.18-.286.107-.214 4.694-.18 5.055s1 3.43 1.323 3.61c.323.182 2.43.182 5.11.11S44.93 55 45.324 55s.643-.433.643-.94c0-.505-.25-10.11-.285-10.472-.036-.36.322-1.228.322-1.228s.607.867.893 1.192.393.18 1.358.325c.965.144 7.038-.253 7.288-.144.25.108.18 1.625-.07 2.022s-6.575.253-7.253.253-1.786 1.372-1.643 1.842c.143.47.715 4.695.857 5.056.143.36 1.215.397 4 .542 2.788.144 8.647.253 10.112.325 1.464.072 2.25-.65 2.428-1.806s-.43-7.332-.537-12.46h-.006zm-20.076 12.53l-.43-.107s-1.893-4.657-2.25-4.73-.93.47-.822.615c.108.144 2.073 4.26 1.86 4.298-.215.036-1.11-.072-1.11-.072s-1.964-3.863-2.32-3.9c-.358-.035-1.18.47-.93.904s1.43 2.672 1.25 2.745c-.18.07-1.286.107-1.5-.18s-1.144-2.566-1.644-2.674-.965.253-.822.433 1.358 2.31.965 2.31-1.572.18-1.68-.108c-.106-.288-.785-2.094-1.107-2.202-.322-.108-1.072-.325-1.18.144-.106.47 1.144 2.13.858 2.167-.285.036-1.607.18-1.642-.072-.036-.253-.18-4.26.036-4.298.214-.037 7.252-.073 7.68-.182.43-.108 1-.578 1-2.384s.144-2.636-.25-2.672-3.822.325-5.394.325c-1.573 0-2.68.397-3.038-.072-.357-.47-.357-3.07-.536-9.642-.18-6.573-.286-8.703 0-9.137.27-.41 1.536-.758 3.144-.686 1.608.072 8.146.29 8.896.36.75.073 1.143.254 1.358.723s.18 13.543.214 15.276c.036 1.73-.07 2.887-.07 2.887s-.93-1.48-1-1.372-.43.65-.358.83c.07.182 1.322 2.42 1.322 2.42l.107 3.865s-1.788-3.466-2.038-3.32c-.25.143-.572.938-.464 1.19.106.254 2.75 5.67 2.75 5.67s-.428.757-.857.65l.004-.002zm14.577-1.913c-.356.036-1.75.253-1.964.036-.214-.215-1.43-2.49-1.786-2.526-.358-.036-.966.18-.858.397.107.218 1.215 2.168 1.072 2.168s-1.286.108-1.393-.036c-.105-.143-1.213-2.42-1.534-2.42s-1.215.47-1.036.615c.178.144 1.428 1.986 1.285 2.022s-2.715.143-3.037.035c-.455-.153-.607-.758-.643-1.228-.036-.47-.07-1.878.107-1.878.18 0 8.074-.398 8.36-.145.284.253 1.785 2.925 1.428 2.962v-.002zm2.75-1.842c-.212-.072-1.39-2.817-1.534-2.745-.143.072-.893.795-.786 1.01s1.928 3.612 1.785 3.612-.75.144-.822.036c-.07-.108-2.036-3.43-2.036-3.43s.107-3.396.036-3.576c-.07-.18-.43-1.01-.786-1.01s-7.61.288-8.146.18-.963-.253-1.07-.94c-.107-.685-.393-6.644-.5-11.014s-.286-7.114-.07-7.512c.17-.314 3.107-.433 4.61-.433 1.5 0 7.536.616 8.322.65.787.038.75.146.75.905s.25 14.843.25 14.843-.606-1.66-.964-1.553c-.357.108-.857.506-.786.686.07.18 1.68 3.18 1.68 3.504s.106 2.167.106 2.167-1.215-2.6-1.5-2.6-.858.796-.75 1.084c.106.29 2.285 3.9 2.285 4.08.002.182.145 2.132-.07 2.06h-.002zM34.21 29.215c-.25.65-.393 8.667-.07 8.992s4.393.397 4.965.29c.572-.11.18-8.92-.25-9.39s-4.462-.37-4.645.108zm3.68 7.945c-.18 0-.43.217-.68-.072-.25-.29-.428-6.212-.428-6.212.178-.072.606-.253.82-.036.216.216.466 6.32.287 6.32zm13.433-7.8c-.213.685.037 8.233.537 8.594.5.36 4.823-.036 5.073-.18.25-.145-.358-8.018-.716-8.416s-4.83-.2-4.894 0v.002zm4.038 7.258c-.214 0-.93.397-1.108.036-.18-.36-.037-4.912.106-5.38.09-.296.75-.073.857.143.11.217.36 5.2.144 5.2zM52.285 26c.5.072.715-.506.464-1.12-.25-.614-.717-.578-2.18-.614-1.466-.036-2.395.65-2.5 1.047-.11.397-.026 7.154.14 7.295.215.18.823.108 1.144.108s.07-6.464.143-6.717c.072-.253 2.287-.073 2.788 0zm-17.328-.108c.322-.036.464-.83.18-1.047-.287-.217-3.752-.325-4.002-.072s-.24 8.636.07 8.812c.323.18 1.037.18 1.18.036.143-.142.036-7.365.036-7.582s2.217-.11 2.537-.146z"/></svg>