<svg xmlns="http://www.w3.org/2000/svg" width="64" height="64" viewBox="0 0 64 64"><path d="M63.186 24.408c-1.1-7.744-5.68-12.876-8.014-14.984S47.616 2.642 40.288.947s-14.933-.925-19.464.825c-5.22 2.016-8.976 5.59-11.54 7.927C6.718 12.034.764 19.916.306 24.73c-.457 4.81-.732 11.684 1.65 17.732 2.38 6.05 5.45 8.66 8.976 11.593 3.526 2.933 9.16 8.66 16.578 9.623 7.418.963 15.16-.23 20.884-3.62s8.426-5.82 12.456-14.847c4.03-9.025 3.435-13.057 2.336-20.8v-.002zm-6.835 3.208c.174.31 3.815 4.502 4.124 4.708.31.206.584.137.653.344s-.07 2.096-.447 2.062-3.47-3.918-3.985-4.227c-.515-.31-.962.584-.79.79.172.206 4.396 4.468 4.43 4.708s-.136 1.823-.41 1.72c-.276-.103-4.054-4.124-4.397-3.883-.343.24-.584.962-.48 1.065.102.104 4.292 3.575 4.292 3.92 0 .343-.55 2.302-.79 2.198-.24-.103-3.916-4.57-4.293-4.57s-.893.755-.584 1.03c.31.275 4.396 4.227 4.26 4.536-.138.31-.276 1.03-.516.825s-3.847-3.952-4.122-3.92-.962.69-.756.93c.204.24 4.29 3.677 4.223 3.95s-.756 1.686-1.03 1.617c-.275-.07-3.332-4.09-3.64-4.09s-1.066.997-.928 1.1c.137.103 3.778 3.746 3.813 3.987s-.79 1.58-.963 1.478c-.172-.102-3.263-4.123-3.606-4.02-.343.103-.927.516-.72.86.205.343 3.71 3.917 3.674 4.09-.034.17-.79 1.614-1.065 1.442s-3.78-4.57-4.33-4.468c-.55.103-.79.344-.686.653s4.122 4.157 4.053 4.5c-.07.344-.412 1.03-.824.997-.412-.034-3.538-4.055-3.916-4.055s-1.1.585-1.03.757 3.984 3.882 3.916 4.054c-.07.172-.55.86-.72.79-.173-.07-4.432-4.64-4.672-4.64s-.96 1.134-.823 1.272c.137.137 4.19 3.952 4.122 4.193-.07.24-1.066.79-1.237.686-.172-.103-3.606-4.227-3.95-4.055-.343.17-.687.72-.618.86.07.136 3.4 3.573 3.263 3.745-.138.172-.825.516-1.1.447s-3.71-3.676-3.984-3.573c-.275.102-.962.996-.86 1.1.104.102 3.47 2.92 3.367 3.092-.102.172-.342.48-.72.344-.38-.137-3.297-3.437-3.744-3.334s-.72.825-.618 1.03c.103.207 2.92 2.647 2.782 2.716-.137.07-1.374.756-1.923.48-.55-.274-2.714-2.61-3.127-2.508-.412.103-.962.653-.79.86.172.205 2.233 1.786 1.923 1.89-.31.102-.72.343-1.065.102s-2.747-2.268-3.022-2.234-1.03.412-.893.653c.137.24 1.958 1.51 1.614 1.65-.344.137-6.183.24-11.37-1.72-5.186-1.957-9.96-5.016-13.224-7.97-3.263-2.957-5.22-6.978-5.942-9.967s-1.064-7.767-.686-11.547 2.333-7.938 4.497-11.34 7.66-8.282 9.584-9.692 4.366-2.614 6.22-3.404c3.328-1.417 7.42-1.477 11.403-1.442 3.984.034 8.896 1.272 12.777 3.23s5.77 3.678 6.045 4.125c.273.447 0 1.856.34 2.165s3.848 2.784 4.397 3.265c.55.48 1.27 1.443 1.58 2.268.31.827.584 1.24.31 1.1-.276-.135-4.466-4.534-4.878-4.33-.413.208-.757.55-.413.896.343.344 4.568 4.365 4.877 4.536s.653-.205.653-.205 1.443 3.23 1.992 6.392c.55 3.16.377 3.61.31 3.504s-3.54-4.055-4.055-3.952c-.515.103-.687.722-.31 1.1s3.814 3.643 4.088 3.883c.275.24.378.55.378.79s-.033 1.547-.17 1.272-3.917-4.708-4.294-4.605-.618.686-.446.996v-.002zm-47.363-1.03c.48.446 1.202.308 4.26.343 3.056.032 7.487-1 12.124-2.44 4.638-1.445 5.497-2.614 5.53-3.473.035-.86-1.785-3.505-3.64-5.808s-5.873-4.675-6.492-4.81c-.618-.14-2.713.582-3.675 1.682s-4.706 5.98-6.39 9.623-1.806 4.794-1.716 4.88zm9.068-9.28c1.786-2.235 3.71-4.16 4.362-4.16.653 0 4.774 4.228 5.84 5.912s.858 1.753.686 2.062c-.172.31-4.43 2.887-9.342 3.677s-5.907.894-6.422.447c-.152-.13 3.09-5.705 4.877-7.94v.002zm10.613-8.25c.618.138 2.026.86 3.778 3.025s3.95 7.357 4.328 7.63 1.546-.55 4.465-2.747c2.92-2.2 4.12-4.433 4.5-5.43.376-.997.307-.825-1.96-2.784-2.267-1.96-5.736-2.82-9.65-2.647-3.918.172-6.284 1.448-6.425 1.684-.205.343.345 1.134.963 1.27zm12.194.62c2.44.86 3.298 1.478 3.333 1.89.034.412-2.576 2.956-3.64 4.124s-1.306 1.375-1.718 1.168c-.412-.206-1.58-5.602-4.74-7.94-.217-.158 4.327-.1 6.766.758zm10.34 6.46c-.62-1.202-1.993-1.133-2.508-.96-.515.17-2.13 2.37-3.538 3.745-1.408 1.377-5.324 3.714-5.736 3.92-.412.206-2.198.928-2.198 1.065 0 .344 1.236.997 2.37 2.578 1.133 1.58 1.374 4.502 1.752 4.743.378.24 2.748-.687 4.534-1.065s6.457-.136 6.8-.136 1.34.034 1.684-.825.515-2.99.034-5.91c-.482-2.925-2.577-5.95-3.195-7.15l.002-.004zm2.025 12.133c-.24.135-6.045-.31-7.694.17s-3.056 1.17-3.228.962c-.172-.206.275-1.856-1.236-4.158-.175-.265 4.36-2.578 6.25-4.95 1.89-2.37 2.3-2.955 2.61-2.92.31.034 2.61 3.918 2.954 6.358s.586 4.398.345 4.536h-.003zm-19.543 6.527c1.168-.31 1.786 0 2.026-1.375s-.412-2.234-1.236-4.365c-.824-2.13-1.34-2.68-2.026-2.715-.687-.034-1.408.378-2.713 1.168-1.305.79-3.984 1.788-7.11 2.922-3.126 1.134-9.068 1.82-10.75 1.856-1.684.034-4.415-.215-4.535.103-.515 1.377.48 4.4 2.336 8.766s4.67 5.018 5.015 5.12c.343.104 1.03-.377 1.51-.927s2.268-2.785 6.973-6.118 9.342-4.122 10.51-4.432v-.003zM15.137 43.8c-.447-.102-2.576-2.886-2.026-6.632.043-.294 7.04-1.444 10.064-3.06 3.023-1.615 8.896-5.224 9.136-5.36s2.506 3.848 2.025 4.398c-.48.55-5.564.928-11.094 4.468s-7.66 6.29-8.104 6.186zm34.828-10.446c-1.923.206-6.77 1.314-7.04 1.753-.448.722.514 3.918.96 7.148.448 3.23.825 3.437 1.306 3.677s1.683-.31 4.225-3.643c2.542-3.335 3.435-6.53 3.332-7.7-.104-1.167-.86-1.442-2.783-1.236zm-2.37 9.21c-.48-.137-1.683-5.464-1.614-5.877.07-.434 4.74-1.168 5.05-.962s-2.956 6.977-3.435 6.84zM37.15 37.34c-.55-.24-2.197.448-3.743 1.41-1.546.962-8.587 6.942-10.373 9.83-1.786 2.886-1.267 4.43-1.03 4.604.893.653 4.362 1.375 8.21.825 3.846-.55 8.62-2.34 9.204-2.958s.378-2.2-.07-6.186c-.445-3.986-1.647-7.285-2.198-7.526zm1.134 12.064c-.72 1.237-8.862 4.227-12.16 2.852-.336-.14 1.03-3.265 3.47-5.98s7.076-6.29 7.282-6.186 2.13 8.077 1.408 9.314zm-33.35-21.48c-.654.207-1.375 2.338-1.34 6.668.033 4.33.84 5.664 1.167 5.774.723.24.964-.516.79-1.237s-.34-2.476-.34-4.745c0-2.268.583-5.12.79-5.533.205-.413-.413-1.134-1.066-.928zm7.693-15.567c.275-.584.103-.894-.343-.894s-3.95 4.64-5.05 6.564-2.203 4.557-1.888 4.743c.584.344.756.412 1.202.275.447-.137 1.202-2.92 2.026-4.708s3.778-5.396 4.053-5.98zM28.22 24.832c.173.55.516.584.894.516.378-.07 4.122-2.028 4.843-2.543s.72-.997.343-1.03c-.378-.036-6.216 2.62-6.08 3.057zM46.7 13.388c.687-.412 2.336-3.162 2.542-3.952s-.475-1.242-1.065-1.134c-.378.07-.412.997-.653 1.993s-1.133 2.096-1.477 2.44c-.344.343-.034 1.065.653.653zm12.777 8.076c.275-.378-.653-1.65-1.58-2.37-.927-.723-2.563-2.293-2.748-2.2-.758.378-.483 1.237.1 1.512s3.298 2.887 3.54 3.127.41.31.687-.07zm-.138 3.196c.79.48.925.447.994-.103.07-.55-3.825-4.377-4.087-4.296-.447.14-.72.518-.515.93s2.816 2.99 3.607 3.47z"/></svg>