<svg xmlns="http://www.w3.org/2000/svg" width="64" height="64" viewBox="0 0 64 64"><path d="M63.62 29.354c-.8-1.135-9.546-8.49-9.546-8.49s7.58-6.223 8.272-7.394c.692-1.17.547-2.342-.91-3.623S45.18-.18 44.343.003 31.99 8.2 31.99 8.2 19.75.92 19.166.88C18.58.846 8.526 6.7 5.208 8.787S.434 11.604.434 12.227s11.37 9.37 11.37 9.37C9.144 24.12 1.674 30.12.58 31.182-.513 32.243.07 34 1.236 35.21s5.867 5.086 9.584 7.54c3.717 2.45 8.745 4.426 9.802 4.39 1.057-.037 11.478-11.71 11.843-11.82s11.26 9.112 12.717 9.624c1.458.512 2.077.293 6.632-2.086 4.555-2.38 10.677-6.48 11.333-7.394.656-.915 1.275-4.978.474-6.112v.002zM44.564 2.71c.22.038 14.14 8.126 14.14 8.455 0 .33-8.82 7.868-9.257 7.795-.437-.073-15.888-8.527-15.96-8.747-.042-.125 10.858-7.54 11.077-7.503zM4.516 12.044C4.47 11.886 18.472 3.59 18.8 3.626c.328.037 12.244 6.624 12.207 7.1-.036.476-14.904 9.442-15.67 9.48-.764.035-10.64-7.54-10.82-8.163zm13.847 31.913c-.364 0-5.794-2.598-10.167-6.002s-5.357-5.087-4.956-5.82c.4-.73 10.422-8.93 10.895-9.002 0 0 13.555 7.173 14.576 7.722s1.678 1.903 1.605 2.123c-.072.22-11.587 10.98-11.95 10.98h-.002zm12.754-14.163c-.364-.073-11.734-6.844-11.88-7.063 0 0 15.014-9.075 15.306-9.075s13.082 6.844 12.462 7.1c-.62.256-15.524 9.112-15.888 9.04zm30.39 1.793c-.146.586-1.348 1.464-1.348 1.464s-1.788-2.122-2.006-2.122c-.22 0-1.02.77-.838.915.182.146 1.895 1.793 1.676 2.013-.22.22-1.458.805-1.458.805s-2.55-2.597-2.697-2.597c-.146 0-.984.622-.875.732.11.11 2.988 2.49 2.733 2.562-.255.073-1.348.915-1.53.805s-2.478-2.67-2.77-2.67-.874.475-.8.694c.072.22 2.732 2.415 2.513 2.635-.22.22-1.53.805-1.53.805s-2.77-3.257-2.953-3.257-1.057.732-.802.988 2.952 3.038 2.842 3.147c-.11.11-1.24.66-1.24.66s-2.914-3.148-3.133-3.185c-.22-.037-1.203.695-.947.878s3.39 2.964 3.243 3.074c-.146.11-1.312.73-1.312.73s-3.498-3.952-3.79-3.952-.838.842-.838.842 3.68 3.55 3.498 3.77-.583.33-.583.33-11.005-8.492-12.68-9.773c-.25-.19-.948-.66-.73-.952.22-.293 16.944-9.698 17.455-9.59.51.11 9.073 7.064 10.094 8.09 1.022 1.027.95 1.576.803 2.16l.002.002zM16.067 7.25c-.255 0-5.575 3.146-5.72 3.33-.147.182.473.95.837 1.06s5.54-3.294 5.648-3.513c.11-.22-.51-.878-.765-.878zm-3.972 21.3c-.437-.147-4.482 3.51-4.482 3.695 0 .256.802.915 1.02.915.22 0 4.118-3.587 4.263-3.77.147-.182-.363-.695-.8-.84zm37.97 17.346c-.802 0-4.774 2.05-5.102 2.013s-10.093-9.26-10.968-9.15-14.357 11.27-14.43 11.38-3.79-2.345-4.263-2.27c-1.822.294-1.676 3.954-.875 4.72.802.77 15.487 12.006 17.782 11.384s18.91-11.71 19.056-12.15c.146-.44.11-5.526.11-5.526s-.51-.404-1.312-.404v.002zM43.47 51.86s-2.113-2.268-2.296-2.268-.73.44-.583.622c.148.183 2.15 1.903 2.006 2.232-.146.33-.765.988-.91.842-.147-.146-3.864-4.21-4.228-4.21s-.947.44-.838.55c.108.11 4.262 4.172 4.117 4.392-.146.22-1.275.842-1.385.77-.11-.074-4.81-4.942-4.956-4.942s-.875.476-.583.732c.292.256 4.883 4.904 4.664 5.014S36.8 56.62 36.8 56.62s-4.19-4.502-4.372-4.54-.984.806-.765.916c.22.11 4.664 3.953 4.373 4.282-.292.33-1.385 1.098-1.494 1.025-.11-.073-4.846-5.05-4.992-5.087s-.73.732-.692.842c.036.11 4.774 4.465 4.555 4.72-.22.257-.474.294-.474.294s-10.023-5.124-11.954-6.917c-.305-.283 12.79-10.87 13.082-10.796.29.07 10.53 8.964 10.53 9.294s-1.13 1.206-1.13 1.206h.002z"/></svg>