<svg xmlns="http://www.w3.org/2000/svg" width="64" height="64" viewBox="0 0 64 64"><path d="M57.318 39.574c-1.38-.46-3.623-.632-5.808 2.184-2.185 2.816-1.668 8.506-1.84 9.425-.173.92-4.37.46-10.467-.345-6.096-.805-11.272-.517-12.192-.805-.92-.287-.4-10.574-.286-11.092.115-.515 3.278-.69 5.52-.63 2.244.058 1.84 1.034 2.3 1.437.46.402 3.164 2.643 5.12 2.47 1.954-.17 2.53-1.838 2.644-3.964.115-2.126.115-9.942.23-12.93.115-2.99-.23-4.77-1.553-5.23s-3.68-.69-5.06.4c-1.38 1.093-1.036 4.14-1.036 5s-.46 1.898-2.13 2.07c-1.667.172-6.095-.172-6.96-.632-.86-.46-.803-11.61-.516-12.01.288-.402 22.2-1.034 22.37-.92.174.115.06 1.897.52 4.138.46 2.24 2.53 4.77 4.312 5.23 1.783.46 4.543-.805 5.52-3.276.98-2.47.806-13.39.404-17.182C58.005-.885 53.98.034 52.83.264c-1.15.23-2.76 1.15-4.485 1.724-1.725.575-4.83 1.092-13.515 1.494-8.684.402-18.345-.517-22.544-1.035-4.196-.516-6.67.52-7.07.98-.404.46.69 10.918 1.092 11.55.403.632 6.556.862 6.73.862 0 0 .574 7.757 1.034 19.31.46 11.55-.748 13.56-1.668 14.77-.92 1.205-4.83 1.262-6.27 1.664-1.437.402-1.207 4.368-.92 5.977.29 1.61.98 3.85 4.2 5.518 3.22 1.666 4.945.746 17.54-.23 12.594-.978 20.185.574 22.313.63 2.128.06 3.508.518 5.808-1.034s2.013-2.414 2.185-7.356c.173-4.942 2.128-9.77 2.645-11.61.52-1.837-1.207-3.446-2.587-3.906v.002zm-1.323 6.782c-.288 1.494-1.15 7.988-1.15 7.988s-.805-.747-1.208-.46c-.403.287-.978.747-.748 1.034s1.09 1.38 1.206 1.84-.058 2.413-.23 2.24c-.173-.172-1.725-2.76-2.013-2.76-.288 0-1.323.288-1.15.633.173.347 2.645 3.163 1.955 3.393s-2.13-.172-2.13-.172-2.07-3.275-2.357-3.39c-.287-.115-1.15.23-1.092.46.057.23 2.185 2.874 1.84 2.874s-2.53-.115-2.76-.46c-.23-.345-1.84-2.816-2.185-2.874s-1.265.114-1.208.46c.057.344 1.955 2.47 1.553 2.47-.403 0-2.358.058-2.588-.172s-1.265-3.333-1.898-3.39c-.633-.06-1.093.46-1.093.46s1.783 2.93 1.265 2.93-1.725-.115-1.725-.115-1.84-3.333-2.184-3.39-1.323.23-1.265.46 1.957 3.045 1.727 3.045-2.3-.115-2.473-.23c-.173-.115-1.783-3.276-2.185-3.334-.404-.057-1.094.058-1.094.517 0 .46 1.495 3.048 1.323 3.048-.174 0-2.186-.287-2.186-.287s-1.208-2.93-1.438-3.045c-.23-.115-1.38.115-1.323.345.058.23 1.61 2.643 1.208 2.643-.402 0-1.897-.058-1.897-.058s-2.358-4.31-2.588-4.31-1.265.172-1.265.517c0 .345 1.897 3.333 1.667 3.62s-1.955.115-1.955.115-1.955-3.678-2.358-3.85c-.403-.172-1.495.69-1.495.69s3.16 3.505 2.586 3.505h-2.703s-1.265-3.333-2.128-3.333c-.863 0-1.093.63-.92.803.173.172 1.898 2.3 1.38 2.528-.518.23-1.668.288-1.84.116s-1.553-2.586-1.84-2.7c-.287-.116-1.208.17-1.208.344 0 .174 1.38 2.645 1.208 2.76-.173.115-3.278.287-3.91-.057-.634-.345-1.956-5.977-1.38-6.15.574-.17 4.312.173 6.612-2.47 2.3-2.644 2.473-6.954 2.185-15.345-.288-8.39-.518-18.448-1.15-21.78-.633-3.334-1.38-3.62-1.84-3.794-.46-.173-4.37-.402-4.543-.747-.22-.436-1.553-4.367-.978-4.655.575-.287 5.118.402 14.837.862s18.747.517 23.635-.632c4.888-1.15 7.19-2.586 8.34-2.357 1.15.23 1.437 1.38 1.494 1.897.057.517-.23 4.77-.23 4.77s-3.45-2.586-3.624-2.53c-.173.058-.748 1.438-.345 1.782.404.345 3.567 2.356 3.68 2.7.117.346.175 2.185 0 2.185-.17 0-3.104-2.76-3.39-2.646-.29.115-.46 1.494-.116 1.724.345.23 3.566 2.758 3.623 3.045.058.287-.173 1.264-.173 1.264s-2.07-2.185-2.53-2.012c-.46.173-.863.805-.575 1.035s2.242 1.84 2.07 2.01c-.174.173-1.9.69-2.53.346-.634-.346-.69-6.495-2.07-7.874-1.38-1.38-7.995-.862-15.24-.69s-9.2-.173-11.388 1.264-2.07 15 .058 17.01 6.27 2.185 9.26 2.185 4.198-1.78 4.6-3.102c.404-1.322-.114-4.483.92-4.828 1.036-.345 1.554.115 1.554.115s.288 14.71-.23 15.114c-.518.4-1.15-3.39-3.796-3.794-2.646-.4-9.202-.804-10.812.116-1.61.92-.92 5.517-.92 9.827s-.748 7.47.633 8.217c1.38.748 5.06.403 11.672.978 6.614.575 13.227 1.954 14.665 1.207 1.438-.747 1.15-3.103 1.15-3.736s.287-5.518 1.61-6.955c1.323-1.436 2.53-1.723 3.048-1.32.517.404-.633 2.82-.92 4.312v.004zM11.023 6.242c-.46.287-.575 1.61 0 1.84.575.23 4.83.918 5.233.86.403-.056.288-1.55.058-1.953-.23-.405-4.994-.935-5.29-.75v.002z"/></svg>