<svg xmlns="http://www.w3.org/2000/svg" width="64" height="64" viewBox="0 0 64 64"><path d="M17.204 12.513c.792-.58.053-8.162 0-9.847s-.792-2.16-2.64-1.79-5.175 5.634-6.39 7.53-1.532 3.024-.74 3.844c1.427 1.474 8.978.842 9.77.263zm-3.115-7.9c.473.106.632 4.793.21 5.056-.424.26-4.014.42-4.226 0-.254-.51 3.538-5.16 4.015-5.057zM57.283 18.57c-.845-5.688-.95-6.32-4.647-10.48S38.063 4.14 38.063 4.14s.158-1.58-1.32-3.002C35.263-.284 28.927-.072 24.81.19c-4.12.263-6.18 2.212-6.443 2.95-.264.736 0 10.583 0 10.9s-10.2-.15-10.456.315C6.75 16.46 9.39 32.68 10.025 35.26s.686 2.95 4.522 4.95c4.57 2.383 12.746 2.633 17.34 1.948s5.44-3.897 5.44-3.897c1.794 3.16 9.03 2.056 9.03 2.056s.263.316-.16 3.528c-.42 3.212-1.53 6.582-1.742 6.898-.21.317-1.637-.104-2.165-.315-.53-.21-.37-1.158 0-1.58.37-.42 1.002-.37 1.372-.474.37-.104 1.216-1.368.74-3.053-.475-1.685-1.215-3.16-2.8-3.212-1.583-.053-8.976 1.422-9.874 3.16-.898 1.738 1.003 15.85 2.27 17.325 1.268 1.475 8.767 1.475 10.774 1.37 2.007-.106 4.436-.264 6.548-3.476 2.112-3.212 4.91-6.74 5.967-16.22 1.056-9.477.845-20.008 0-25.695l-.003-.002zm-2.27 14.27c.052.368-.054 2.527-.212 2.42-.158-.104-2.693-2.895-2.904-2.895-.212 0-.635 1.106-.582 1.264.053.156 3.538 3.263 3.538 3.684 0 .42-.317 1.527-.37 1.37s-2.007-2.318-2.165-2.318c-.158 0-.687.632-.528 1.16.158.526 2.535 3.106 2.535 3.106s-1.53 8.268-3.59 12.27-2.483 4.265-2.483 4.265-1.426-2.528-1.637-2.528c-.21 0-.898.58-.845.79s1.954 2.685 1.848 3c-.105.317-.685.896-.844.738-.158-.16-1.795-3.055-2.165-3.108-.37-.053-.843.263-.737.58.106.315 1.848 2.737 1.69 2.895s-1.003 0-1.003 0-1.902-2.738-2.272-2.896c-.37-.158-.845-.263-.898.105-.053.37 2.323 3.002 1.9 3.107-.422.105-6.917-.842-7.392-1.264s-2.112-11.902-1.584-12.586c.528-.685 6.918-2.054 7.235-1.58.315.474.473 1.79.473 1.79s-2.8 1.316-2.957 1.948c-.158.632.158 3.054.845 3.633s5.863 2.264 6.443 1.738c.58-.526 1.848-5.74 2.218-9.74.37-4 0-6.266-.316-6.32s-5.334.896-7.023-1.263c-1.69-2.16-2.956-5.898-3.326-6.16-.37-.264-1.584.262-1.584.262s-2.164-4.477-2.64-4.58c-.474-.107-1.108.367-.79.79.316.42 2.64 4.37 2.64 4.37s.316 1.79 0 2.685c-.318.895-.688 1.053-.688 1.053s-3.116-6.11-3.59-6.162c-.476-.053-1.057.37-.9.58.16.21 3.856 6.634 3.75 6.845-.106.21-1.215 1-1.584.896-.37-.105-3.908-6.898-4.172-6.898s-.898.685-.898.685 4.225 6.32 4.013 6.477c-.21.158-2.427.316-2.427.316s-3.38-5.582-3.538-5.635c-.158-.052-1.056.264-.898.633.158.37 3.274 5.213 3.274 5.213h-2.903s-2.482-4.897-2.746-5.055-1.055.054-.95.21c.106.16 2.693 5.005 2.43 4.95-.265-.05-1.796-.26-1.796-.26s-2.376-4.634-2.535-4.687c-.16-.053-.9-.158-.95.105-.055.262 2.374 4.475 2.216 4.475s-4.964-.685-6.812-2.896c-1.848-2.213-2.007-5.583-2.588-9.427-.58-3.844-1.584-8.53-1.215-9.005.268-.343 10.087.42 10.246-.21.16-.63.055-11.585.69-12.375.633-.79 4.91-1.37 8.5-1.16 3.59.212 5.28.58 5.545 1.318.265.738.265 2.634 1.268 2.845 1.003.21 5.334-.895 11.09 1.632s6.918 5.898 7.182 10.795c.263 4.897.37 8.69.37 8.69s-1.955-2.476-2.272-2.476c-.317 0-.634 1.053-.317 1.422.32.37 2.64 3.16 2.748 3.37.106.21-.053 1.21-.053 1.21s-2.27-2.685-2.64-2.685-.422 1.58-.422 1.58 3.01 2.528 3.062 2.897v.003zM23.118 5.666c-.212.263-.107 5.003-.107 5.003s.9.315 1.11.262c.21-.053.053-4.897 0-5.108-.053-.21-.84-.363-1.002-.158zm22.97 13.797c-4.013.053-3.538 5.108-3.538 5.108.158.475.21.79 1.11.738.897-.054 5.28-.054 5.597-.317.315-.262.843-5.58-3.17-5.53v.003zm1.53 3.738c-.37.264-2.956.42-3.22.317-.155-.062-.158-2.422 1.215-2.422s2.376 1.843 2.005 2.106zM35.74 47.11c-.21.157.317 3.896.475 4.317.158.42.898.105 1.11-.105.21-.21-.37-4.16-.53-4.318-.158-.158-.707-.155-1.055.106z"/></svg>