<svg xmlns="http://www.w3.org/2000/svg" width="64" height="64" viewBox="0 0 64 64"><path d="M50.814 1.207C48.32-.543 42.92.085 33.164.22c-9.755.135-14.11.404-17.196.54S10.482 1.827 9.66 2.33c-1.905 1.167.863 17.998 1.362 24.417.5 6.418 1.044 18.043 1.407 23.205.36 5.162.95 10.817 1.405 11.804s1.77 2.2 3.902 2.244c2.132.045 4.083-1.66 6.352-5.206 2.27-3.546 8.257-13.42 9.12-13.824.86-.404 7.53-.045 9.572-.09 2.042-.045 4.946-.54 5.762-1.885.817-1.347 2.495-10.862 4.31-18.537s1.95-11.49 2.132-14.81c.182-3.324-1.678-6.69-4.172-8.44zm.635 10.054c-.32-.537-.41-1.973-1.09-1.75-.68.226-.77.675-.636 1.483.136.808 1.134 2.244 1.18 2.558.045.315-.09 2.2-.227 1.93-.136-.27-1.316-3.32-1.588-3.186-.273.135-.818.314-.59 1.167s1.632 3.816 1.632 4.31c0 .494-.227 1.885-.408 1.616-.182-.27-1.36-3.86-1.77-3.95-.407-.09-1.043.404-.86.987.18.583 2.494 5.027 2.494 5.027s-.364 3.096-.545 2.872c-.182-.224-1.95-5.072-2.223-5.072-.272 0-.726.943-.726.943s2.54 5.655 2.45 6.15c-.09.493-.363 2.064-.5 1.84-.135-.225-1.496-4.31-2.04-4.31s-1.135 1.032-.954 1.347c.182.314 2.495 4.847 2.586 5.296.09.45-.363 3.68-.5 3.546s-2.086-6.418-2.404-6.418-.817.224-.635 1.167c.18.945 2.54 6.96 2.54 7.63 0 .675-.318 2.605-.454 2.29-.136-.313-2.722-7.135-2.904-7.27-.18-.135-.908.853-.863 1.12.045.27 3.357 7.9 3.22 7.99-.135.09-1.18.36-1.315.18-.136-.18-2.087-6.462-2.405-6.642-.318-.18-.862.404-.77.853s2.177 5.88 1.995 5.88c-.18 0-.998.09-1.134-.09-.135-.18-2.04-6.193-2.54-6.193s-1.044.224-1.044.404 2.495 5.746 2.178 5.836c-.318.09-1.134.045-1.316-.09-.182-.135-1.815-5.745-2.178-5.835-.363-.09-1.134.315-1.09.72.046.403 2.088 5.116 1.907 5.16-.182.046-.862.046-.998-.09-.137-.134-1.77-5.34-1.952-5.385-.18-.045-.998.224-.998.673 0 .45 1.77 4.758 1.633 4.758-.136 0-1.18.224-1.407-.045-.227-.27-1.95-5.79-2.495-5.88-.543-.09-.725.45-.77.585-.045.135 2.087 5.386 2.087 5.386s-.817-.09-1.09.18c-.27.27-.226.405-.27.27-.046-.135-2.18-5.386-2.45-5.386s-.727.135-.818.583c-.092.45 2.268 5.162 2.268 5.386 0 .224-.77 1.257-.907 1.257-.135 0-1.95-4.848-2.358-4.848s-.998.224-.998.628 2.223 5.296 2.223 5.296l-.68 1.66s-1.907-4.577-2.27-4.667-.998.492-.953.85c.045.36 2.405 4.534 2.405 5.118 0 .583-.772 1.57-.908 1.435s-1.453-4.847-1.86-4.937-1.27.36-1.09.808c.182.45 2.087 5.117 2.087 5.43 0 .315-.227.72-.363.405-.136-.314-1.633-3.77-1.906-3.815-.27-.045-.997.54-.906.853.09.313 1.95 3.904 1.86 4.263-.09.36-.408 1.213-.726.944-.318-.27-.907-2.558-1.407-2.558s-1.044.584-.907.898c.136.314 1.407 3.41 1.27 3.59-.136.18-2.95 4.58-4.583 5.7-1.632 1.123-2.494.54-2.767.225-.272-.314-1.633-18.088-1.996-24.147-.363-6.06-1.633-24.55-1.86-26.795-.227-2.245-.77-5.297-.318-5.97.396-.59 3.492-1.213 5.67-1.437s18.92-.36 23.73-.493c4.81-.136 8.12.178 9.21.627s2.904 1.257 2.86 3.815c-.046 2.556-.455 5.877-.77 5.34zm-7.307-3.746c-1.044-.29-12.182-.202-16.674.068s-7.877.8-8.71 1.325c-1.93 1.212-1.477 5.296-1.386 7.81.09 2.513.613 13.33.75 16.517.135 3.187.77 13.06.93 13.15.158.09.93.113 1.2-.246.273-.36 4.084-6.912 5.15-8.797 1.067-1.885 2.52-3.142 2.905-3.187.385-.045 5.76-.314 8.257-.47 2.495-.158 3.335-.63 4.038-1.774.703-1.146 1.7-5.746 1.656-6.083-.044-.337-1.973-4.174-2.245-4.556s-1.066-.403-1.27-.09c-.204.315 1.248 2.874 1.36 3.076.114.202-1.043.112-1.156.067s-1.408-2.805-1.566-3.03c-.16-.224-1.134-.157-1.293-.022-.16.136 1.158 2.56 1.27 2.83.114.27-.84.313-1.133.223-.295-.09-1.18-3.052-1.36-3.187-.183-.135-.908-.157-1.045.157s1.112 2.603 1.202 2.873-.658.36-.975.247c-.32-.112-1.385-2.783-1.68-3.142-.295-.36-1.09-.246-1.248.046-.16.292 1.18 2.693 1.248 2.85.07.157-.725.247-.93.18-.203-.068-1.383-2.492-1.474-2.784-.09-.29-.976-.11-1.112.136-.136.247.93 2.154 1.044 2.38.113.223-.998.38-1.475.156-.476-.224-.817-.45-.658-1.324.16-.875.295-2.065.75-2.31.453-.248 1.247-.405 4.31-.45 3.062-.045 5.897.045 8.257-.36 2.36-.403 2.7-1.144 3.607-3.253.905-2.11 1.767-6.89 1.767-7.45 0-.562-1.27-1.28-2.314-1.572zM41.83 18.15c-.907.45-3.97.562-7.214.652s-6.034.157-7.078.516c-1.044.36-1.248 2.917-1.293 3.86s.454 1.773 1.27 2.85 1.36 1.57 1.68 1.638c.317.067 5.602.045 7.894.045 2.29 0 3.15-.02 3.265.137.113.157-.635 2.356-.885 3.142-.25.784-1.292 1.19-2.562 1.323-1.27.135-8.553.022-9.347.426-.792.403-2.924 3.14-3.56 4.016-.635.875-.93 1.93-1.18 1.93s-.363-1.84-.386-2.85-.16-9.987-.182-14.004c-.022-4.016-.226-7.158.387-8.168.173-.286.906-.36 3.447-.404 2.54-.045 14.18-.09 15.744-.09s2.27 0 2.246.494c-.022.494-1.338 4.04-2.245 4.49v-.004zM16.887 5.18c.374-.1.442-.47-.068-.943-.51-.47-2.486-.168-3.54 0S11.92 6.19 12.02 7.57s.476 3.97.75 4.14c.272.168.85.135 1.055-.135.204-.27-.272-5.42-.102-5.723s2.79-.57 3.164-.672zm28.006-2.29c-1.463 1.482 1.565 1.583 3.063 1.92 1.497.337 1.327 1.447 1.36 1.952s.51 1.044 1.056.91c.544-.136.578-2.56-.102-3.3s-5.11-1.75-5.377-1.48V2.89zM18.93 54.328c-.375-.202-1.43 1.48-1.668 1.246s-.647-7.372-.647-8.517c0-1.145-1.178-1.056-1.293-.842-.272.505-.034 3.838.068 5.857.102 2.02.136 5.69.783 5.892s1.906-.067 2.654-1.38.476-2.053.102-2.255v-.002z"/></svg>