<svg xmlns="http://www.w3.org/2000/svg" width="64" height="64" viewBox="0 0 64 64"><path d="M51.81 9.915C45.367 3.1 39.34-.113 31.92.003 12.188.313 5.23 15.336 5.026 23.133c-.206 7.795.773 16.158 6.286 23.592s18.653 7.59 18.86 7.64c.205.053.463 8.726.67 9.346.205.62 1.905.157 4.172-.566s4.792-1.704 11.54-7.228 9.74-16.056 10.924-23.077c1.186-7.02.773-16.11-5.668-22.925zm4.636 17.812s-4.998-6.867-5.358-6.763c-.36.103-.36 1.084-.36 1.084s5.512 6.763 5.564 7.228-.567 3.253-.567 3.253-4.74-6.817-4.946-6.817c-.208 0-.67.207-.57.878.104.67 5.1 6.816 5.1 7.23 0 .412-.67 2.425-.67 2.425l-4.996-6.712s-.824.826-.773.98c.053.156 5.36 6.868 5.36 7.126s-.72 2.322-.877 2.22c-.155-.104-4.69-7.384-4.998-7.384-.31 0-.72.774-.72.774s5.203 7.797 5.203 8.055-.928 2.22-1.03 2.065-4.74-7.9-5.05-7.847c-.31.05-.72.826-.567.98.156.156 4.896 7.797 4.896 8.003 0 .206-1.39 2.375-1.597 2.323-.206-.054-4.225-7.436-4.483-7.54-.258-.103-.773.62-.773.62l4.38 7.693-1.39 1.497s-4.02-7.278-4.432-7.33c-.412-.05-.618.516-.618.516l4.225 7.59s-.72 1.29-.928 1.186c-.206-.103-4.276-7.073-4.534-7.125-.26-.05-1.083.62-.98.774.103.157 4.483 7.333 4.483 7.333s-1.596 1.652-1.854 1.24c-.258-.414-3.658-6.816-3.967-6.868-.31-.05-1.03.568-.98.826.05.26 4.277 6.713 4.02 7.126-.26.413-1.752 1.24-1.752 1.24s-3.092-5.474-3.402-5.628c-.31-.155-.927 1.033-.927 1.033s3.4 5.215 3.246 5.215-1.288.878-1.39.723c-.104-.155-2.113-3.872-2.474-3.872s-.98.67-.824.93c.154.257 2.215 3.148 2.008 3.406-.206.26-4.02 1.19-4.02 1.19s-.514-9.19-.772-9.397c-.258-.206-12.21.207-17.158-6.144S6.468 29.38 6.88 22.564C7.292 15.75 13.94 1.758 32.333 1.5c7.832-.11 14.89 4.956 18.446 9.24 3.553 4.286 5.46 11.514 5.666 13.527s0 3.46 0 3.46zM21.41 6.3c-.567.208-2.988 1.91-5.565 4.802-2.576 2.89-3.35 5.576-3.298 5.834s.72.465 1.134.465c.414 0 .363-1.6 2.94-5.11s5.254-4.75 5.254-4.75-.264-1.31-.463-1.24zm-1.7 11.566c-.207.258-.362 9.55-.156 10.532.206.98 3.916.568 3.916.568s-.05 4.853.464 5.163c.515.31 6.492-2.687 6.853-3.41.36-.722 0-12.803-.103-13.06s-10.425-.484-10.975.205zm9.48 12.08c-.155.26-4.173 2.79-4.173 2.48 0-.31-.05-4.906-.206-4.957-.153-.054-2.11-.054-2.11-.054s.05-6.505 0-6.66c-.08-.245 6.49-.258 6.594.052.103.31.05 8.88-.104 9.138zm4.895-12.493c-.412.31-.412 10.377-.206 10.584s4.07.258 4.07.258.153 4.182.153 4.646.72 1.293 1.082 1.293c.36 0 4.586-2.633 4.843-3.15.257-.515.308-13.06.205-13.267s-9.928-.53-10.15-.362h.002zm8.398 12.804c-.206.516-2.782 2.426-2.782 2.168s-.05-5.318-.41-5.524c-.36-.204-3.09.21-3.09-.31 0-.514.05-6.503.41-6.71.273-.155 5.875-.154 6.03.104.153.258.05 9.757-.156 10.274z"/></svg>