<svg xmlns="http://www.w3.org/2000/svg" width="64" height="64" viewBox="0 0 64 64"><path d="M59.106 20.186c-.842-.21-3.998-.07-4.77-.422s4.56-13.362 4.77-13.925-.63-3.59-.982-4.22C57.774.984 56.72.21 55.318.21s-8.768-.633-9.68.28c-.912.915-6.313 18.075-6.383 18.638s-1.613.14-2.245-.07 3.227-12.587 3.297-13.15-.7-3.305-1.473-3.938c-.772-.63-12.724-1.058-13.468-.56-.842.562-6.173 16.596-6.453 17.09-.28.49-4.14-.423-4.77-.493s-2.736.633-3.157 1.266c-.42.633-2.876 7.173-2.876 7.947s0 2.743.772 3.305 5.19.14 5.612.352-.28 2.18-.56 2.954c-.282.776-.282.143-1.053.143-.77 0-6.31-.352-6.732-.21-.42.14-3.998 8.016-4.14 8.58-.14.562 1.614 3.937 1.895 4.22.28.28 5.612-.423 6.243.42.63.845-4.42 12.168-4.63 12.94-.21.775 1.122 3.588 1.473 3.87.35.28 1.682 0 2.524 0s10.452.42 11.364.07c.912-.353 7.155-17.513 7.576-18.005.42-.492 1.824-.14 2.104.28s-5.12 12.66-5.26 13.223c-.14.564.63 2.955 1.12 3.236.492.28 12.066.28 13.61 0 1.542-.28 7.084-17.02 7.224-17.44.14-.423 5.192-.282 5.753-.423s4.21-5.908 4.21-6.12-.702-3.515-1.053-3.937-7.856-.422-8.347-.633.842-3.376 1.333-3.938c.49-.563 7.225.21 8.628-.07 1.402-.283 3.226-8.23 3.226-8.23s-1.052-1.407-1.894-1.618h-.002zm-2.97 6.986c-.747.047-6.873-.797-7.34-.375-.47.422-2.433 5.298-2.62 6.236s.187 2.344.935 2.485 5.146.187 5.94.234 1.45 0 1.45 0-1.355 4.313-1.542 3.75c-.187-.562-1.45-2.718-1.917-2.67-.467.046-.89.374-.7.75.187.374 1.917 2.625 1.777 3.234-.14.61-.514 1.36-.795 1.078s-2.945-4.83-3.226-4.876c-.28-.047-1.03.375-.748.703.28.33 2.525 4.128 2.385 4.128s-.747.375-.84 0c-.095-.375-3.04-5.204-3.32-5.25-.282-.048-.843-.095-.61.515.235.61 2.854 4.735 2.667 4.735s-1.17.47-1.496-.047c-.326-.515-3.32-5.58-3.693-5.625-.373-.047-1.03.14-.747.75.28.61 3.272 4.688 3.04 4.782-.235.094-1.123.234-1.123.234s0 .75-.187.47-4.022-6.33-4.21-6.19c-.186.14-.794 1.03-.56 1.22.234.188 4.302 5.814 4.302 6.048s-.655 3.048-.935 2.58c-.28-.47-4.162-6.47-4.49-6.518-.326-.048-.887.796-.56 1.124s4.49 6.33 4.443 6.564-.374 2.766-.842 2.063c-.467-.7-4.02-6.89-4.3-6.47-.28.424-.61 1.174-.47 1.455s4.163 5.814 4.163 6.283c0 .47-.14 1.875-.327 1.64-.187-.233-4.302-6-4.583-6-.28 0-.89.75-.655.985.234.234 4.723 5.908 4.723 6.376 0 .47-.467 2.39-.7 2.11-.234-.28-3.74-5.346-4.115-5.3s-.842.28-.56.845c.28.563 3.88 4.83 3.88 5.673s-.14 1.735-.514 1.735-.84.47-1.12.094c-.28-.375-3.555-5.25-3.836-5.345-.28-.093-.654.188-.607.47.047.28 3.975 5.345 3.273 5.345s-1.403.188-1.683-.047c-.28-.234-2.48-3.985-2.946-3.892-.467.094-1.17.47-.747.938.42.47 2.805 3 2.29 3-.514 0-4.443.19-4.396-.28.047-.47 5.33-14.066 5.658-15.378.327-1.313.047-1.875-.514-1.97-.56-.093-5.657-.515-6.03-.468-.375.047-1.404 3.516-1.59 3.423s-3.93-6.188-4.303-6.282-1.03.61-.795.94c.233.327 4.488 6.844 4.348 7.22-.14.374-.655 1.78-.795 1.265s-3.88-6.798-4.35-6.658c-.467.14-.747.563-.42 1.172.327.61 4.35 6.563 4.442 6.985s.094 2.485-.327 1.547c-.42-.94-4.21-7.22-4.583-7.268-.374-.047-.89.28-.608 1.125s4.956 7.313 5.003 7.454c.048.14-.42 1.83-.607 1.5-.187-.328-5.238-7.97-5.705-7.595-.467.374-.607.75-.42 1.36.187.61 5.378 6.563 5.33 7.266-.046.703-.093 2.39-.56 2.157-.47-.233-5.004-7.782-5.47-7.688-.47.094-.983.797-.796 1.03.188.235 5.753 7.737 5.706 8.018-.047.28-.234 1.453-.655 1.266-.42-.188-5.61-7.268-5.844-7.08-.233.186-.467 1.077-.373 1.22.094.14 5.19 6.187 5.004 6.28-.186.095-1.215.28-1.636.095-.422-.188-4.256-5.157-4.444-5.11-.187.046-1.076.796-.795 1.17.282.376 3.134 3.658 2.9 3.705-.234.047-1.683.047-1.824-.234s-2.057-3.282-2.43-2.86c-.375.422-.7.47-.42.844.28.375 1.822 1.83 1.45 2.016-.376.188-3.603.61-3.603.28 0-.327 4.863-13.127 5.284-14.393.42-1.266.796-2.204-.093-2.204-.89 0-8.51.093-8.277-.657.234-.75 1.777-6.94 2.666-6.986.89-.047 7.25.656 8.044.094.795-.562 1.824-4.922 2.01-6.282.188-1.36.282-1.875-.186-2.157-.468-.28-4.49-.42-5.284-.42-.795 0-1.496.14-1.496-.14s2.245-6.613 2.712-6.894c.468-.28 5.752.47 6.64.422.89-.047 1.45-1.922 2.572-4.923 1.122-3 4.21-12.378 4.63-12.472.695-.155 10.802.516 11.036.703.234.188-2.058 9.236-2.9 11.44-.84 2.204-1.355 5.11-.98 5.532s2.852.516 3.787.656 2.947.423 3.65-1.124c.7-1.547 5.61-17.63 5.94-18.004.325-.375 8.275-.28 8.79-.14s.326 2.062.28 2.39-5.845 15.613-5.05 16.41c.795.797 4.07.797 4.676.797.608 0 2.525-.19 2.62.374.088.565-1.455 5.44-2.203 5.488l-.007-.003zm-21.978.375c-.935-.094-2.774-.166-3.133.328-.374.516-2.385 6.376-2.104 7.173.283.797 5.333.89 6.128.797.795-.094 2.01-5.814 2.338-6.892.327-1.077-2.292-1.312-3.228-1.406zm.28 6.564c-.374 0-2.198.19-2.338-.186s1.076-3.798 1.076-3.798c.327-.188 1.964.14 2.15.47.188.328-.513 3.516-.888 3.515zm-9.352 7.504c.094-.422-1.216-3.188-1.45-3.376-.234-.187-1.03-.225-1.03.14 0 .376 1.825 3.705 2.246 3.986.42.28.14-.328.234-.75zM13.208 21.218c-.89-.14-1.96 3.382-1.683 3.704.28.328.094.656.888.563.795-.094.935-1.83 1.03-2.485.093-.656 3.927.375 4.395.422s.608-.516.748-1.22c.14-.703-4.49-.843-5.378-.984zm18.658-15.05c.56.047.608-.938.327-1.453-.28-.516-4.022-.375-4.49-.375-.467 0-3.028 8.26-2.945 8.674.047.234.795.61 1.31.47.513-.142 1.916-6.565 2.103-7.268s3.136-.095 3.696-.048zM47.018 4.01c-.42.235-1.933 6.065-1.683 6.377.187.234.655.188 1.122 0 .468-.187 1.216-4.22 1.31-4.782.093-.563 1.45-.234 1.87-.422.42-.187.42-.844.14-1.03-.28-.19-2.338-.376-2.76-.143z"/></svg>