<svg xmlns="http://www.w3.org/2000/svg" width="64" height="64" viewBox="0 0 64 64"><path d="M63.805 30.15c-.83-4.65-2.77-15.41-11.502-22.285S38.023.693 27.913 1.13c-9.63.418-17.46 5.208-20.855 9.86S-4.028 31.332 2.624 42.58s11.71 16.107 19.54 18.537 18.707 3.82 29.862-4.305 12.61-22.01 11.78-26.66v-.002zm-2.286 1.043c-.487 7.36-5.476 19.232-15.245 24.23S27.635 59.59 20.5 56.88 7.75 49.384 4.01 42.51.475 23.348 5.117 16.127 14.68 3.005 27.637 2.172c5.553-.357 14.065-.764 22.45 5.693s11.917 15.97 11.432 23.328zM43.78 7.518c-7.944-2.823-14.454-2.352-20.693-.046C16.574 9.88 10.06 14.6 7.612 24.736s.277 15.69 5.913 22.078c5.635 6.387 13.58 8.702 22.126 7.868 8.548-.833 13.213-4.952 17.924-13.1 4.712-8.145 3.095-15.412 2.448-18.42-.645-3.008-4.294-12.82-12.24-15.644h-.002zm11.272 18.097c.6 3.01.277 14.395-5.127 20.088s-12.287 8.933-20 8.007-13.535-5.832-17.046-9.998-4.714-11.294-2.866-17.727c1.848-6.434 9.608-12.08 12.703-13.7 4.87-2.55 9.33-3.934 19.03-3.147s12.703 13.47 13.305 16.477zM7.15 17.285c-.323 0-2.08 3.424-3.326 6.896s-.933 3.725-.647 3.844c.785.324.924-.833 1.2-1.944.278-1.112 1.433-3.658 2.172-6.064.74-2.408.923-2.732.6-2.732zM59.07 33.9c.647-.138.878-1.526 1.155-4.35s-.6-6.34-.924-6.665c-.32-.324-1.184.008-1.34.278-.183.324.418 1.62.464 5 .046 3.378-.554 4.86-.508 5.322.047.462.51.554 1.154.415zM33.295 15.71c-4.02 1.39-11.18 3.704-11.64 4.167-.462.463-1.062 14.626-1.062 14.626-3.557.093-5.728 3.703-4.758 6.573s3.603 4.906 7.02 4.212c3.42-.694 4.482-3.194 5.128-5.23.647-2.037.416-11.618.508-12.312.094-.694 8.04-3.333 8.363-3.333s.277 7.36.277 7.36c-3.28-.834-5.775 1.202-6.19 3.424-.417 2.222-.463 8.424 4.757 8.285 5.22-.14 7.114-3.01 8.037-4.906.924-1.898.924-15.922.97-18.884s-.37-4.814-1.617-5.323c-1.246-.51-5.773-.05-9.792 1.34zm8.73.37c.093 1.25.047 20.69-.322 20.552-.37-.14-1.016-1.435-1.247-1.342-.23.093-.878.51-.554.787.323.278 1.2 1.574 1.155 1.805-.046.23-.37 1.11-.6.972S38.7 36.54 38.47 36.77c-.23.232-.83.186-.37.695.462.51 1.524 1.805 1.2 2.13-.322.323-.738.6-.83.416-.092-.183-1.8-2.96-1.986-2.96-.185 0-.74.51-.554.833.185.324 1.34 1.898 1.062 1.944s-.554.093-.647-.093c-.092-.185-1.57-2.268-1.848-2.36-.277-.094-.785.416-.6.6.184.186.97 1.667.738 1.667s-1.293-.14-1.986-1.526c-.695-1.39-.325-4.166 1.245-4.86s3.326-.278 3.973-.093c.646.186.692-.647.692-1.064s-.14-10.368-.185-10.784c-.046-.416-1.71-3.146-2.125-3.285-.416-.14-1.2-.093-.74.417.463.51 2.357 2.962 1.895 2.962s-1.663-.093-1.663-.093-1.432-2.59-1.8-2.452c-.37.14-.88.556-.51.88.37.324 1.57 1.435 1.202 1.527-.37.093-1.2.694-1.34.463-.14-.23-1.247-1.85-1.8-1.85s-.925.323-.694.554c.23.232 1.57 1.76 1.247 1.806-.324.046-1.156.278-1.156.278s-1.015-1.76-1.292-1.76-1.06.37-.784.695c.277.323.97 1.526.97 1.526s-4.25 1.017-4.204 1.804c.046.788-.046 12.498-.14 13.424-.09.926-1.985 3.564-4.433 3.425-2.45-.14-3.88-.834-4.066-2.362-.184-1.526 1.387-3.75 3.88-3.61.934.053 1.2-.416 1.2-1.202 0-.787.556-13.238.97-13.608.418-.37 10.67-4.258 13.998-4.814 3.326-.554 4.943-1.202 5.036.048v-.004z" fill="#232021"/></svg>