<svg xmlns="http://www.w3.org/2000/svg" width="64" height="64" viewBox="0 0 64 64"><path d="M61.753 29.612c4.683-6.92.797-15.643-.498-16.145s-2.292.5-3.787 1.003c-1.495.5-24.115 12.234-24.115 12.234s2.192-6.82 1.794-12.535c-.4-5.718-2.99-9.73-7.474-12.737s-10.676-.415-11.06 0C15.216 2.938 1.365 47.963.468 50.97c-.898 3.01-.7 5.416 2.29 8.625 2.99 3.21 8.77 4.412 15.048 2.607s6.975-12.434 7.374-13.337c.4-.903 7.274-3.81 7.274-3.81S39.73 59.395 42.62 61.6c2.89 2.206 7.274 3.41 12.356 1.304s4.684-5.214 4.185-7.02c-.496-1.804-8.47-17.147-8.767-17.447s6.677-1.906 11.36-8.825zM46.556 31.87c.15.25 1.794 3.358 1.545 3.46-.247.1-.895.8-.646 1.252.25.45 8.37 15.142 9.417 17.55s.948 3.61.848 4.31c-.1.703-.3.803-.3.803s-3.537-9.677-3.935-9.727c-.4-.05-.996.45-.947.602.05.15 4.783 9.376 4.285 9.777-.497.4-1.693.602-1.843.45-.15-.15-4.135-10.88-4.484-10.88s-1.295.202-1.096.502c.2.3 4.982 10.68 4.684 10.73s-1.444.25-1.444.25-4.086-10.08-4.484-10.18c-.398-.1-.796.05-.697.25.1.203 4.434 10.08 4.235 10.08s-1.046.05-1.196-.2c-.15-.25-3.488-7.873-3.787-7.923-.3-.05-1.096.35-.947.903.15.553 3.787 6.57 3.488 6.62-.3.05-1.644-.402-1.943-.653-.3-.25-2.54-5.465-2.69-5.465-.15 0-.997.4-.848.602.15.2 1.844 3.96 1.844 3.96s-3.04-2.506-5.082-7.22c-2.043-4.712-5.33-11.43-5.78-11.53-.448-.1-10.912 4.812-10.96 4.963-.05.15-2.592 8.173-3.39 8.975-.796.802-1.045.903-1.045.903s-2.69-6.97-3.14-7.02c-.447-.05-.796.2-.746.903.05.702 3.338 7.07 3.19 7.17-.15.1-.848.953-.898.752-.05-.2-2.94-6.518-3.39-6.518s-.796.5-.796.5 3.537 6.57 3.288 6.67c-.248.1-1.494 1.102-1.843.902-.35-.2-2.74-5.064-2.94-5.064-.2 0-1.296.35-1.097.752.2.4 2.94 4.914 2.642 4.914s-1.345.5-1.445.25c-.1-.25-2.142-4.41-2.49-4.41s-1.097.397-.997.548c.1.15 2.043 3.96 1.744 3.96-.3 0-1.146.252-1.345-.15-.2-.4-1.247-3.46-1.595-3.56-.35-.1-1.196 0-.997.452.2.45 1.395 2.908.797 2.908s-3.24-.602-4.733-2.708c-1.495-2.106-.3-4.462 1.594-11.833S17.06 3.44 17.858 2.688c.284-.268 4.534-2.006 8.22-.1 3.688 1.905 6.827 6.72 5.93 12.785-.897 6.067-4.036 15.142-3.538 15.744.498.602 22.022-11.28 24.912-12.735 2.89-1.454 6.377-3.16 6.577-3.058.197.1.795 1.855.994 2.758.2.903.1 1.755-.05 1.604-.15-.15-1.495-2.657-1.943-2.607s-.896.4-.547.85c.35.45 2.49 3.91 2.49 4.663s-.447 3.11-.647 2.708c-.2-.4-2.44-5.264-2.79-5.264-.35 0-.897.652-.747.852.15.2 3.337 5.514 3.19 5.966-.15.45-1.198 1.604-1.347 1.354-.15-.25-2.89-6.017-3.288-6.017-.4 0-.847.603-.698.853.15.25 3.19 5.716 3.04 5.916-.15.2-1.296 1.354-1.446 1.203-.15-.15-2.44-5.164-2.94-5.164-.497 0-1.045.65-.697.952.35.3 2.59 5.064 2.59 5.064s-.995 1.103-1.145.953c-.15-.15-1.994-4.514-2.492-4.564s-.947.45-.747.602c.2.15 2.392 4.662 2.142 4.712s-1.046.702-1.196.5c-.15-.2-2.192-4.612-2.392-4.612s-.995.4-.895.75c.1.352 2.39 4.313 2.14 4.463s-1.344.603-1.344.603-1.495-3.11-1.644-3.16c-.15-.048-1.146.353-.997.604v.003zM17.608 43.95c-.25 0-.707.752-.698.903.05.802 3.338 6.92 3.338 6.92s.548-.452.598-.954c.05-.5-2.988-6.87-3.238-6.87zm1.744-1.103c.1.4 1.594 3.51 1.844 3.96s.747-.2.897-.752-1.246-3.46-1.694-3.91c-.45-.452-1.145.312-1.05.7l.002.002zm1.844-38.483c-.822-.652-1.77-.526-2.392-.276-.623.252-3.09 8.073-3.09 8.224 0 .25.773.552 1.32.45.55-.1 2.442-6.04 2.866-6.617.423-.577 1.345-.025 1.545.025s.174.05.623-.125c.448-.176-.05-1.028-.872-1.68z" fill="#232021"/></svg>