<svg xmlns="http://www.w3.org/2000/svg" width="64" height="64" viewBox="0 0 64 64"><path d="M62.984 48.843c-.174-6.524-.392-34.237-.566-39.447-.174-5.21-1.262-7.005-5.35-8.318C52.978-.237 45.45-.018 40.968.07c-4.48.088-22.624-.175-26.757.088s-9.01.87-10.746 2.1C-.06 4.756 1.204 19.685 1.29 25.86c.087 6.17-.13 27.14-.174 28.63-.043 1.488.13 3.634 1 5.122s3.482 3.152 5.875 3.152c2.395 0 4.744.13 14.664.438 9.92.307 23.407.7 27.89.788 4.48.088 8.135-.438 9.745-2.67 1.607-2.232 2.87-5.954 2.694-12.477zm-8.31-4.685c.087.13 5.917 4.816 6.004 5.166s-.218 1.926-.218 1.926l-5.917-5.166-.392.92s6.18 5.12 6.137 5.34-.566 2.233-.696 2.19c-.13-.045-6.482-5.912-6.482-5.912s-.566.963-.435 1.138c.13.175 6.744 5.78 6.613 6.173-.13.394-.696 1.84-.827 1.795-.13-.044-5.918-5.166-6.05-5.21-.13-.044-.565 1.007-.565 1.007s6.265 4.772 5.96 4.99-1.913.702-1.913.702-4.654-3.94-4.828-3.94-.783.963-.783.963 4.438 3.284 4.307 3.284-2.306-.087-2.306-.087-2.61-2.145-2.783-2.145-1.088.438-.957.657c.13.217 2.435 1.75 2.13 1.793-.304.044-21.883.394-31.542-.525-9.66-.92-12.878-.877-14.183-3.59-1.305-2.715-.218-11.735.044-18.17S3.986 13.86 4.25 10.27s.042-4.86 1.61-6.348c.753-.717 7.57-1.49 13.27-1.97 5.7-.482 18.01.306 26.842.306 8.832 0 12.704.438 13.835 5.122 1.13 4.685.61 19.527.61 19.527s-2.786-2.234-3.003-2.19c-.218.044-.61.525-.26.876.347.35 3.175 2.233 3.262 2.714s-.044 1.795-.044 1.795-3.785-3.415-3.916-3.37-.653.83-.348 1.18c.304.35 4.22 3.24 4.306 3.46.087.22.218 2.058.087 2.058s-3.83-3.46-4.09-3.415-.565.92-.565.92 4.48 3.59 4.612 3.852c.13.263.173 2.452.173 2.452s-3.698-3.59-3.916-3.59-.48 1.006-.48 1.006 4.308 3.72 4.352 3.983c.042.262.042 1.97.042 1.97s-4.525-3.854-4.742-3.854c-.218 0-.48.832-.348.963s4.786 4.07 4.96 4.246c.174.175.087 2.67.087 2.67s-5.048-4.465-5.178-4.465-.26 1.05-.26 1.05 5.394 4.51 5.48 4.687c.088.176.132 2.06.132 2.06s-5.526-4.904-5.7-4.904c-.174-.003-.478.96-.39 1.092l.004.003zM9.99 4.973c-1 .044-2.74 1.27-3 2.977s-.044 2.933.13 2.977c0 0 .783-.044.87-.35.087-.306-.087-1.576.174-2.933s2.22-1.532 2.48-1.664.348-1.05-.654-1.007zm31.327 28.765c1.48-1.927 1.392-9.413 1.088-11.91s-2.088-2.144-4.786-2.275c-2.7-.13-4.875-.263-5.658 1.05-.783 1.314-.61 6.524-.696 7.444-.087.92-8.658.044-9.05 0s-.26-18.3-.565-19.002c-.304-.7-10.696-.63-11.137-.13-.696.787.044 18.475-.087 24.298-.13 5.823.26 19.22.26 20.402s1.263 2.233 4.308 2.233 6.004-.044 6.83-1.007c.828-.96.175-7.747.262-10.812s1.653-3.415 3.394-3.678c1.74-.264 3.09.568 4.09 2.538 1.002 1.97.22 11.777.262 12.565.044.788 2.22.963 5.395.832s4.438-.13 5.787-1.182c1.35-1.05 1.13-3.94 1.262-11.12.13-7.18-2.785-8.187-2.785-8.187s.35-.132 1.827-2.058zm-6.657 2.496s4.612.57 5.09 3.984c.48 3.415.392 7.136.044 9.85-.348 2.716.044 3.24-.653 3.547-.694.307-6.742.613-6.916.175s.435-10.2-.348-12.346-3.35-3.634-6.352-3.37c-3.002.262-5.612 2.495-5.656 5.296-.044 2.802.26 9.457-.044 9.807-.305.35-6.657.438-6.874.044-.22-.392-.87-40.014-.48-40.364.166-.148 6.396-.088 6.526.087.13.175-.087 18.3 1.13 18.563 1.22.263 12.53.657 12.75-.088.217-.744.565-8.056.826-8.187.26-.13 6.178.22 6.265.79.087.57.48 8.055-1 9.02-1.48.96-1.393 1.093-2.698 1.18-1.307.087-1.61.394-1.7.876-.085.482.09 1.14.09 1.14v-.002zM44.446 8.02c-3.282 2.516 1.698 6.694 1.698 6.694s2.255-1.504 2.11-1.775c-.147-.273-1.6-.99-1.025-1.508.573-.52 1.382.992 1.825.85.443-.144 1.976-1.79 1.903-2.12-.074-.332-3.233-4.658-6.514-2.143h.002zm4.974 2.79s-2-1.243-2.94-.425c-.94.82.494 2.624.494 2.624l-.634.444c-.242-.12-2.8-3.105-1.428-4.498 1.374-1.393 4.827.957 4.882 1.205.055.25-.374.65-.374.65zm3.995 1.412c.27-.147.98-1.61 1.497-1.03.516.58-.985 1.393-.844 1.84.142.445 1.778 1.988 2.106 1.914.33-.074 4.628-3.252 2.128-6.554s-6.652 1.71-6.652 1.71 1.495 2.268 1.765 2.12zm3.957-3.36c1.385 1.38-.95 4.857-1.198 4.912-.247.055-.644-.376-.644-.376s1.236-2.014.423-2.96-2.607.498-2.607.498l-.443-.64c.118-.242 3.084-2.818 4.47-1.435v.002zm.59 13.326c3.282-2.516-1.698-6.694-1.698-6.694s-2.255 1.504-2.11 1.775c.147.27 1.6.985 1.025 1.504-.577.52-1.386-.992-1.83-.85-.442.144-1.975 1.79-1.902 2.12.072.332 3.23 4.66 6.512 2.143h.002zm-5.35-2.142c-.054-.248.375-.648.375-.648s2 1.244 2.94.426c.94-.82-.494-2.624-.494-2.624l.635-.446c.242.12 2.8 3.105 1.428 4.498-1.374 1.392-4.828-.958-4.884-1.206zm-3.62-2.06c-.268.147-.98 1.61-1.496 1.03s.985-1.393.844-1.84c-.142-.445-1.778-1.988-2.106-1.914-.33.074-4.628 3.252-2.128 6.554s6.652-1.71 6.652-1.71-1.496-2.267-1.765-2.12zm-3.956 3.362c-1.385-1.382.95-4.858 1.198-4.913.247-.055.644.376.644.376s-1.236 2.016-.423 2.96c.813.948 2.607-.496 2.607-.496l.443.64c-.118.242-3.085 2.817-4.47 1.434z"/></svg>