<svg xmlns="http://www.w3.org/2000/svg" width="64" height="64" viewBox="0 0 64 64"><path d="M54.73 9.717C41.046 1.657 28.97 3.83 18.92 6.002S.07 16.516 0 26.328 2.306 41.046 8.31 44.9s16.544 4.627 19.406 5.258 2.862 3.504 2.862 5.677c0 2.173-.392 4.944 1.536 5.116 11.727 1.053 23.804-15.137 27.853-22.356S68.41 17.777 54.73 9.717zm1.465 29.577s-.977-2.453-1.606-2.383-1.398.21-.84.913 1.606 1.962 1.466 2.243c-.14.28-1.117 1.332-1.326 1.05-.208-.28-1.605-2.732-1.814-2.732-.21 0-1.326.63-.907.98.417.35 2.022 2.174 1.883 2.524-.14.35-1.187 1.262-1.466 1.12s-1.815-3.573-2.304-3.503c-.49.07-.977.98-.977.98l2.234 3.365s-1.186 1.75-1.535 1.4c-.35-.35-2.094-3.994-2.373-3.994s-1.117.7-1.117.91 2.583 3.646 2.443 3.856-1.117 1.19-1.326 1.05c-.21-.14-2.373-4.274-2.583-4.274s-1.26.7-.84 1.12c.42.422 2.583 3.996 2.443 4.206-.14.21-1.117 1.262-1.466.91-.35-.35-1.955-3.854-2.234-3.854s-1.117.49-.768.91c.35.422 1.745 3.786 1.745 3.786s-1.116 1.402-1.395 1.262c-.28-.14-1.955-4.135-2.234-4.135s-1.045.42-.905.77c.14.35 2.373 3.786 2.234 3.996-.14.21-1.327 1.12-1.607 1.05s-1.466-3.646-1.745-3.716-1.047.49-.838.84c.208.35 1.814 3.575 1.605 3.716-.21.14-.977.912-1.117.632s-1.257-2.804-1.606-2.804-.838.14-.558.7c.28.562 1.606 2.875 1.326 3.085s-3.002 1.892-3.42 1.262c-.42-.63.14-7.99-1.258-9.11-1.698-1.365-14.8-2.664-19.755-5.328s-8.89-6.412-10.12-12.615C.307 23.28 5.725 13.012 11.73 10.138s20.033-6.8 34.693-2.874S61.71 22.684 62.06 24.716c.348 2.032.488 7.92-5.865 14.578zM24.573 8.946c-.49 0-3.63.7-6.283 1.542-2.653.84-6.378 3.046-6.7 3.294-.48.368.14 1.332.837 1.19.698-.14 3.63-1.96 5.907-2.943s5.4-1.474 6.24-1.754c.837-.28.488-1.33 0-1.33zM12.287 29.06c-.907-.21.14-8.62 0-10.022s-4.03-1.25-4.537-.42c-.558.91-.49 14.437 0 15.84.49 1.4 6.91 1.12 8.447.91 1.536-.21.907-4.205.907-5.257 0-1.05-3.91-.84-4.817-1.05zm3.42 4.907c-.557.07-5.165.42-5.304 0-.14-.42-.35-12.125-.14-12.896.112-.41.768.07.768.703 0 .63-.196 8.41.39 8.55 0 0 4.358.28 4.428.702s.42 2.873-.14 2.942zm4.957-15.42c-1.815.35-1.745 15.28-.907 16.19s3.49.912 4.188.07c.698-.84.21-12.405.07-14.858s-2.584-1.55-3.35-1.403zm2.164 15.28c-.558.35-.907.49-.977 0s-.14-13.036.35-13.877c.177-.303.77 0 .7.91-.07.912.49 12.617-.07 12.967h-.002zm12.914-15c-.558.21-.07 6.1-.21 6.45s-3.28-4.417-4.676-5.958c-1.396-1.544-3.66-.888-3.7-.07-.07 1.4.28 15.067.42 15.84s3 .63 3.42.21c.418-.423-.21-6.24.278-6.59.49-.35 3.35 3.434 4.677 5.116s3.353 2.243 4.33.7c.977-1.54-.35-12.895-.56-15.068s-3.42-.842-3.978-.63zm3.42 15.28c-.627.07-7.608-7.568-8.306-7.71s-.698 1.122-.768 2.104.42 5.54.07 5.75-.768.28-.838-.07-.768-13.948-.28-14.02c.49-.07 2.235 2.524 2.235 2.524.768.77 4.607 5.537 5.515 5.607.907.07 1.326-1.26 1.257-2.732s-.42-3.995 0-4.065c.42-.07.907-.14.907.42s.837 12.125.21 12.196l-.002-.003zm7.82-4.345c-.21 0-.28-.7-.21-.98s2.722-.21 3.21-.422c.49-.21.07-2.804.14-3.504s-1.814-.98-2.442-.98c-.628 0-.42-.21-.14-.702s5.515.49 6.352.07.42-4.065.07-4.836c-.35-.77-11.544-.53-11.727.07-.28.91-.07 16.19.698 16.89s11.1.21 11.727.14.42-4.905.14-5.326c-.28-.42-7.61-.42-7.82-.42h.002zm6.002 4.486c-.49.07-8.307.56-8.656.14-.35-.42-.28-14.228.21-14.578.41-.294 7.468-.28 7.957.14s.558 2.103 0 2.033-6.213-.42-6.492.14c-.28.56-.35 3.785.21 3.855s2.442-.07 2.442.28.42.84 0 .98-3.14 0-3.21.28-.07 3.996.418 4.066 7.05-.07 7.19.35c.14.42.42 2.244-.07 2.314z"/></svg>