<svg xmlns="http://www.w3.org/2000/svg" width="64" height="64" viewBox="0 0 64 64"><path d="M62.64 45.805c-1.314-.857-3.4-1.013-4.326-1.247s-1.776-1.17-6.024-3.428-14.443-7.246-15.138-8.025c-.695-.78 1.467-5.765 1.545-6 .077-.233.31-.155 1.622-.544 1.31-.39 4.17-1.4 4.71-1.87.54-.465 3.01-.62 3.475-.62s2.163-1.17 3.63-1.95 5.947-2.65 6.41-3.193c.463-.545.154-4.05-.695-4.363s-5.096 1.247-6.332 1.792-5.33 1.636-6.797 1.792-4.632 1.09-4.632 1.09 1.16-2.336.618-3.895c-.54-1.558-3.244-3.116-4.634-3.116s-5.946 1.792-6.95 3.35c-1.004 1.558.154 4.597.154 4.597s-4.016-4.05-4.866-5.298-6.256-6.7-6.95-6.856c-.696-.157-2.78.7-2.78 2.18s.385 4.052 1.466 4.987c1.08.935 9.114 9.27 9.114 9.27s.077 1.793.154 2.884 1.236 3.43 1.236 3.43-.232 1.013-1.776 2.727c-1.545 1.714-9.654 7.402-9.963 7.79-.31.39-.463.546-2.394 1.092-1.93.544-11.353 6.7-12.05 7.634-.694.935-.54 2.026 0 3.116.542 1.09 6.334 1.79 7.57 1.87s3.707-3.74 5.175-4.442c1.468-.7 4.403-.857 6.566-1.87s9.577-5.843 10.89-6.077c1.313-.232 3.784.78 6.565 1.716 2.78.935 10.35 2.493 10.35 2.493s2.163 1.713 4.016 2.726c1.854 1.013 4.79 2.26 7.878 1.87 3.09-.39 3.862-2.415 4.325-3.116s.153-1.638-1.16-2.495zm-32.517-28.67c.463-2.494 4.71-3.82 6.41-3.35s3.32 2.025 1.08 4.128-3.088 2.57-4.71 2.26c-.834-.16-3.243-.546-2.78-3.04v.002zM61.017 48.53c-.386.078-3.63-.312-5.406-.7-1.774-.39-6.717-2.65-8.417-3.585-1.7-.935-7.106-2.493-7.723-2.727s-5.485-.545-5.948-.935c-.463-.39-1.7-1.09-2.55-1.09s-6.41 2.882-7.954 3.895c-1.545 1.013-4.866 2.57-7.57 3.35S9.965 48.53 9.193 49.23c-.772.7 0 1.17-1.7 1.56-1.698.39-5.174.467-5.56.156-.386-.312-.31-.467.772-1.09 1.08-.624 7.028-4.754 8.42-5.533 1.39-.78 4.324-1.948 4.556-2.026.234-.078 6.567-5.064 7.494-5.843.927-.78 4.557-4.597 5.02-5.376s.154-.78.077-1.325-.85-3.116-.85-3.973.233-1.402 0-1.792-9.19-11.453-10.35-12.7c0 0-1.002-1.636-.384-2.026s1.16.234 1.16.234S29.35 21.964 29.66 22.042s2.085-.312 2.317-.234c.232.078 3.553.39 4.48.078.927-.312 3.707-1.324 5.947-2.104s12.126-3.35 12.82-3.35h1.855s-.31 1.558-.774 1.714-7.337 2.65-9.114 3.506c-1.776.857-6.102 2.415-7.183 2.57s-1.546.157-1.777.468c-.232.312-.927.857-.927.857s-.772-1.558-1.236-1.324-1.003.39-.617.7c.386.313 1.467 1.793 1.467 1.793s-.31 1.247-.54 1.17c-.233-.08-1.623-1.48-1.623-1.48s-.927.622-.54.778c.385.156 1.62 1.714 1.62 1.714l-.462 1.09s-1.467-1.012-1.7-1.012c-.23 0-.23 1.09-.23 1.09l1.544 1.48s.075 2.962 2.47 4.13c2.393 1.17 16.836 8.26 18.844 9.35 2.008 1.09 2.858 1.4 3.244 1.48.385.077 1.853.233 2.162.7.31.47-.31 1.248-.695 1.326l.002-.002z" fill="#232021"/></svg>