<svg xmlns="http://www.w3.org/2000/svg" width="64" height="64" viewBox="0 0 64 64"><path d="M63.4 38.602c-.98-4.42-4.69-7.66-12.27-6.58-7.578 1.08-8.35 8.79-8.35 8.79s-.465-5.86-9.9-6.066c-9.435-.205-10.878 7.505-10.878 7.505s-2.062-5.96-10.517-5.14C3.03 37.935.607 43.846.505 44.67c-.105.822-.362 5.397-.31 6.065.05.668 2.06 2.724 2.06 2.724C3.082 54.075 60.31 55 60.31 55s2.732-1.49 3.196-2.57c.464-1.08.877-9.407-.103-13.828H63.4zM21.745 50.785s-19.23-.617-19.488-.874c0 0 .103-5.14.31-5.652.205-.514 4.123-5.45 9.69-5.655 5.57-.205 9.332 5.655 9.54 6.63.206.978-.052 5.553-.052 5.553zm20.107.41c-.36.206-18.3-.205-18.61-.41-.257-.17.258-8.02.412-9.047.155-1.028 2.732-6.27 9.692-5.603 6.96.668 8.66 5.963 8.66 6.374s.208 8.48-.154 8.685zm19.437-.976c0 .306.05 1.13-.053 1.283-.103.154-1.804.154-1.804 0s-5.258-6.426-5.412-6.426-.566.36-.515.617c.052.257 4.64 5.655 4.64 5.655H55.72s-3.507-4.268-3.92-4.32c-.41-.05-1.03.926-1.03.926s3.61 3.444 3.403 3.495c-.206.053-2.372.104-2.526 0-.155-.102-1.96-1.952-2.217-2.004-.258-.052-1.03.463-.876.72.155.257 1.237 1.337 1.237 1.337s-5.05-.308-5.31-.668c-.274-.386-.05-8.945.363-10.538s2.68-6.58 8.146-7.042c5.464-.463 7.423 2.673 7.732 3.65.31.977.31 1.902.31 1.902s-1.804-1.696-2.062-1.645c-.258.05-.773 1.08-.567 1.336.207.256 2.63 2.107 2.63 2.466 0 .36.36 3.393.206 3.29-.156-.103-3.558-4.575-3.816-4.575-.257 0-.927.823-.772 1.08.155.257 4.485 4.986 4.588 5.295.103.308.052 2.622.052 2.622s-5.156-6.066-5.362-6.117c-.206-.05-1.03.926-.928 1.08.103.154 6.29 6.27 6.29 6.58h-.003zM9.216 33.614c6.03.05 9.382-3.033 9.588-9.716.206-6.684-5.35-10.47-10.672-9.614-7.01 1.13-8.403 7.248-8.094 11.72s3.143 7.557 9.175 7.61h.002zm-5.57-14.188c3.25-4.06 3.404-3.187 5.414-3.598 2.807-.575 6.395 1.387 7.22 4.06.825 2.673.05 5.963.05 5.963s-1.802-2.52-2.06-2.52c-.26 0-1.237.104-1.083.567.155.464 2.784 3.24 2.578 3.856s-.876 1.182-.876 1.182-2.115-2.776-2.32-2.827c-.207-.05-1.084.413-.98.67s2.422 2.88 2.113 3.136c-.31.257-1.34.72-1.443.565-.104-.153-1.857-2.775-2.373-2.826-.516-.05-.928.36-.876.566.054.204 1.703 2.415 1.445 2.518-.258.103-3.712.566-5.826-1.028S.4 23.488 3.647 19.428zm26.295 10.846c3.712-.565 8.61-2.16 8.816-10.487.206-8.328-6.277-10.02-10.723-9.047-6.805 1.49-8.25 8.275-7.218 12.593 1.03 4.318 5.413 7.506 9.125 6.94zM28.086 12.18c1.882-.746 6.857 0 8.094 3.187s.155 7.042.155 7.042-2.217-2.624-2.475-2.624-.773 1.337-.773 1.337 2.526 2.005 2.372 2.364c-.157.36-1.755 1.696-1.755 1.696s-2.165-2.98-2.423-2.98-.876.667-.876.667 2.68 2.983 2.32 3.29c-.36.31-1.495.67-1.495.67s-2.113-3.497-2.37-3.548c-.26-.052-1.187.05-1.03.463.153.41 1.906 3.136 1.75 3.24-.154.102-3.556-.155-5.31-2.314-1.753-2.157-4.743-9.097 3.816-12.49zm25.468 16.552c3.35-.617 6.29-4.472 6.65-10.795.362-6.323-6.11-10.578-11.444-8.328-6.702 2.825-6.702 9.405-4.95 14.135 1.753 4.73 6.393 5.603 9.744 4.986v.002zM49.07 11.82c2.53-1.823 6.29-.154 7.474.77 1.186.926 2.268 5.45 2.268 5.45s-1.134-.823-1.29-.823-.515.514-.308.72c.206.206 1.134.514 1.083 1.028-.052.514-.206 1.234-.36 1.13-.156-.102-2.27-2.26-2.58-2.21-.308.052-.67.823-.67.823s2.733 2.622 2.63 3.084c-.103.463-1.03 1.645-1.186 1.542-.153-.103-3.143-3.24-3.452-3.24-.31 0-.928.567-.773.926.155.36 3.506 2.827 3.145 3.136-.362.308-.877.823-1.084.565-.206-.255-2.372-2.62-2.732-2.62-.36 0-1.237.617-.928.977.31.36 2.217 1.953 1.907 2.108-.31.154-2.217.41-4.434-1.593s-4.847-7.35 1.29-11.77v-.002zM5.864 24.62c.206-.154.206-1.388.464-2.416.257-1.028 1.752-1.748 2.01-1.902s-.155-.823-.62-1.028c-.463-.206-.927.103-2.474 2.21-1.547 2.108-.825 3.033-.825 3.033.104.36 1.24.257 1.444.103zm19.9-4.73c.413-.154.104-1.337.568-2.313.464-.977 1.495-2.005 1.495-2.005s-.258-.566-.464-.668c-.206-.103-1.083.154-2.165 1.696-1.084 1.542-.852 2.667-.723 2.827.206.258.876.618 1.29.463zm23.097-3.65c.36-1.13 1.548-2.21 1.857-2.467.31-.257-.103-.668-.464-.668-.36 0-1.083.103-2.165 1.593-1.084 1.49-1.135 3.24-1.135 3.24.155.513.67.667 1.083.616.412-.052.464-1.183.825-2.314z"/></svg>