<svg xmlns="http://www.w3.org/2000/svg" width="64" height="64" viewBox="0 0 64 64"><path d="M35.403 28.763c7.52-1.597 10.307-7.323 10.25-14.37C45.6 7.346 40.808.96 33.008.133 25.208-.693 18.354 2.39 16.46 8.06c-1.894 5.672-1.39 11.3 1.06 14.15 5.013 5.837 10.36 8.15 17.883 6.553zM21.53 3.71c3.155-2.457 9.08-3.192 14.207-1.1 5.126 2.092 5.516 3.47 6.35 5.23.837 1.763.725 2.148.725 2.148s-.947-1.21-1.616-.936c-.67.275-.724.606-.28.936.447.33 2.787 2.753 2.787 3.083s.167 1.984-.223 1.874-2.62-2.698-2.953-2.478c-.334.22-.947.826-.613 1.156s3.12 2.864 3.064 3.194-.39 1.707-.724 1.542-2.953-3.58-3.23-3.36c-.28.22-1.004.717-.614 1.047.39.33 3.287 3.083 3.23 3.414-.055.33-.612 1.65-.89 1.486s-2.786-3.414-3.01-3.358c-.222.055-.835.936-.612 1.1.223.166 2.73 3.14 2.73 3.14s-.557.88-.836.88c-.28 0-2.618-3.138-3.01-3.138-.39 0-1.17.275-.78.99.39.717 3.232 3.14 3.065 3.304-.167.165-1.727 1.32-2.006.936-.277-.385-2.004-3.138-2.394-3.193s-1.003.275-.947.716c.055.44 2.06 2.864 1.84 3.084-.225.22-1.34.385-1.56.275-.225-.11-1.896-2.644-2.286-2.7-.39-.054-1.06-.054-.89.717.166.77 2.005 2.477 1.56 2.422-.447-.055-6.464-.165-10.587-3.303s-7.13-13.16.504-19.107V3.71zM52.284 51.5c-1.06-1.375-7.187-6.33-7.187-6.33s1.003.274 2.284-.497c1.283-.77 1.73-3.138 1.84-7.213.11-4.074-1.392-7.102-3.23-7.102s-4.01 1.707-8.69 2.863-7.188.773-11.144-.11c-3.956-.88-7.637-2.71-9.415-2.145-6.406 2.037-5.18 9.855-2.896 12.333 2.284 2.478 6.908 2.863 6.908 2.863s-4.68 4.956-6.462 7.048c-1.783 2.092-3.51 5.34-.056 8.26 3.454 2.917 4.736 2.972 8.023 1.87 3.287-1.1 11.198-9.14 11.477-9.25.28-.11 4.234 4.68 8.357 6.663 4.123 1.983 7.076 1.818 9.193-1.045 2.116-2.862 2.06-6.826 1.002-8.203V51.5zm-2.452 1.818c-.167 0-3.62-3.028-4.067-2.808-.446.22-1.226.66-.613 1.1.613.44 4.29 3.084 4.123 3.36-.167.274-.446 1.265-.836 1.1s-4.07-3.47-4.626-3.193c-.557.275-1.003.88-.446 1.266.556.385 4.233 2.478 4.066 2.808-.167.33-.613 1.048-1.003.773s-3.453-2.863-4.01-2.863c-.557 0-1.114.44-.67.77.447.33 3.79 2.588 3.344 2.643-.446.055-1.337.44-5.57-2.753-4.235-3.193-6.464-6.387-6.91-6.11-.445.274-10.027 10.57-12.59 10.845s-5.07-.33-5.683-2.753c-.612-2.423 6.13-8.7 8.19-10.296 2.06-1.597 3.23-2.698 2.007-3.138-1.227-.44-6.575-.385-8.358-2.037s-3.79-7.045 1.17-9.36c1.076-.5 6.963 2.37 14.317 2.645 7.354.275 13.204-3.083 14.374-3.028s1.56 4.184 1.06 6.552c-.5 2.367-.5 3.192-2.73 3.523-2.23.33-3.9-.33-4.57-.055-.667.275-.5 1.32.39 1.652.893.33 7.02 5.174 8.415 6.66s1.39 2.698 1.224 2.698h.002zM21.307 12.41c.28-.55.223-2.312 1.06-4.02.835-1.706 2.896-1.76 3.398-1.98.5-.22.446-1.212-.056-1.543s-2.73-.44-4.68 2.202-1.17 5.063-1.17 5.063c.443.442 1.17.827 1.446.276zM19.86 34.158c-.837-.11-2.73-.374-3.79.88-.835.992-.556 3.36-.445 3.745.11.385.39 1.376 1.226 1.266.838-.11 1.06-.663.838-1.213s-.557-2.533.167-2.918 1.393.054 2.06-.056.78-1.597-.055-1.707zm10.138-16.132c3.677.66 6.184-2.533 5.07-6.442-1.114-3.91-6.07-3.817-7.744-2.092-4.01 4.13-1.003 7.874 2.674 8.534zm.725-6.717c1.417-.1 2.84.77 2.953 2.145.11 1.376-1.003 3.414-3.788 2.863-2.787-.55-2.34-4.79.835-5.01z"/></svg>