<svg xmlns="http://www.w3.org/2000/svg" width="64" height="64" viewBox="0 0 64 64"><path d="M54.833 17.327c-7-12.5-20.833-14.167-31.917-11C11.833 9.494 7.5 15.744 6.75 20.16s-.083 19.334 0 27.584.623 10.202 1 11.417c.375 1.21 9.188.793 9.938.043S14.5 37.577 17.125 28.39s6.812-11.125 15.74-11.188 12.885 5.5 14.76 12.188S47 42.577 43 46.39s-9.25 3.625-9.438 3.625 0-2.625 0-2.625 3.875-.062 6.188-1 5.75-3.938 5.688-12.375-5-13.5-12.25-13.562-11.27 2.958-12.52 7.125.082 28.667.082 29.917.75 2.333 1.833 2.667c1.083.333 12 1 19.333-.5 7.333-1.5 11.833-4.917 14.583-10.75s5.333-19.085-1.667-31.585zm-4.333 33.5c-4.312 4.25-7.75 5.688-14.438 5.938s-12.812.562-13.125-.188-.75-28.375 0-29.938 7.125-5.94 13.375-3.813 6.125 11.125 5.125 15.062-3.25 5.06-5.438 5.624-7.44.375-7.563 1-.437 7.188.313 7.376 4.875 1.062 10.438-1.188S49 44.14 49.625 37.015 48 22.577 42.75 17.64s-16.25-3.937-21.688-.438-7.375 11.062-7.438 14.938 1.062 24.438.625 24.688-4.813.25-5.19-.062c-.48-.403-.685-26.876-.622-31.126s-.062-7.688 4.5-11.75 14.812-9.188 26.25-5.375 15.5 13.437 17.062 21.688-1.438 16.374-5.75 20.624zM15.208 14.953c-2.417 2.083-2.605 3.132-2.542 3.292.083.208.792.625.958.625s.417-.917 2-2.542 3.958-2.333 4.208-2.583.25-1-.125-1.25-2.082.374-4.5 2.458zm14.167 9.916c-.458-.293-3.75.54-4.083 1.332-.333.792-.093 4.53.083 4.708.25.25.917.458 1.25.167.333-.292-.125-3.458.083-4.042.208-.583 2.625-.792 2.792-.917s.333-.957-.125-1.25zm4.333 17.75c.042-.21-.927-1.942-1.125-1.876-.125.042-.75.333-.792.458-.04.125 1.043 1.625 1.168 1.708s.71-.083.75-.29zm3.375-.376c.208-.167-1.875-2.833-2.083-3-.208-.167-.97.316-1 .5-.042.25 1.958 2.625 2.083 2.792s.792-.125 1-.292zm2-1.333c.083-.207-2.375-3.54-2.625-3.624s-.697.358-.667.542c.043.25 2.334 3.333 2.584 3.542.25.207.626-.25.71-.46zm1.25-2.25c.042-.25-2.75-3.832-3.083-3.957s-.667.708-.667.708c.083.334 3.5 3.75 3.5 3.75s.21-.25.25-.5zm-.416-2.166c.25.167.542-.292.583-.5.042-.208-2.333-2.958-2.5-3.125-.167-.168-.583.707-.583.707.125.125 2.25 2.75 2.5 2.917zm.916-2.625s.25-.25.208-.5c-.04-.25-2.832-3.418-3.082-3.46s-.333.543-.333.543c.208.124 3.208 3.416 3.208 3.416zm-.375-4.25c.167.04.042-.334 0-.71-.042-.374-1.792-1.79-2.125-1.874-.333-.083-.167.75-.167.75s2.126 1.79 2.292 1.833z" fill="#1D1D1B"/></svg>