<svg xmlns="http://www.w3.org/2000/svg" width="64" height="64" viewBox="0 0 64 64"><path d="M50.02 11.21C45.62 2.65 38.833-.25 31.496.018c-14.996.55-19.18 9.767-21.19 15.034-2.01 5.268-1.63 9.22.653 15.255s9.886 20.797 12.494 25.9S29.214 64 32.42 64c3.204 0 4.997-.713 7.442-3.292 2.445-2.58 8.91-14.76 12.17-23.54s2.39-17.396-2.01-25.957h-.002zm-.814 13.226c-.435-.055-.652 1.097-.598 1.317s3.26 4.06 3.26 4.5c0 .438-.163 2.523-.38 2.304-.217-.22-3.042-3.84-3.26-3.84-.217 0-.652.603-.49 1.096.164.494 3.206 4.06 3.206 4.61 0 .548-.543 3.182-.87 2.853-.325-.33-2.77-4.5-3.26-4.39-.488.11-.597.933-.542 1.152.054.22 3.368 4.226 3.26 4.83-.11.603-.543 1.59-.543 1.59s-3.1-4.445-3.425-4.445-.76.878-.652 1.098c.11.22 3.26 4.17 3.15 4.61-.108.44-.923 2.03-.923 2.03s-2.715-4.5-3.15-4.61-.978.825-.815.935c.163.11 3.368 4.445 3.205 4.774-.163.33-1.14 1.81-1.14 1.81s-3.152-4.28-3.37-4.28c-.216 0-1.03.933-1.03.933s3.367 4.06 3.26 4.554-.925 2.14-1.196 1.92c-.272-.22-3.26-4.554-3.586-4.554s-1.087.713-.978 1.098c.11.385 3.64 5.05 3.586 5.324-.054.275-1.195 2.03-1.195 2.03S37.745 48.8 37.42 48.8s-.978.768-.87.933c.11.165 3.478 4.83 3.424 5.158-.053.33-1.194 1.374-1.194 1.374s-3.205-4.5-3.423-4.554c-.217-.056-.76.712-.706.987.053.274 3.367 4.006 3.096 4.554-.272.55-1.14 1.154-1.304 1.21s-2.608-4.5-3.15-4.555c-.544-.055-1.142.44-.925.823.217.384 3.26 4.554 2.934 4.94-.326.383-1.576.273-1.576.273s-2.39-3.895-2.717-4.005c-.326-.11-1.087.33-.978.494.11.164 2.335 3.73 2.172 3.785-.162.055-3.15-.055-6.356-4.94-3.205-4.883-11.68-20.412-13.69-26.613s-1.305-11.687 1.63-17.23C16.716 5.89 24.54 1.72 31.548 1.664c4.51-.035 9.56.384 14.885 6.64 5.324 6.256 5.922 14.212 5.76 14.212s-1.577-2.305-1.902-2.305-.814.605-.65 1.044c.163.44 2.445 3.512 2.553 4.006.11.493.11 3.346-.054 3.29-.164-.053-2.5-4.06-2.934-4.114zm-31.24-14.432c-3.748 3.786-4.29 8.23-4.29 8.23s.597.44.977.33.11-.494 1.032-2.908c.924-2.414 2.988-4.664 2.988-4.664s-.36-1.337-.707-.988zm12.768-.823c-1.467.167-1.304 1.703-1.032 2.417.272.713-.054 5.213-3.477 6.036s-5.49-1.76-5.65-1.646c-3.042 2.14-2.282 9.383 1.14 14.542 3.424 5.157 11.464 5.815 16.57 2.962 5.108-2.853 8.368-8.834 5.108-16.79-3.26-7.958-11.192-7.684-12.66-7.52zM42.09 22.79c-.544 8.12-5.76 10.755-10.812 10.536-5.053-.22-7.17-3.896-8.095-5.872-.924-1.975-.815-6.2-.11-6.53.248-.115 3.804 1.043 7.172-1.81s3.314-5.872 3.966-6.092 8.424 1.646 7.88 9.768z"/></svg>