<svg xmlns="http://www.w3.org/2000/svg" width="64" height="64" viewBox="0 0 64 64"><path d="M45.095 4.292C39.19-.923 24.91-1.608 18.318 3.47s-8.17 14.203-8.308 18.663 1.118 40.424 1.465 40.896c.504.684 9.383 1.165 13.228.89 3.845-.274 3.845.07 4.325-1.715s.07-36.574.275-40.21c.206-3.637 3.296-5.558 5.287-5.078 1.99.48 2.884 3.43 1.648 5.833s-4.67 2.06-5.012 2.06-1.167 2.264-1.1 2.95c.07.687.55 13.862.756 14.548.206.686 1.03.892 2.54 1.03 1.51.136 5.973-.07 10.093-2.128s6.73-3.568 8.857-15.37C54.502 14.036 51 9.507 45.095 4.292zm1.533 14.41c.137.183 2.93 3.248 3.113 3.934.185.686-.18 3.34-.227 3.202-.046-.137-3.02-4.392-3.296-4.392-.275 0-.824.87-.55 1.19.276.32 3.48 4.482 3.48 4.62 0 .136-.732 2.606-.824 2.424-.092-.183-2.518-5.124-2.884-5.124-.367 0-.46.32-.46.686s3.02 5.26 2.93 5.49c-.092.228-.64 1.92-.64 1.92s-3.02-5.078-3.25-5.078-.96.503-.733.778c.23.274 3.433 5.307 3.34 5.49-.09.182-1.052 1.783-1.28 1.646-.23-.137-2.747-5.58-3.114-5.627-.366-.044-.778.414-.64.64.136.23 3.34 5.72 2.883 5.95-.458.23-1.282.87-1.465.685-.182-.183-2.562-4.85-3.02-4.986-.46-.138-.87.685-.595 1.005.275.32 3.112 4.666 2.655 4.85-.46.182-1.695.914-1.878.822-.183-.09-2.517-4.53-2.975-4.666-.458-.136-1.1.733-.778 1.053.32.32 3.385 3.843 2.927 4.07-.458.23-2.243.687-2.517.55s-1.92-3.843-2.288-4.07c-.366-.23-.87.456-.732.685.137.23 1.968 3.294 1.465 3.34-.503.045-3.067.09-3.158-.138s-.458-13.13-.23-13.22c.23-.092 5.402-.55 5.95-4.255.55-3.705-.274-5.58-2.608-6.542s-7.097-1.006-8.7 3.66-.182 21.73-.136 22.92c.046 1.188.092 1.692.092 1.692S24.06 40.29 23.83 40.29c-.23 0-.55 1.1-.365 1.283.183.183 3.25 4.53 3.25 4.85s.046 5.214-.092 5.214c-.137 0-4.348-8.966-4.623-8.92-.274.046-.457 1.098-.182 1.693.275.594 4.943 8.965 4.898 9.285-.046.32-.137 2.653-.275 2.607-.135-.046-4.94-10.11-5.353-9.973-.412.135-.687.64-.55.867.138.23 6.135 10.613 6.135 10.98 0 .365 0 2.56-.136 2.606-.137.046-.64.137-.687 0-.047-.137-5.4-10.293-5.86-10.156-.458.137-.87.457-.64.778.23.32 5.583 9.332 5.263 9.332s-1.006.183-1.19 0c-.182-.183-4.302-7.136-4.622-7.045-.32.09-.87.732-.457 1.144.412.412 4.44 5.9 4.12 5.9s-2.15.138-2.334 0c-.184-.136-2.61-4.62-2.885-4.62-.275 0-1.236.596-.64 1.19.594.595 2.745 3.477 2.516 3.477-.23 0-.594.366-.96 0s-2.472-3.02-2.472-3.02-1.236.687-.824 1.145c.413.456 2.06 1.692 1.695 1.692-.367 0-3.617.412-3.846.137 0 0-.732-29.92-.87-34.722s.32-12.81 3.8-17.11S23.97.127 33.947 2.23s12.404 5.17 14.19 8.966c1.784 3.797 1.418 4.3 1.28 4.21-.136-.093-1.83-1.968-2.06-1.785-.228.185-.457.78-.228 1.008.23.23 2.654 2.425 2.79 2.974.138.55 0 3.66-.182 3.478-.184-.183-2.473-3.66-2.702-3.568-.227.094-.547 1.01-.41 1.192l.002-.002zM19.52 9.164c-.618-.137-2.746.858-4.566 4.494s-1.236 7.255-1.1 7.548c.24.515 1.134.103 1.477-.07.345-.17.38-4.322 1.066-7.17S19.69 9.85 19.828 9.78c.138-.067.31-.48-.308-.616z" fill="#232021"/></svg>