<svg xmlns="http://www.w3.org/2000/svg" width="64" height="64" viewBox="0 0 64 64"><path d="M58.382 16.042c-1.25-2.88-4.866-7.887-8.884-10.767S37.802-.395 32.49.047C27.178.49 20.75 2.66 17.625 4.39c-3.125 1.727-7.053 6.07-8.973 8.196-1.92 2.127-4.687 6.558-5.446 11.165-.76 4.61.68 7.394 2.634 8.33 8.393 4.034 11.65-2.88 13.75-6.38 2.097-3.5 4.017-8.33 7.5-11.65s10.088-5.096 13.213-3.678 6.116 4.963 7.41 8.862c1.295 3.9.402 9.393-.49 12.318-.894 2.924-3.215 5.05-6.34 6.203-3.125 1.152-5.535.266-6.116-.133-.58-.4-.804-.886-.446-2.437.36-1.55 1.43-5.76-1.16-9.836s-8.17-3.058-10.98-.93-4.6 5.58-5.492 10.055c-.894 4.475 1.83 9.216 1.83 9.216s-.358.578-1.072 2.88c-.714 2.306-1.34 6.116-1.473 9.26-.134 3.148-.49 7.003 1.25 7.8 1.74.798 3.75.355 5.982-1.73 2.232-2.08 6.205-8.64 6.205-8.64s2.59.357 5.357.268c2.768-.09 5.357-.177 11.83-4.032S56.82 37 58.917 30.043s.715-11.12-.535-14zm-1.34 8.595c-.133-.266-1.16-1.95-1.517-1.64-.357.31-.357 1.463.134 2.128.49.665 1.25 1.506 1.25 1.728s-.225 2.038-.448 1.905-1.518-2.437-1.92-1.95c-.402.487-.402 1.152-.045 1.506s1.473 1.772 1.428 2.082c-.045.31-.714 2.836-.937 2.703-.224-.135-1.162-3.148-1.608-3.06-.446.09-.76.71-.58 1.24.18.534 1.562 2.88 1.518 3.37-.045.486-.58 1.417-.714 1.24-.134-.177-1.43-3.367-1.74-3.41-.314-.046-.76.574-.626 1.194s1.473 3.1 1.473 3.367c0 .267-.67 1.33-.803 1.24-.135-.087-1.52-3.144-1.742-3.144-.223 0-.848.354-.804.798.046.443 1.876 3.28 1.74 3.633-.132.355-1.025 1.64-1.16 1.418s-1.606-3.9-1.874-3.9-.715.444-.67.976c.044.533 1.874 3.723 1.785 3.856-.09.133-.67.753-.892.665-.223-.09-1.562-3.233-1.92-3.19-.357.045-1.027.8-.848.976.18.177 1.786 3.102 1.74 3.28-.044.176-.892.797-1.07.752s-1.74-3.5-2.143-3.546c-.4-.044-.98.354-.758.886.222.532 1.874 3.146 1.785 3.367-.09.222-1.16.975-1.295.798-.134-.177-2.143-4.21-2.366-4.21s-1.07.666-.893.976c.18.31 2.144 3.633 2.01 3.766s-1.295.665-1.473.532c-.18-.134-2.01-4.52-2.277-4.52s-1.027.354-.937.71c.09.354 2.098 4.518 2.098 4.518s-1.115.487-1.294.4c-.18-.09-2.278-5.584-2.5-5.584s-1.162.266-1.028.487c.134.222 2.455 5.273 2.455 5.405 0 .133-1.027.576-1.16.4s-2.68-5.938-2.903-5.983c-.223-.044-.76.443-.76.443s2.813 5.583 2.635 5.627c-.18.044-1.25.266-1.43.044s-2.59-6.336-2.857-6.38c-.268-.044-1.16 0-1.027.266.135.266 2.635 6.336 2.456 6.336-.178 0-1.026.088-1.204-.045s-2.59-6.646-2.902-6.868c-.313-.222-1.07.222-.937.355s2.99 6.47 2.678 6.47c-.312 0-1.963-.62-2.142-.8-.18-.176-2.054-5.626-2.545-5.76-.49-.132-1.205-.088-.893.444.313.532 2.41 4.962 2.277 5.05s-.624.488-.803.444c-.18-.044-2.187-3.412-2.545-3.456-.358-.044-.805.443-.626.753s2.277 3.722 2.277 3.988-.267.753-.445.532c-.18-.222-1.74-3.412-2.187-3.146-.445.266-.49 1.02-.356 1.373.134.355 1.92 2.79 1.786 3.323s-.313.71-.536.576-1.696-3.102-2.054-2.924c-.357.176-.848.974-.536 1.328.313.354 2.098 2.747 1.964 3.146-.134.4-.402.798-.49.665-.09-.134-1.25-2.394-1.474-2.35-.223.045-.714.887-.58 1.197.134.31 1.473 2.082 1.295 2.393-.18.31-.447.753-.58.665-.135-.09-1.25-1.595-1.52-1.595s-.803.665-.535 1.02c.268.353 1.473 1.86 1.384 2.08-.09.223-.67 1.02-.85.754-.178-.265-.936-1.64-1.16-1.594-.223.043-.67.752-.357 1.284s.892 1.152.713 1.55c-.18.4-1.25.843-1.34.666-.088-.177-.758-4.165.224-8.95.983-4.785 2.724-8.374 2.546-8.73-.18-.354-2.634-3.72-2.143-7.93.49-4.21 2.634-8.02 4.777-9.526s5.625-3.102 9.15-.044.626 10.545.626 10.944c0 .4.76 2.836 2.946 3.146 2.186.31 7.41 0 9.552-2.348s4.91-6.114 4.82-11.52c-.088-5.406-.98-9.703-3.66-12.76s-6.116-4.61-9.017-5.008c-2.902-.4-8.928.09-11.785 2.48-2.857 2.394-4.464 3.81-6.027 6.78-1.562 2.97-2.143 6.292-4.42 8.064-2.276 1.772-3.838 2.79-5.267 2.038-.95-.5-2.903-3.28-2.278-7.09s5.178-9.26 7.32-11.74c2.144-2.482 10.313-6.115 13.84-6.736s9.91-.487 14.553 1.506c4.644 1.994 7.545 3.677 9.376 6.47 1.83 2.79 3.527 5.803 4.018 7.62.49 1.817.625 2.26.49 2.26s-.58-.842-.98-.576c-.403.266-.76.93-.27 1.55.492.62 1.474.93 1.52 1.463.048.53-.04 2.88-.175 2.613l.002.004zm-44.863-10.5c-.85-.09-2.636 4.208-2.904 6.29-.268 2.083.45 2.95 1.027 2.837.67-.133.268-1.684.268-3.013 0-1.327.983-3.72 1.653-4.695s.803-1.33-.044-1.418zM24.364 27.25c-1.473.976-2.723 2.88-3.125 4.122s-.088 2.97.58 2.97c1.162 0 .626-2.615 1.697-4.432 1.07-1.817 3.08-1.86 3.348-1.86s.536-.31.49-.93c-.043-.622-1.516-.843-2.99.13zM47.088 6.34c-2.098-1.418-4.91-2.658-5.982-2.836-.66-.11-1.027.71-.268 1.108s4.464 1.595 6.428 3.59 3.125 4.43 3.75 4.43 1.07-.4.313-1.55c-.76-1.153-2.145-3.324-4.242-4.742z"/></svg>