<svg xmlns="http://www.w3.org/2000/svg" width="64" height="64" viewBox="0 0 64 64"><path d="M58.925 34.878c-.383-6.923-5.228-11.115-5.228-11.115s-1.466-7.43-2.168-10.29S43.24-1.96 31.574.263 16.403 7.63 13.343 12.837 11.75 25.54 11.75 25.54s-1.913 2.35-3.06 5.082-2.295 6.796-2.614 10.163c-.32 3.366.32 5.59 2.87 6.733s3.952-.254 3.952-.254c.638 1.334 3.698 3.43 3.698 3.43s-3.188 1.334-4.59 3.366c-1.403 2.033-.956 5.653 1.403 7.24 2.357 1.59 4.142 2.923 8.923 2.67 4.78-.255 9.88-2.986 9.88-2.986 1.212.445 4.846-.127 4.846-.127s1.912 1.207 5.035 1.715 6.63-.064 9.435-1.588c2.806-1.524 4.527-3.938 3.57-7.177s-3.888-4.002-3.888-4.002.128-.318.893-1.842.893-4.32.893-4.32.83.255 1.466.446c.638.19 1.53-.256 2.614-.828 1.082-.572 2.23-1.46 1.847-8.384zm-6.503 17.467c.7.89.638 4.002.128 3.938-.51-.064-2.55-4.383-2.805-5.08-.098-.268 1.976.253 2.677 1.142zm5.037-14.48c-.51-.763-6.058-10.926-6.63-10.862-.576.064-.83.254-.448.635s7.14 11.687 7.14 11.687-.51 1.397-1.148 1.905-1.275.572-1.275.572-5.29-8.83-5.61-8.83-.894.636-.575 1.27 5.355 7.496 4.91 7.56c-.447.063-1.977-1.78-2.424-1.59-.445.192-.7.573-.7.573s-2.23-4.7-2.74-4.7-.766.254-.64.445c.13.19 3.125 5.526 3.125 5.526s.064 2.604-.255 2.414c-.318-.19-2.74-5.716-3.187-5.716-.446 0-.765.89-.574 1.143.19.254 3.313 5.97 3.313 5.97s-.383 2.35-.638 2.034-3.378-5.4-3.378-5.4-.51 1.08-.255 1.398c.255.318 3.25 5.08 3.25 5.08l-.254.446-.894-.19 4.59 8.32s-.574.7-.83.508c-.254-.19-6.884-11.24-7.14-11.24s-.382.698-.382.698l6.694 10.988s-1.02 1.016-1.34.572-6.374-10.226-6.63-10.226c-.254 0-1.147.254-.828.572s6.375 10.036 6.375 10.036-1.21.762-1.785.254c-.574-.508-5.228-8.892-5.483-8.892s-.765.572-.765.572 5.29 8.51 5.036 8.51-1.913-.317-1.913-.317-4.59-7.686-4.91-7.75c-.318-.064-.955-.064-.764.19.19.254 4.526 7.43 4.526 7.43s-.765.38-1.34-.19c-.573-.572-4.015-6.733-4.27-6.733s-.956.064-.638.635c.318.573 3.697 5.527 3.314 5.527s-1.53-.255-1.976-.636c-.446-.38-2.614-4.32-2.933-4.32s-1.21.255-.7.827c.51.57 1.593 2.54 1.402 2.54-.19 0-.51.38-.83-.063s-1.338-2.16-1.657-2.16-1.21.064-.765.572c.446.507 1.084 1.777 1.084 1.777s-1.212.127-2.68.572c-1.465.444-4.844 2.857-9.562 3.05s-6.63-1.78-7.33-3.368c-.702-1.587.828-4.064 2.04-4.826s2.613-.826 3.314-.635c.7.19.955.318 1.274.19.32-.126.574-.57.128-.89-.446-.316-3.315-2.856-4.335-4.635-1.02-1.778-1.02-4.764-2.295-4.383-.33.1-1.658 2.542-2.423 2.605-.766.064-2.424.7-3.06-1.397-.634-2.097-.315-5.845 1.407-10.164s3.825-8.003 3.825-8.003-1.084-6.478.83-10.352S18.76 6.364 22.84 4.33 35.335-.052 42.03 3.76s8.478 11.052 8.478 11.052-.955-1.207-1.402-.826c-.446.382-.255.7-.064.763.19.064 1.913 2.414 2.168 3.366s.446 2.032.446 2.032-2.23-3.176-2.55-2.922-.7.89-.51.953 3.38 4.002 3.38 4.002l.127 2.16s-2.805-3.81-2.933-3.62-.255 1.016.064 1.397 2.23 2.985 2.678 3.112c.446.127 1.976 0 3.124 2.096s1.594 4.446 1.21 4.192c-.382-.254-2.613-5.653-3.314-5.526-.7.126-.19 1.015-.19 1.015l4.143 6.796c-.002 0 1.082 4.83.572 4.067l.002-.002zm-8.226-8.174c0 .193.595 1.548 1.063 2.31.467.76 4.44 7.728 4.59 7.876s.616.148.66-.085c.042-.232-.723-1.25-1.51-2.773-.786-1.524-4.045-7.404-4.165-7.558-.15-.19-.638.042-.638.232zm-9.18-2.687c-.34-.212-1.232.826-1.72.762-.49-.064-1.29-1.165-1.68-1.143-1.17.065-.7 1.038-.32 1.462.384.423 2.36 1.186 3.21.53.85-.657.85-1.398.51-1.61zm-3.528-12.3c-1.424.825-2.89 2.39-3.103 4.53-.212 2.138.517 4.36 1.487 5.61 1.234 1.59 3.167 1.44 4.124 1.23.956-.213 2.274-1.674 2.72-3.98.446-2.31.36-5.188-.765-6.437-1.128-1.25-3.04-1.78-4.464-.954zm2.72 9.78c-1.02.636-2.02.72-3.124-.36-1.105-1.08-1.445-3.302-1.062-5.313.383-2.012 1.552-2.542 1.977-2.796 1.303-.78 3.21.423 3.485 2.244.276 1.82-.255 5.59-1.276 6.225zM28.07 14.85c-1.976.295-3.08 1.63-3.868 3.048-.786 1.42-1.04 4.192-.51 5.822s2.083 3.112 3.103 3.345 2.848.38 3.953-1.1c1.105-1.483 1.445-5.273 1.063-7.835s-2.48-3.47-3.74-3.28zm1.445 10.268c-.893.805-2.04.995-3.103.233s-1.53-2.496-1.68-3.576c-.148-1.08.68-3.388 1.15-4.023.466-.634 1.083-1.396 2.25-1.587.38-.062 2.466.55 2.508 2.774.043 2.223-.233 5.377-1.125 6.18zm-1.148-5.844c-.83.106-1.466 1.143-1.38 1.694.084.55.637 1.757 1.53 1.503.892-.252 1.87-1.057 1.614-1.946-.253-.89-.847-1.365-1.762-1.25zm9.2-.423c-2.04.17-1.848 1.357-1.933 2.225s.53.995.935.826c.402-.17.19-1.25.742-1.523.553-.275 1.063.593 1.38.805.32.213 1.02-.232.83-.677s-.938-1.736-1.955-1.652v-.002zm-15.17-9.59c-.49-.02-2.296 1.25-3.74 3.346-1.446 2.096-2.17 4.912-2.296 6.5-.126 1.588.504 1.855.725 1.99.276.17.595.212.744-.042.15-.254.127-2.435 1.232-6.013 1.106-3.577 3.656-4.19 4.04-4.87.38-.676-.215-.89-.705-.91zm17.21-1.227c.575.254 1.488.127 1.595-.36.106-.487-.977-2.392-4.293-2.562-3.317-.17-4.318 1.207-4.4 1.483-.128.423.19 1.186.83.995.636-.19 1.103-1.08 2.845-1.122 1.744-.042 2.85 1.313 3.422 1.567zm-26.15 24.702c-.384-.048-2.726 2.048-3.444 4.383-.717 2.334-.476 5.056-.398 5.13.255.237.813.332 1.068 0 .255-.334.08-2.35.653-4.32.574-1.97 1.626-2.89 2.31-3.86.686-.968.192-1.286-.19-1.333z"/></svg>