<svg xmlns="http://www.w3.org/2000/svg" width="64" height="64" viewBox="0 0 64 64"><path d="M15.566 39.357c1.472-2.918 2.134-11.088 2.06-15.32-.073-4.23.074-10.94-3.826-11.598s-5.813.873-9.197 3.79S-.474 26.15.115 30.82s2.825 10.595 5.003 12.4c3.606 2.99 8.977-.947 10.448-3.863zM8.282 40.45c-1.695-.425-5.15-3.427-5.96-7.585s-.367-12.037 2.355-15.173 7.8-5.106 9.565-3.866c1.766 1.24 2.28 9.556 1.766 14.15-.515 4.597-2.796 13.715-7.726 12.475zm33.404 2.262c2.796-3.793 5.077-12.255 5.15-18.6.074-6.347-2.134-9.85-2.65-10.286-.514-.438-1.323-.73-4.193 0-2.87.73-6.77 4.304-6.77 4.304s-.367-.73-2.868-3.283-6.523-3.343-7.652-2.553c-1.25.875-1.913 2.407-1.987 3.72s.736 9.045 1.398 14.59 1.398 6.564 3.385 8.97c1.985 2.408 4.93 3.575 4.93 3.575.807 2.04 3.015 4.52 3.97 4.812.957.293 4.49-1.458 7.286-5.25zm-13.39-11.525c.588 3.94 2.72 9.337 2.206 9.41-.515.073-4.267-1.824-5.592-4.596-1.324-2.77-2.06-12.034-2.502-13.93-.44-1.898-.81-7.223.883-8.025.57-.27 4.417.948 6.477 2.626s2.06 3.284 2.06 3.284-4.12 7.295-3.53 11.233zm4.12 8.097c-.442-.146-.737-7.805-.442-10.285s1.84-4.816 2.428-5.4c.42-.416 1.62 3.793.368 9.337s-1.913 6.49-2.354 6.347zm3.163 5.252c-1.84-.948-2.577-2.407-2.21-3.137s3.606-7.297 3.386-11.746c-.22-4.45-2.354-10.285-2.06-10.723.37-.55 6.107-4.96 8.167-3.792s4.194 9.628 1.03 17.944c-3.165 8.315-6.476 12.4-8.315 11.452v.002zm23.616-26.042c-3.532-4.814-8.495-4.775-9.712-4.74-2.65.072-1.472 15.026-1.472 17.725s1.398 5.542 3.973 8.824c2.575 3.283 5.37 4.304 6.695 4.45s3.606-2.188 4.93-9.92c1.326-7.733-.88-11.527-4.414-16.34zm2.82 17.556c-.294 1.605-1.324 5.155-1.864 5.106-.54-.05-4.807-6.614-5.297-6.42-.49.196-.932.44-.44.925.49.488 4.953 6.178 4.757 6.373-.196.195-1.472-.05-2.65-.827-1.176-.778-4.316-4.814-5.1-6.42-.785-1.604-.637-10.746-.687-12.546s-.245-7.052 0-7.32c.247-.27 5.543 1.63 7.946 4.985 2.405 3.356 3.04 5.933 2.7 5.593-.344-.34-3.58-5.787-4.12-5.64-.54.145-.44.777-.246 1.118.196.34 3.434 5.738 3.826 5.884.394.146.835.05.835.05s.687 4.376.343 4.28c-.343-.098-4.954-7.83-5.69-8.025s-1.226-.34-.687.632c.54.973 5.103 7.975 5.495 8.17.393.195.785-.146.785-.146s.392 2.626.097 4.23zm-6.23-8.9c-.392.05-.784.438-.784.73 0 .29 5.445 7.488 5.74 7.73.293.244.44-.193.588-.583.148-.388-5.15-7.925-5.542-7.877h-.002zm-.244 4.134c-.54-.05-1.08.438-.883.778.195.34 4.904 6.954 5.346 7.15.44.193.49.048.44-.633-.048-.683-4.24-7.237-4.904-7.296zm-2.65 12.692c-1.912-1.556-4.315-4.67-5.05-6.322-.737-1.653-1.5-1.524-1.865-1.313-.59.34-1.03 3.21-2.452 5.935-1.422 2.723-4.415 4.425-5.15 4.814-.736.39-.147 1.46.687 2.187.834.73 2.158 1.945 4.758 2.48s5.79.146 7.996-.778c2.207-.925 3.875-2.335 3.728-3.648-.15-1.31-.737-1.797-2.65-3.354l-.002-.002zm-1.127 4.377c-.59.243-2.452.875-2.894.486-.44-.39-2.01-4.38-2.55-4.38s-1.08.293-.687.876c.392.584 1.864 3.404 1.472 3.453-.393.05-.932.194-1.03-.196s-1.226-2.772-1.815-2.772c-.588 0-1.03.05-.784.486.245.437 1.08 2.285.49 2.236-.588-.05-3.825-.292-3.63-1.02.197-.73 2.208-1.265 3.63-3.405 1.423-2.14 2.306-3.745 2.306-3.745.44-.243 2.55 3.307 3.336 4.036.785.73 1.668 1.217 1.52 1.46s-.196.535.05.827c.244.293 1.176 1.412.588 1.655zm1.373-.632c-.246-.047-.492-1.262-.492-1.262.54.05.59.195.834.68.246.487-.098.633-.342.583zm-5.495-3.013c.05.146 1.324 3.307 1.864 3.696.54.39.98 0 1.078-.34S49.85 45.973 49.21 45c-.635-.974-1.677-.62-1.57-.293h.003zm-21.68-1.12c-.932-.68-2.06-.923-4.17-2.868-2.108-1.946-2.656-4.984-2.99-5.06-1.522-.34-1.865 3.648-3.09 6.08-1.227 2.43-3.827 3.453-4.318 3.55-.49.097-1.52.827-1.57 1.75s1.815 1.703 7.7 2.14c5.887.44 7.555-1.555 8.78-2.82 1.228-1.264.59-2.09-.342-2.773zm-4.415-.728c-.637.05-1.08.05-.932.437.147.39 1.422 2.383.883 2.577-.54.195-.54.34-.736 0-.196-.34-1.717-3.112-2.207-2.918-.49.195-.59.535-.245.875.343.34 1.472 2.287 1.08 2.433-.393.146-.982.292-1.08 0s-1.275-2.723-1.815-2.53c-.54.195-.932.34-.687.633.246.292 1.473 1.702.884 1.75-.59.05-3.286.196-3.237-.534.047-.69 3.188-2.576 3.924-4.035.738-1.46.983-2.918 1.277-2.87.294.05 1.275 2.676 2.158 3.308.883.632 1.374.826.736.875h-.002zm1.276 2.674c-.294-.146-.59-1.945-.59-1.945.393 0 1.816 1.07 2.16 1.07.343 0-1.276 1.02-1.57.874zM11.74 16.257c-.687-.39-2.894 0-5.248 2.432-2.354 2.43-2.657 5.18-2.354 5.736.343.632 1.422.39 1.668 0 .245-.39-.196-1.46 1.177-3.745 1.374-2.285 3.826-3.014 4.61-3.257.785-.243.834-.778.147-1.166z"/></svg>