<svg xmlns="http://www.w3.org/2000/svg" width="64" height="64" viewBox="0 0 64 64"><path d="M60.223 29.784c-2.365-1.614-7.935 1.92-7.935 1.92l-6.56-12.754s6.103-2.612 6.255-2.997c.153-.384 1.83-2.843 1.22-6.377s-2.898-5.84-5.034-5.763c-2.138.077-7.937 2.843-7.937 2.843s-.23-.692-1.755-3.534-4.502-4.457-8.928-1.69.61 9.374.687 9.68c.075.308-12.437 5.84-12.437 5.84s-1.907-5.147-4.12-6.99-6.637-.232-8.01 2.688 2.364 8.76 2.364 8.76c-2.594 1.382-6.714 3.15-7.02 7.53s3.286 7.22 4.66 7.374 6.41-1.69 6.713-1.69 4.73 10.527 4.73 10.527-2.06.846-3.433 2-2.9 2.535-3.128 5.454c-.23 2.92 1.144 7.76 4.578 8.222 3.433.46 7.172-1.998 7.172-1.998s1.907 3.226 3.51 4.532c1.602 1.306 6.332.615 9.537-2.15s0-7.838 0-7.838.763-.307 3.357-1.537c2.593-1.23 6.713-2.69 6.713-2.69s1.45 2.23 2.823 3.074c1.373.845 4.807.922 7.706-1.614 2.9-2.536 1.297-6.3 1.297-6.3s5.72-1.69 6.56-6.07c.84-4.38-1.223-6.84-3.587-8.452zm1.755 6.532c-.458.23-2.976-2.46-3.357-2.46s-1.142.846-.532 1.154 3.357 2.075 3.357 2.536-.38 1.614-.84 1.537c-.457-.077-3.356-2.92-3.66-2.92s-1.07.538-.764.922c.306.384 3.358 2.612 3.053 2.69-.305.076-1.297.46-1.297.46s-2.747-2.075-3.128-2.15c-.38-.078-1.068.383-.84.614.23.23 2.9 1.996 2.9 1.996l-1.83.768s1.143 2.382.838 2.69c-.305.306-2.823-2.152-3.433-2.152s-1.068.922-.763 1.153 4.12 2.612 4.12 3.15-.46 1.153-.46 1.153-3.356-2.767-3.66-2.767-.535.923-.535.923 3.357 2.382 3.357 2.766c0 .384-.153.845-.38.77s-3.51-2.768-3.74-2.768c-.228 0-.838.692-.762.922s3.357 2.536 3.128 2.612c-.23.077-2.136 1-3.433 0s-3.128-4.61-3.433-4.764-1.755.307-1.755.307-2.06-2.613-2.44-2.767-1.07.384-.84.615 2.365 2.227 2.136 2.535-1.907.615-1.907.615-2.29-2.15-2.67-2.15-.763.767-.763.767 2.29 1.844 2.06 1.92l-1.602.54s-1.83-1.768-2.134-1.69c-.305.076-.84.537-.61.69s1.678 1.768 1.678 1.768-4.73 2.075-4.654 2.612 2.593 4.15 2.135 5.763c-.458 1.614-2.365 4.764-5.264 3.765s-4.88-5.302-5.262-5.61c-.38-.306-4.96 3.843-8.545 1.845-3.586-1.998-3.433-5.455-2.136-7.453s5.646-2.997 5.646-3.61c0-.616-5.264-13.063-5.798-13.14s-6.714 3.304-9.003.154-1.983-6.147.61-7.914c2.595-1.767 4.274-2.228 4.274-2.228s1.068-.385.23-2c-.84-1.613-4.35-7.298-.382-9.22s5.95 2.076 7.095 4.995 1.22 2.612 2.29 1.998c1.066-.614 14.8-5.38 14.57-6.146-.23-.768-4.73-6.07-3.128-8.606C31.314.972 35.052.28 36.807 2.97s2.29 5.916 2.823 5.84 5.264-3.688 8.47-3.073c3.203.614 4.5 5.84 3.203 7.068-1.296 1.23-7.78 3.765-7.78 4.303 0 .54 8.01 16.444 8.468 16.367.46-.077 4.73-3.073 7.096-2.536 2.36.534 3.353 5.144 2.895 5.375h-.002zm-55.695-9.99c-.84.078-1.373.693-1.373 2.076s.84 2.46.84 2.46c.533.153 1.143-.232 1.45-.385s0-.845-.382-1.614.38-1.537.61-1.844c.228-.31-.306-.77-1.145-.694zm5.035-13.83c-.534-.23-2.06.307-2.365 1.46s.23 2.766.23 2.766c.686.23.915 0 1.143-.23.23-.232-.076-.385-.23-1.077-.154-.692 1.527-1.69 1.527-1.69s.23-.998-.305-1.23zm11.514 16.75c-.096.484 4.716 11.243 5.197 11.824.48.58 13.28-4.653 13.76-5.622.48-.97-5.1-11.825-5.39-12.116-.29-.29-13.57 5.913-13.57 5.913h.002zm17.326 5.84c-.38.768-10.53 4.918-10.91 4.457-.38-.46-4.196-8.99-4.12-9.374 0 0 10.53-4.92 10.758-4.69.228.23 4.653 8.837 4.272 9.606z"/></svg>