<svg xmlns="http://www.w3.org/2000/svg" width="64" height="64" viewBox="0 0 64 64"><path d="M63.777 34.81c-.257-1.49-1.457-2.673-1.457-2.673s-.137-.206-.53-1.165c-.395-.96-1.046-2.04-2.417-3.29-1.37-1.25-5.415-2.314-5.415-2.314s.188-.137.274-.463.086-1.217.07-2.742c-.018-1.525-.806-4.13-2.434-5.45-1.628-1.32-5.124-3.41-9.888-3.685-4.764-.274-8.283 1.477-9.442 2.434-.685.566-1.782 2.605-1.782 4.884s.617 8.723.737 12.1 0 8.74-.12 11.55.257 4.61.53 4.816c.275.206.686.326 3.668.394 2.984.07 6.034.41 10.164.394 4.13-.017 7.677-.428 10.282-1.08 2.605-.65 4.935-2.776 6.666-5.5 1.73-2.726 1.354-6.72 1.097-8.21h-.003zm-2.88 4.096c-.136-.137-2.295-5.33-2.5-5.5-.207-.172-1.32.068-1.115.393.206.324 3.136 5.773 3.153 6.082s-.548 1.422-.668 1.234-3.89-7.763-4.13-8.226c-.24-.462-.65-.6-.89-.48s-.19.447-.12.567c.068.12 3.838 7.558 4.043 7.986.206.428.428.925.36 1.148s-1.714.86-1.954.585-4.267-10.145-4.54-10.248c-.275-.103-.926.24-.943.36-.017.12 4.952 9.665 4.867 9.87-.086.207-3.204.755-3.393.55-.188-.207-1.2-2.743-1.782-4.765-.583-2.02-1.885-5.397-2.57-5.45s-.65.567-.548.738c.103.17 1.32 2.142 2.16 4.713.84 2.572 1.713 4.457 1.764 4.714.053.257-.152.308-.375.377-.223.07-1.25.395-1.714-.085-.462-.48-2.552-5.81-3.46-7.764-.91-1.954-1.046-2.416-1.543-2.365-.497.05-.737.24-.617.806.12.566 2.946 5.878 3.392 6.923.446 1.044 1.08 2.38.942 2.587-.137.206-1.148.326-1.405.19-.26-.138-3.72-7.32-4.166-7.987s-.65-.874-1.08-.497c-.428.376.103.942.583 1.798.48.858 3.102 5.793 3.29 6.188.188.394.223.754-.034.737-.257-.017-1.542.19-1.696-.034-.154-.222-3-7.23-3.273-7.317s-.788.257-.737.754 1.92 4.353 2.416 5.398c.497 1.045.703 1.302.565 1.354-.138.05-1.166.205-1.39-.155-.222-.36-3.084-6.495-3.238-6.632s-.84-.034-.685.703c.154.737 3.29 5.93 3.187 6.067s-2.073.103-2.245.034c-.172-.07-1.852-4.096-2.177-4.113-.326-.016-.874.498-.823.635.05.136 2.04 3.495 1.782 3.495s-1.44-.085-1.51-.153c-.07-.07-1.113-2.416-1.387-2.416s-.77.515-.703.806c.07.29.994 1.68.84 1.782-.154.103-1.782.19-1.816.05-.034-.136-.17-9.373-.206-12.818s-.736-8.79-.684-10.488c.05-1.697.308-2.434.668-3 .79-1.24 1.525-2.33 4.935-2.93s7.265-.376 9.664.635c2.4 1.01 4.54 2.21 4.936 4.42s.564 3.583.24 4.594c-.327 1.012-.772 1.663-.498 1.972.274.307.908.445 1.08.36.17-.087.41-.567 2.485.36 2.073.924 3.753 1.78 4.644 3.58.892 1.8.892 2.23.926 2.45.034.225.017 1.56-.05 1.356-.07-.207-.686-1.51-.978-1.44s-.874.48-.737.616c.138.137 1.783 3.085 1.783 3.393s-.187 1.643-.324 1.506v-.004zM5.154 33.37c-1.217-.016-2.637.695-3.393 1.32C-.124 36.25-.21 42.23.2 44.1s2.554 4.54 3.497 5.312 2.245.617 2.673.463.514-13.985.41-15.287c-.102-1.303-.41-1.2-1.627-1.217zm-.48 13.025c-.12.086-.823-.41-1.61-1.13S1.572 43.052 1.4 41.7s.07-3.376.36-4.49c.29-1.114 1.645-2.708 2.52-2.982.212-.067.307 1.988.273 3.205s.24 8.876.12 8.962zm8.072-22.33c-1.457.48-3.05 2.348-3.393 3.72-.343 1.37.05 3.855.086 4.112.033.257-1.25.933-1.25 1.217 0 .343.1 1.49.24 5.158.135 3.667.067 8.79.22 9.203.155.41 1.44 1.988 1.87 2.108s4.9.017 5.07-.29c.17-.31-.102-22.074-.187-23.222-.087-1.147-1.2-2.484-2.657-2.005zm.102 22.382c-.086.154-2.348.446-2.57.274-.223-.17-.308-6.87-.428-9.22-.12-2.346-.378-3.922-.327-4.162.046-.215.308-.428.805-.36s1.097-.137.925-.6c-.17-.463-.823-1.354-.668-3.068.154-1.715 1.97-3.497 2.193-3.29.223.205.086 7.865.12 9.46.035 1.592.035 10.812-.05 10.967zM30.652 35.41c-.017-2.262-.29-11.276-.394-11.79s-3.12-1.954-3.513-2.125c-.394-.17-1.61.908-1.97.77s-1.715-1.456-2.28-1.78-5.267.833-5.33 1.13c-.068.326-.068 7.266-.05 9.683s-.137 14.464 0 14.807 2.4 3.188 2.605 3.24c.206.05 4.867-.035 4.952-.104.086-.067.017-22.516.017-22.516s.084-.19.22-.017.31 7.318.327 8.81c.017 1.49-.086 10.64.034 10.83.12.19.755 2.468 1.08 2.69s4.234.31 4.44.12 0-1.37-.018-2.535c-.018-1.167-.104-8.948-.12-11.21v-.002zm-8.91 9.786c-.155.137-2.93.17-3.154.017-.223-.154-.206-21.97-.17-22.364.02-.248 2.86-.91 3.152-.653.29.256.325 22.86.17 22.998h.002zm6.905.685c-.07.088-1.92.053-2.022-.05s0-11.293-.086-14.53-.55-7.85-.48-8.02c.1-.25 2.123-.104 2.14 1.627.017 1.73.53 11.688.514 15.184-.016 3.496 0 5.706-.068 5.79zm14.99-29.646c-1.783-.548-4.594.388-5.462.754-.868.366-1.478.705-1.485 1.028-.023 1.05.914.663 1.668.526.754-.136 2.4-1.21 4.98-.844 2.583.366 3.565 2.148 3.93 2.514.366.366 1.075.16 1.212-.297s-.228-1.028-.937-1.737c-.71-.71-2.125-1.394-3.906-1.944zm12.04 12.614c-1.005-.388-1.302.868-1.074 1.028s.662.09 1.302.64c.64.548.982 1.302 1.394 1.577.41.274 1.21.046 1.255-.548.045-.595-1.874-2.31-2.88-2.697h.002z"/></svg>