<svg xmlns="http://www.w3.org/2000/svg" width="64" height="64" viewBox="0 0 64 64"><path d="M41.543 29.73c.752-.09 4.51-5.158 4.865-5.96.354-.8.442-4.135 0-5.913-.442-1.78-1.504-5.648-4.29-7.916-2.786-2.266-6.68-2.31-13.27-1.332s-9.066 3.602-11.19 6.982-1.857 7.96-1.945 10.983c-.088 3.024 1.24 11.918 1.062 13.92-.177 2-1.68 2.8-3.848 2.756-2.167-.046-2.83-1.558-3.052-2.49s-.088-5.427-.486-6.14c-.4-.71-1.816-.4-3.054-.355-1.24.044-5.56.227-5.97.578-.576.49-.31 2.312-.266 5.737.045 3.425 1.24 7.65 3.01 9.962 1.768 2.312 4.953 5.114 8.756 5.38 3.804.268 6.68-.088 11.102-2.09 4.423-2 5.838-5.424 6.37-10.138.53-4.714-.974-20.634-.753-22.235s4.158-2.448 5.22-1.603c1.06.845.928 5.07.972 5.692.044.622 1.15 1.69 2.565 2.49 1.414.8 3.45 1.78 4.2 1.69zm-6.635-11.207c-1.725-1.245-3.892-1.467-5.882-.667s-2.52 2.357-2.654 4.136c-.133 1.78 0 5.425 0 5.425s-1.637-3.47-2.08-3.47c-.44 0-.884.18-.795.357.09.178 3.096 5.025 3.14 5.336.044.31.265 3.024.044 2.89-.22-.133-2.563-5.158-3.006-5.247-.442-.09-.93.578-.663.756.266.176 3.628 6.224 3.67 6.402.046.178 0 2.4 0 2.4s-2.563-5.47-2.873-5.558c-.31-.09-.973.31-.796.667.178.357 3.76 7.427 3.76 7.427l-.043 2.668s-3.23-7.426-3.45-7.426-.84.577-.708 1.11c.132.535 4.112 7.917 4.07 8.183-.046.267-.223 1.69-.444 1.467-.22-.22-3.008-6.803-3.406-6.803-.4 0-.93.49-.84.845.087.356 3.45 6.404 3.45 6.715 0 .31-.71 1.245-.886 1.112-.177-.135-2.92-5.74-3.14-5.783-.22-.044-.752.4-.62.845.134.445 3.01 5.425 2.964 5.737-.044.31-.93.977-1.106.844-.177-.133-2.21-4.847-2.654-4.936-.442-.09-.84.577-.885.8-.044.22 2.432 4.535 2.344 4.802s-.486.49-.752.356c-.265-.133-1.902-4.09-2.3-4.18-.398-.09-.84.4-.885.712-.044.31 2.034 3.78 1.946 3.958-.088.178-.708.534-.93.356-.22-.178-1.9-3.47-2.21-3.513-.31-.044-.796.49-.796.71s1.902 3.203 1.813 3.336c-.088.133-.708.8-1.017.445-.31-.355-1.858-3.423-2.256-3.512-.398-.09-.973.533-.973.533s2.035 2.936 1.99 3.07c-.044.133-1.24.31-1.37.09-.134-.223-2.035-3.603-2.39-3.736-.353-.133-.884.044-.928.31-.046.268 2.254 3.203 2.12 3.292-.132.09-1.016.133-1.237-.133-.22-.267-1.858-3.024-2.123-3.068-.264-.044-.928.4-.928.4s1.327 2.223 1.15 2.268c-.177.044-2.21-.267-4.423-2.98-2.213-2.712-2.788-4.535-3.23-6.67-.443-2.134-.443-4.935-.266-5.47.13-.388 6.723-.577 6.944-.177.22.4-.443 5.47.928 7.293 1.37 1.822 3.23 2 4.954 1.466 1.725-.534 3.892-1.645 4.025-4.27.133-2.623-.885-8.715-1.15-11.606-.265-2.89-.22-7.56.752-10.316.972-2.757 2.476-5.47 5.44-6.76 2.962-1.29 9.243-2.356 12.383-2.178s5.308 1.067 5.352 1.334-.84.667-.575.89c.265.22 1.327 1.378 2.08 2.712.75 1.334 1.326 2.846 1.547 2.757.22-.09.265-.27.22-.447-.043-.178-.884-2.89-1.326-3.735 0 0 1.682 2.267 2.036 4.58.354 2.31.265 3.646.044 3.38-.22-.268-3.98-7.783-4.51-7.783-.532 0-.753.356-.62 1.112.133.755 4.91 7.737 4.954 7.96.044.22-.53.977-.663.8-.133-.18-2.83-5.115-3.67-6.05-.84-.933-1.638-.755-1.68-.533-.046.222 1.99 2.624 2.52 3.735.53 1.11 1.945 3.156 1.99 3.557.043.4-.62 1.467-.84 1.156-.22-.31-3.14-6.003-3.628-6.18-.486-.18-.62.22-.575.444.044.222 3.627 6.404 3.54 6.582-.09.177-.4.755-.71.577-.31-.178-.662-.445-.662-.445S37.96 20.88 37.74 20.88s-.93.4-.752.668c.177.267 1.858 3.335 1.725 3.424-.133.09-2.344-.712-2.52-.845-.18-.134.44-4.358-1.285-5.604zM2.974 37.957c-.088.356 0 3.958.088 4.758.09.8.663 1.512 1.283 1.38.62-.134-.09-4.715-.09-4.893s.84.178 1.328-.133c.487-.313.354-.536.09-.847-.266-.312-2.54-.91-2.7-.266zM25.134 14.7c-.355-.312-1.328-.134-2.61.71-1.283.845-2.61 2.09-3.494 4.803-.885 2.713-.312 5.13-.044 5.292.663.4.93-.178 1.194-.578.265-.4-.088-3.335.796-5.737.885-2.4 3.362-3.157 4.025-3.558.665-.4.488-.622.134-.932zm38.48 16.942c-.266-.356-9.112-.133-9.82.133-.708.267-.442 1.112-.265 2.312s.31 4.625-.577 5.56c-.885.933-3.538 1.155-5.175.043s-1.55-7.337-1.55-7.515c0-.178-.087-1.245-.662-1.334-.575-.087-4.246 3.515-4.51 3.78-.266.27-2.08-1.02-2.566-1.29-.486-.265-2.333-1.47-2.61-1.065-.485.712.09 5.07.71 9.56.618 4.492 1.282 5.782 3.67 8.54 2.388 2.756 6.546 3.334 8.846 3.29s5.44.356 9.465-2.89c4.026-3.247 4.778-6.227 5.22-9.562.44-3.334.087-9.204-.18-9.56h.004zm-1.814 6.67c-.044-.178-2.212-4.892-2.698-4.536s-.708.578-.486.89c.22.31 2.742 4.935 2.742 5.602s-.133 1.512-.354 1.29c-.22-.222-2.256-5.692-2.92-5.247-.662.447-.353 1.29-.31 1.47.045.177 2.478 4.67 2.434 5.202-.044.535-.53 1.87-.663 1.646-.133-.222-2.212-4.892-2.654-4.625-.44.268-.75.223-.66.624.087.4 2.564 4.758 2.564 5.025 0 .266-.885 1.155-1.062 1.066-.176-.09-2.43-5.07-2.785-4.98-.354.088-.885.31-.796.755.09.446 2.654 4.893 2.565 5.026-.088.132-1.017.933-1.24.71-.22-.22-2.078-4.714-2.476-4.714-.4 0-.886.356-.886.534s2.21 4.58 2.034 4.714c-.177.134-.93.4-1.062.268-.133-.133-2.388-4.936-2.698-4.936-.31 0-.885.133-.796.445.09.31 2.433 4.403 2.168 4.537s-1.283.49-1.548.133c-.265-.356-1.902-4.49-2.344-4.58-.442-.09-.796.178-.752.4.044.222 2.123 4.225 1.902 4.358-.22.133-1.194.31-1.327.09-.133-.223-2.256-3.914-2.52-3.914s-.753.578-.71.712c.045.133 1.903 2.935 1.505 2.98-.398.043-3.583-1.335-5.44-3.07-1.858-1.733-3.008-5.024-3.406-11.783-.017-.267 3.23 1.822 3.98 1.644.752-.178 3.273-2.935 3.583-2.802.31.133-.133 5.514 1.415 7.16s3.23 1.957 5.308 1.467c2.08-.49 3.76-1.824 3.804-3.38.043-1.557-.31-4.58-.045-4.893.265-.31 5.794-.757 6.236-.4.445.356.445 5.292.4 5.114v-.002zm-16.72 3.07c-.84-.8-.75-2.09-.884-2.714-.133-.623-1.238-.578-1.37-.09-.4 1.468.618 3.47 1.547 4.137.93.667 1.548.534 1.725.178s-.177-.712-1.017-1.512v.002z"/></svg>