<svg xmlns="http://www.w3.org/2000/svg" width="64" height="64" viewBox="0 0 64 64"><path d="M58.33 11.936c-1.243-6.104-5.947-5.014-5.947-5.014s.757-7.03-6.974-6.92c-7.733.108-7.68 6.7-7.68 6.7h-4c-3.083 0-9.083.055-9.083.055s.594-5.45-6.705-5.34c-7.298.108-7.352 6.648-7.352 6.648s-3.784.22-6.542 1.31c-1.89.747-.76 16.007-.215 25.722.65 11.554 0 22.126.54 24.633.542 2.508 4.11 3.925 8.002 4.143 2.7.15 11.245.163 19.733.054 8.488-.11 16.165-.218 21.895-3.597 5.73-3.38 5.514-6.65 5.893-19.347.378-12.697-.325-22.943-1.568-29.047h.002zm-2.433 34.607c-1.135 6.485-4.055 8.502-6.433 9.755-2.38 1.254-3.946 1.417-3.946 1.417s-1.297-1.47-1.514-1.417c-.216.055-1.19.218-1.027.545s.865.98.703 1.09c-.162.11-1.352.11-1.352.11s-1.73-2.617-1.892-2.617-1.136.382-1.136.654 1.622 2.18 1.352 2.18-.81.327-.973 0S38.27 56.19 38 56.19s-1.027.162-1.027.38 1.243 1.69 1.027 1.744-1.568-.11-1.568-.11-.92-1.58-1.08-1.634c-.163-.054-1.19.054-1.19.327s1.08 1.744.865 1.744c-.217 0-7.137.274-14.165.056s-11.407.436-12.813-.927c-1.406-1.363-.92-10.083-1.08-13.517-.163-3.433-.27-12.862-1.082-21.036s-.81-11.497.865-11.934c1.676-.436 6.54-.327 6.65-1.417.02-.217-.324-6.158 4.757-6.376 5.082-.22 3.838 5.34 4.595 5.45.757.108 16.435.544 16.92-.056.488-.6-.377-6.65 5.57-6.65 5.946 0 4 6.323 4.865 6.54.865.22 3.838-.762 4.54 1.254.704 2.017.812 3.433.812 3.433s-3.73-2.07-4-1.85c-.27.217-.542 1.36-.11 1.634.433.273 4.056 1.798 4.11 2.07.054.273.595 2.998.433 2.944-.162-.055-4.866-3.542-5.028-3.542s-.435 1.417-.218 1.526c.216.11 5.19 3.653 5.19 3.653l.216 1.798s-5.515-4.14-5.732-4.086c-.216.054-.432 1.58-.108 1.798.324.218 5.514 3.924 5.622 4.087.11.164 1.19 16.568.055 23.053l.002-.002zm-42.98-31.99c.325 0 .163-1.255 0-1.582-.16-.325-3.768-.23-4.216.22-.27.27-.052 4.47.11 4.687.16.218 1.243.218 1.568-.163.324-.38-.216-2.888-.162-3.16.054-.273 2.378 0 2.703 0h-.003zm27.41 30.083c-.378.327.054 8.72.162 9.537.106.817 1.512 1.036 3.73.872 2.215-.163 5.783-.763 7.08-3.325 1.297-2.56 1.08-7.03.595-7.412-.486-.38-10.747-.383-11.57.328h.002zm8.055 7.738c-2.92 1.47-4.54 1.69-4.757 1.254-.216-.436-.595-6.758-.432-6.92.382-.386 7.406-.164 7.57.27.16.437.54 3.925-2.38 5.396zM45.517 22.89c-1.514-.38-2.973-5.885-11.84-5.776-8.866.11-14.92 5.995-16.056 6.703-1.133.708-5.297.633-5.46.654-1.24.165-.863 2.454-.755 6.16.108 3.706.973 18.8 1.08 21.636.11 2.834 1.893 3.488 2.974 3.706 1.08.22 13.136.22 17.19.11s4.434-1.58 4.704-2.56c.27-.982-.054-9.593.324-10.192s6.596-.49 7.947-.49c1.352 0 5.244-.054 6.325-1.254 1.08-1.2 0-16.84-.163-17.82s-4.756-.492-6.27-.873v-.003zm4.812 15.75c-.218 2.345-.975 2.617-1.786 2.672-.81.054-10.488-.055-11.73.272-1.244.327-1.082 2.125-1.136 3.76-.055 1.635.486 6.867 0 7.848-.488.98-4.38 1.635-9.894 1.69-5.514.054-9.73.054-10.434-.763-.703-.82-1.19-7.414-1.352-11.5s-.81-14.28-.324-14.77c.27-.27 3.676.22 5.028-.763s6.866-6.812 12.65-7.303c5.786-.49 9.732 1.362 11.516 3.106 1.784 1.745 2.054 2.344 3.027 2.508s3.514 0 3.784.273.864 10.628.65 12.97zM40.055 22.62c-2.217-1.144-7.136-.817-7.136-.817-11.136 1.09-14.704 8.72-14.542 14.607s1.297 10.573 5.19 13.134 9.73 1.363 10.11 1.036c.378-.327-.054-7.357-.108-7.848-.054-.49-1.08-.272-3.19-.763s-5.352-1.854-5.028-6.43c.324-4.58 3.514-6.215 6.866-6.596 3.352-.38 6.055 1.417 6.596 3.16.54 1.745.216 6.76.432 7.14.216.38 7.082 0 7.57-.273.486-.27.16-3.487 0-7.63-.164-4.14-4.543-7.573-6.76-8.72zm5.406 14.333c-.216 0-3.568.274-3.568-.053s.378-6.54-3.244-8.72c-3.62-2.18-7.243-2.78-11.784.055-4.54 2.834-5.028 8.61-2.325 12.1 2.705 3.487 5.46 3.76 7.517 3.76.162 0 .108 4.086-.108 4.25-.217.163-5.407.763-8.326-2.344s-4-8.12-3.568-12.26 6.055-10.247 12.65-10.465c6.597-.218 12.003 3.815 12.543 8.175s.43 5.504.214 5.504h-.002zm-14.705-6.375c-.433.11-.162 2.725-.162 2.725s-2.8.02-3.19.218c-.432.22-.378 3.543.378 4.74s4.217 3.435 7.19 2.073c2.973-1.363 3.568-4.36 2.595-7.52-.973-3.162-6.38-2.344-6.812-2.235zm2.11 7.466c-2 .273-3.353-.49-3.353-3.27 0-.49 2.38.055 2.433-.162.054-.218-.216-2.56.054-2.616.27-.055 2.704-.273 2.92 2.125.216 2.4-.054 3.653-2.053 3.924zM18.16 12.646c2.65 0 2.703-2.67 2.595-5.014-.108-2.343-.378-2.45-1.568-2.67-1.19-.218-2.408-.13-2.866.763-.81 1.58-.81 6.922 1.84 6.922zm.108-5.613c.46-.462 1.135 0 1.19.38.053.383.377 3.598-.704 3.707-1.08.108-.757-3.816-.486-4.087zm26.166 4.414c1.406.054 2.38-.654 2.973-1.69.594-1.035.594-4.522 0-5.503-.596-.98-4.424-.288-4.758-.218-1.298.272-.974 4.033-.92 4.796s1.297 2.562 2.703 2.616zm0-5.286c.452-.39 1.676-.054 1.892.164s.432 3.542-.54 3.815c-.974.272-1.57-.928-1.57-1.91.002-.98-.16-1.742.218-2.07z"/></svg>