<svg xmlns="http://www.w3.org/2000/svg" width="64" height="64" viewBox="0 0 64 64"><path d="M58.787 18.364c-.174-.95-4.53-4.32-5.228-4.494-.7-.173-1.004-.52-2.268-.043-1.264.475-9.542 7.518-10.544 10.11-1.003 2.594 1.437 5.273 3.267 6.353 1.83 1.08 3.486 2.593 3.573 5.315.087 2.722-2.483 4.105-4.575 3.327-2.09-.778-1.786-3.154-1.786-5.272 0-2.117-1.308-4.71-4.88-3.802s-4.053 5.315-4.27 7.605c-.22 2.29.26 4.19-1.134 6.352-1.394 2.16-4.096 1.167-4.618-1.21-.523-2.376 2.832-4.97 5.315-9.03 2.483-4.063.35-6.267-2.222-6.18-2.57.086-5.227 2.938-6.404 4.105-1.176 1.167-2.788 1.253-3.355.69-.566-.56-.35-1.425 1.133-2.376 1.48-.95 6.535-2.68 7.8-3.673 1.263-.992 1.698-2.072 1.045-3.152-.655-1.08-4.358-.82-5.578-.735-1.22.087-1.7-.994-.654-1.426 1.046-.432 2.31.26 5.01.605 2.702.347 4.402.735 8.54-.777 4.14-1.512 7.103-8.512 7.408-10.457.305-1.944-8.19-9.722-9.498-10.11s-2.57.56-5.49 2.375c-2.92 1.816-13.986 9.162-16.34 10.674-2.352 1.512-6.52 3.794-7.32 5.012-1.132 1.727-.653 5.832-.39 8.51.26 2.68.914 12.1.958 15.6s.915 5.877 3.747 8.21c2.835 2.33 18.173 13.434 21.44 13.52 3.267.088 4.356-.647 9.933-3.8 5.577-3.155 16.077-9.723 16.992-15.125.915-5.4.567-25.75.392-26.7zm-2.178 3.198c-.176-.087-3.575-2.593-3.75-2.377s-.35.82-.086.994c.26.17 3.747 2.504 3.747 2.72 0 .216.175 2.117.045 1.944s-3.92-2.895-4.008-2.765c-.087.13-.305.733-.087.906.22.173 3.922 2.55 4.01 2.852.086.3-.088 1.77-.088 1.77s-3.486-2.765-3.747-2.765c-.26 0-.305 1.124-.13 1.167.173.043 3.833 2.506 3.833 2.68 0 .172-.13 1.295-.13 1.295s-3.312-2.636-3.487-2.593c-.172.043-.085 1.08-.085 1.08s3.442 2.29 3.486 2.593c.045.303.175 1.772 0 1.815s-2.92-2.03-3.31-1.858c-.392.173-.35.994-.087 1.167.26.173 3.268 1.772 3.355 2.117.087.346.174 2.16.044 2.16s-3.267-2.85-3.485-2.635c-.22.216-.132 1.167-.132 1.167s3.486 2.68 3.573 2.894c.087.216.044 2.03.044 2.03s-3.616-2.678-3.834-2.635c-.218.042-.087 1.166-.087 1.166s3.878 2.636 3.878 2.895 0 1.945-.174 1.945-3.268-3.154-3.79-2.98c-.524.172-.785.388-.437.777.35.39 4.052 2.938 4.008 3.284s-1.22 1.6-1.394 1.556c-.173-.043-3.31-3.457-3.66-3.457s-.96.52-.74.735c.218.217 3.834 3.414 3.703 3.5l-1.09.735s-4.05-3.457-4.182-3.457c-.13 0-.61.82-.61.82s4.314 3.155 4.097 3.285c-.218.13-1.48 1.34-1.57 1.167-.086-.173-3.615-3.37-3.833-3.37s-.61.13-.566.475c.044.346 3.965 3.327 3.703 3.543-.26.216-1.437.95-1.437.95s-3.442-3.456-3.834-3.413-.698.778-.698.778 3.88 2.852 3.66 3.154c-.217.302-1.22.69-1.22.69s-3.18-3.196-3.31-3.196-.697.175-.61.39c.087.217 3.442 3.155 3.224 3.415-.218.26-1.09 1.167-1.438 1.037-.35-.13-2.92-3.586-3.18-3.586-.262 0-1.134.432-.872.735.26.3 3.224 3.413 3.094 3.543-.13.13-.784.994-1.09.69-.304-.302-3.485-3.63-3.66-3.672-.173-.042-1 .347-.827.606.175.26 3.88 3.413 3.66 3.586-.217.174-1.785 1.21-1.785 1.21s-3.18-4.104-3.486-4.104-1.003.216-.96.562c.044.346 3.703 4.148 3.573 4.278s-.61.346-.87.346-4.1-3.804-4.405-3.804c-.304 0-.653.346-.696.52-.044.172 4.53 3.63 4.14 3.888s-1.482.69-1.482.69-4.488-4.32-4.836-4.32c-.35 0-1.307.734-1.046 1.037.26.302 4.967 3.76 4.662 4.02-.305.258-1.176.95-1.57.777-.39-.173-20.956-14.69-21.958-15.944-1.002-1.253-1.133-4.407-1.57-8.9-.434-4.498-1.392-16.424-.74-17.418C8.36 17.884 33.17 1.9 34.302 2.117c1.134.216 6.93 6.265 7.016 6.827.087.562-2.745 7.432-6.187 8.728-3.442 1.296-7.145-.648-10.326-.26-3.18.39-4.444 1.643-4.706 3.5-.26 1.86 1.743 2.94 3.224 3.112 1.482.173 3.27-.13 3.617.302.35.432.435.994-2.05 1.556s-6.623.95-8.104 2.98c-1.48 2.032-.828 4.063 2.004 5.316 2.83 1.253 5.663-1.253 6.447-1.944.784-.69 3.355-2.98 4.096-2.506.74.475.74 3.37-2.353 6.784s-4.357 7.52-.697 9.42c3.66 1.9 7.494-.475 7.93-3.414.436-2.938-.566-5.53 1.002-8.167 1.57-2.634 3.137-3.152 3.486-1.813s-1.13 5.012 2.093 7.346c3.224 2.333 6.492 1.642 8.017-1.123 1.524-2.767 1.48-5.23.217-6.526-1.264-1.296-5.272-3.932-5.926-5.704-.652-1.772-.564-2.55 1.266-4.407 1.83-1.858 7.276-6.438 7.973-6.265.696.173 4.095 2.722 4.27 3.025.174.302.174 2.765 0 2.68zm-33.377-8.426c.392.043 7.276-4.494 7.45-4.667.174-.175-.305-.693-.697-.996s-7.613 4.37-7.712 4.667c-.086.26.567.95.96.996z"/></svg>