<svg xmlns="http://www.w3.org/2000/svg" width="64" height="64" viewBox="0 0 64 64"><path d="M20.46 20.383c-.255-.023-5.46.035-5.752.256-.186.137-.162 1.02.44 1.136.604.116 4.43-.163 4.64-.07s.116 4.67.325 4.95c.21.278 1.02.37 1.37.162s-.024-4.044-.047-5.113c-.025-1.07-.72-1.3-.976-1.324v.003zm3.85-14.778c-.254.023-.347 1.278-.695 2.138s-1.53 3.067-2.575 4.322c-1.044 1.255-2.502 1.434-2.69 1.696-.42.583.115 1.35.764 1.21.65-.14 2.69-1 3.99-2.93 1.3-1.927 2.39-5.017 2.412-5.83.024-.813-.95-.627-1.206-.605zM38.994 17.13c.302.14 3.178.256 3.433.302.255.046.186 2.207.37 2.533.187.325.535.372.975.256s.372-3.95.117-4.064c-.256-.116-4.478-.32-4.85-.186-.51.184-.347 1.02-.046 1.16zm-11.46 11.408c-.277.488.163 11.246.256 11.594.093.35 1.276.35 1.46.14.187-.21-.254-9.76-.347-10.968-.093-1.207-1.218-1.03-1.368-.766zm27.44 18.867c-.07-1.51-.625-2.602-1.136-3.09-.51-.488-1.6-.813-2.18-.697s-3.99 2.207-7.214 3.625c-3.224 1.417-6.263.07-6.982-.302-.72-.37-1.624-1.555-2.11-2.693-.488-1.14-.813-3.6-.93-5.902-.115-2.3-.16-8.597-.07-9.015.094-.42 1.694-.42 3.503-.42s8.907-.138 10.23-.278 1.576-.604 1.67-1.07c.092-.464 0-4.97.16-6.342.163-1.37.326-3.625.21-3.927s-1.067-2.58-1.647-2.835c-.58-.256-6.077-.72-7.144-.79s-6.495-.14-6.587-.186c-.093-.046-.07-.58.023-1.348.093-.767-.023-5.576-.093-6.436s-.023-2.44-.418-2.835C33.863 2.468 31.775.307 31.01.12c-.765-.185-6.657-.115-7.562-.07-.905.047-1.74.442-1.902.768-.162.325-.348 2.347-.812 3.973-.464 1.628-1.902 3.81-3.456 5.53s-4.106 3.09-5.404 3.58c-1.3.488-2.246.48-2.528.65-.348.21-.348 1.35-.302 2.23.046.885-.162 7.623.046 8.088.21.465.997.395 2.04.488 1.045.093 5.614.093 5.753.116.14.024.162 1.488.14 5.368-.024 3.88.23 11.176.37 15.126.14 3.95.812 8.922 3.178 11.99 2.367 3.066 5.243 4.902 11.738 5.784 6.495.883 11.32-.604 15.494-2.533 4.175-1.93 6.657-4.322 6.912-5.32.26-.998.328-6.97.26-8.48v-.002zm-4.87 7.505c-.116.186-1.137 1.185-1.3.93-.16-.257-2.875-6.716-3.154-6.81-.278-.092-1.02.233-.905.628.116.395 3.108 6.715 3.085 6.83-.023.117-1.508.93-1.693.745-.186-.186-2.876-6.506-3.108-6.6-.234-.092-1.14.373-1.07.72.07.35 3.295 6.298 3.18 6.437-.117.14-1.44.813-1.81.627-.37-.186-3.178-6.878-3.433-7.017-.255-.14-1.206.21-1.02.744.185.534 3.13 6.715 3.06 6.878s-1.112.558-1.344.372c-.232-.186-3.13-7.39-3.386-7.482-.255-.093-1.067.558-.974.79.093.232 3.062 6.854 2.853 6.97-.21.116-1.113.372-1.3.116-.185-.256-2.945-6.227-3.177-6.297s-.906.374-.95.56c-.048.186 2.944 5.576 2.642 5.785-.302.21-1.716.232-1.972-.093-.254-.324-2.388-5.53-2.666-5.622-.278-.093-1.067.232-.974.604s2.55 4.856 2.505 4.996c-.046.14-1.508.046-1.832-.14-.325-.185-1.972-4.25-2.296-4.344-.325-.093-.79.093-.812.51-.023.42 1.484 3.207 1.23 3.324-.256.116-1.903-.28-2.09-.488-.185-.21-1.275-2.58-1.646-2.625-.373-.046-.744.232-.72.488s.602 1.603.602 1.603-.765-.256-1.067-.488-3.642-2.393-4.593-4.972c-.95-2.58-1.113-7.365-1.183-10.595s-.37-11.175-.37-14.126c0-2.95.253-3.648-.466-3.927-.72-.28-4.825.07-6.008.163s-1.37.07-1.415-.116c-.045-.186-.23-7.853.163-8.318.155-.183 2.923-.675 4.546-1.697 1.623-1.022 3.873-3.137 5.056-5.065 1.183-1.93 2.18-4.066 2.366-5.274.186-1.207.348-1.904.51-1.997.162-.093 7.538-.186 7.91.325.37.51.325 4.298.37 7.18s-.115 5.507.697 5.67c.81.162 4.66.23 8.117.417 3.456.185 5.126.21 5.404.487.28.28-.254 2.045-.486 3.37-.232 1.323-.232 4.832-.186 5.366l.045.533s-1.856.116-1.995-.023-2.807-5.74-3.085-5.74-.95.466-.858.814c.093.35 2.737 4.926 2.575 4.996s-1.113.186-1.3.046c-.185-.14-2.55-4.74-2.782-4.787-.232-.046-.905.488-.79.813.117.325 2.53 4.09 2.39 4.136-.14.045-1.647.115-1.763.022s-1.81-3.927-2.25-4.066c-.44-.14-1.253.256-1.044.558.21.302 2.18 3.555 2.04 3.578-.137.023-1.506.14-1.67 0-.16-.14-1.645-3.23-2.04-3.346-.393-.116-.996.232-.927.604.07.372 1.322 2.51 1.37 2.672.045.163-1.694.302-1.95 1.23-.254.93-.37 4.532-.277 8.83s.603 8.365 1.74 10.177 3.2 3.206 5.868 3.6c2.667.396 3.387.42 4.36.233.975-.186 2.552-.627 3.202-.976.65-.35.905-.604 1.09-.442.186.163 2.296 4.95 2.737 5.762.442.816.535 1.048.42 1.234h.002zm1.16-1.185c-.163.232-.465.256-.58.07s-2.715-5.878-2.39-6.343c.2-.283.835-.395.997-.186.164.21 1.6 2.788 1.718 3.346.117.557.42 2.88.255 3.113zm-.07-5.646c-.21-.118-.835-1.466-.835-1.56 0-.315.763-.812.903-.603.14.21.14 2.277-.07 2.16v.002z"/></svg>