<svg xmlns="http://www.w3.org/2000/svg" width="64" height="64" viewBox="0 0 64 64"><path d="M63.818 31.9c-.27-5.408-1.99-28.434-2.216-28.75-.226-.315-13.93-.09-23.88.27S8.91 4.862 8.41 4.907C7.916 4.953 0 13.98 0 14.507c0 .855.543 12.93.588 21.9C.633 45.372.18 55.42.543 55.69c.362.27 12.8-.045 13.162.045.362.09 0 4.776.588 5.137.588.36 12.98-.135 14.247-.406s4.387-4.912 4.84-5.227c.45-.315 10.673.676 11.17.676.498 0 1.855-1.126 5.338-4.506s13.614-12.075 13.885-12.526c.27-.45.316-1.578.045-6.985zm-9.137.675c-.314.54-6.782 7.84-8.5 10.14-1.72 2.297-2.49 2.973-3.167 3.198-.678.225-13.026-.225-13.75-.18-.723.045-1.4.586-1.944 1.352-.544.766-4.07 5.092-4.298 5.092-.225 0-1.13-7.165-1.446-7.435s-2.94-.27-4.342-.315c-1.402-.045-3.392.496-3.618.225s-.543-15.366-.77-20.413c-.225-5.05-.542-9.825-.225-10.32.185-.29 3.89-.54 7.056-.677 3.166-.135 9.724-.36 19.403-.9 9.68-.542 14.246-1.308 14.744-.767.497.54 1.04 15.366 1.04 17.89s.135 2.567-.182 3.108zM25.78 22.03c-1.085.632-.904 11.762-.18 12.438.722.676 5.743.99 6.286.45.543-.54.588-11.67-.09-12.75-.68-1.084-5.49-.442-6.016-.137zm13.48.046c-.182.676-.09 12.03.09 12.752.18.72 4.93.766 5.562.18.633-.586.588-11.896.045-12.707-.542-.81-5.552-.77-5.697-.224z"/></svg>