<svg xmlns="http://www.w3.org/2000/svg" width="64" height="64" viewBox="0 0 64 64"><path d="M57.82 4.088C55.162.042 46.158-.13 34.926.042S14.862.645 8.946 2.108 2 8.133 2 11.49c0 1.637.257 22.727.43 29.527s.428 11.535 2.143 16.27 3.773 4.56 8.66 5.766 20.236 1.12 29.753.516c9.518-.605 13.89-1.38 15.606-4.134 1.715-2.755 2.315-12.05 2.4-24.79.086-12.74-.514-26.513-3.172-30.56v.002zm1.03 27.374l-4.574-4.247s-.572 1.377-.343 1.607c.23.23 4.687 4.074 4.802 4.533.114.46.057 3.386.057 3.386s-4.287-4.417-4.46-4.36c-.17.057-.742 1.377-.285 1.78.457.4 4.516 4.073 4.63 4.475.114.4.114 2.812.114 2.812s-3.77-3.902-4.057-3.902-.686.918-.572 1.263c.115.344 4.46 4.074 4.46 4.476 0 .4.286 4.017 0 3.615-.286-.403-4.46-5.453-4.86-5.338-.4.116-.914 1.206-.914 1.206s5.602 5.337 5.716 5.968c.115.63-.342 3.443-.57 3.443-.23 0-6.117-6.2-6.403-6.2s-.916 1.263-.916 1.263 6.517 6.026 6.517 6.542-.23 1.607-.743 1.722-7.374-6.714-7.374-6.714-1.086.803-.8 1.262c.286.46 7.374 6.313 6.917 6.714-.458.4-3.26.46-3.26.46s-4.858-5.167-5.086-5.28c-.23-.117-.972.744-.972.744s5.26 4.706 4.745 4.935c-.514.23-3.2.745-3.487.46-.286-.29-3.716-4.19-4.173-4.306s-1.43.63-1.258.918c.17.288 3.942 3.846 3.6 3.904-.344.057-4.117-.057-4.117-.057s-2.572-3.215-2.915-3.33c-.344-.115-1.373.23-1.26.746.115.516 2.288 2.582 2.288 2.582s-13.605.69-19.893.23C13.117 58.316 6.315 56.08 5 52.348c-1.315-3.73-.972-26.628-1.143-32.48s-.8-11.304 1.887-14c1.95-1.96 7.83-3.215 13.948-3.79 6.117-.573 19.778-.688 25.895-.23 6.116.46 10.46 1.552 11.147 4.306.686 2.755 1.83 15.438 1.83 15.438s-2.974-3.1-3.488-2.697c-.514.402-.457.976-.286 1.09.17.115 3.773 3.443 3.83 3.615.057.172.057 3.04.057 3.04s-3.258-3.27-3.544-3.27-.572 1.09-.4 1.607c.17.516 4.116 2.984 4.116 3.443v3.042zM16.033 6.958c.514-.172 0-.86-.4-1.205-.4-.344-6.688.4-8.174 1.55-1.488 1.147-1.276 5.763-1.03 5.91.285.172 1.485.516 1.83.172.34-.344-.345-3.673.455-4.763s6.803-1.492 7.318-1.664zm14.52 5.796c-8.404.23-13.49 4.82-14.635 8.15-1.144 3.327-.832 7.19-.744 7.402.286.69 10.118.46 10.518.344.4-.115-.114-2.123-.057-2.525.057-.4 8.403-.69 8.917-.516s.514 7.63.514 7.86c0 .23-7.774.4-8.346.287-.572-.115-.17-2.64-.686-2.697-.514-.057-8.917.173-9.49.402-.57.23-.856 1.837.744 7.23 1.6 5.396 6.402 7.748 15.32 7.462s14.348-7.518 13.548-18.708-7.202-14.922-15.605-14.692h.003zm9.03 29.268c-2.743 2.123-11.89 4.074-16.12.86-4.23-3.213-4.915-7.976-4.744-8.148.17-.172 6.516-.516 6.516-.057 0 .46.343 3.96.514 4.074.172.117 11.376-.17 11.434-1.09.057-.916-.743-13.656-1.43-13.77-.685-.116-11.66.515-11.832.803-.17.287-.057 1.95-.23 2.066-.17.114-4.23.286-4.515.056-.18-.143-.4-7.06 5.945-9.182C31.467 15.51 40.385 14.59 43.3 23.43c2.916 8.836-.97 16.468-3.715 18.592h-.002z"/></svg>