<svg xmlns="http://www.w3.org/2000/svg" width="64" height="64" viewBox="0 0 64 64"><path d="M49.56 20.06c-3.372 2.38-5.09 2.64-5.604 2.656.1.993.444 2.6 1.61 3.21 1.736.914 7.25 1.478 11.374-2.693 4.125-4.172 5.384-7.692 4.993-13.645-.39-5.953-1.78-8.517-2.605-9.17-.825-.65-1.65-.347-1.65-.347s-3.083 4.608-5.73 5.65c-2.65 1.044-6.47.566-8.076 3.086s-1.823 3.998-1.954 3.998S40.962 5.85 36.49 2.2c-4.47-3.65-7.25-1.608-7.336-.913-.087.695 2.127 1.608 5.427 5.823s6.514 9.256 6.514 11.168-2.43 14.73-5.167 19.685c-2.735 4.954-6.773 9.95-9.465 12.254-2.69 2.303-3.082 2.825-2.734 3.13l.347.303s-4.428.175-7.728-2.65-6.122-7.083-5.73-13.428 6.86-11.56 11.982-12.993 9.77.215 12.373 1.953c0 0 1.65.52 2.172-.565s2.127-4.39 2.17-5.042c.044-.652-.086-2.78-1.3-3.737-1.217-.956-6.687-3.433-13.677-3.13S10.315 18.84 6.97 22.75 2.587 32.88 2.15 35.92c-.433 3.04-.26 10.21 5.428 17.38 5.688 7.17 12.157 9.3 18.54 10.344 6.38 1.043 12.156-.13 17.756-4.693S52.47 48.436 51.69 41.7c-.78-6.737-1.26-9.518-2.822-11.43-1.563-1.91-2.388-2.303-2.692-1.825s-2.344 5.345-2.344 5.823c0 .477.868 6.517-1.867 11.21s-7.206 7.387-11.027 8.04-4.993.477-4.993.26c0-.217 4.385-2.042 8.814-6.822s8.552-9.126 8.9-15.86c.346-6.736-.305-9.735-.305-9.735l.046.043c-.03-.116-.057-.215-.09-.347-.26-1.086-.085-1.738 4.387-3.042 4.472-1.304 7.685-5.823 7.685-5.823s.825-.086.65.914c-.173 1-2.344 4.043-6.468 6.954l-.004.002zM28.5 55.172c5.774-.52 10.16-2.955 14.067-8.43s2.604-12.56 2.604-12.56 1.477-3.606 1.607-3.997c.13-.39.78-.435 1.737 2.955.955 3.39.868 6.78.868 6.91s-1-.696-1.346-.74c-.348-.043-.348 1.043-.348 1.043L49.25 41.7s.26 2.042.26 2.303-1.605-1.87-1.78-1.87-.65.957-.607 1.218c.043.263 1.91 2.305 1.997 2.436.087.13-.434 1.782-.695 1.782-.26 0-1.78-2.042-1.998-2-.217.045-.52 1-.52 1.218 0 .217 1.562 2.13 1.78 2.216.216.088-.696 1.348-.956 1.478s-1.6-1.61-1.73-1.61-.52.696-.52.87 1.084 1.304 1.345 1.65-.478 1.435-.695 1.522c-.217.087-1.216-2.13-1.39-2.216-.173-.087-.91.348-.998.74-.087.39 1.52 2.433 1.693 2.65.174.217-1.042.913-1.216.913-.176 0-1.348-2.26-1.52-2.305-.176-.043-.914.608-.914.608s1.302 2.347 1.39 2.477c.086.13-.522.653-.956.696-.433.043-1.3-2.303-1.475-2.434-.174-.13-.738.478-.912.565-.174.087 1.13 2.086 1.26 2.347s-1.217.956-1.52 1c-.305.043-1.217-2.39-1.347-2.434-.13-.044-.738.304-.912.608s1.216 2.26 1.26 2.39c.042.13-1.217.652-1.434.652s-.912-2.347-1.216-2.52c-.304-.174-.955.174-1.085.304s1.083 2.477 1.17 2.738c.087.26-1.563.652-1.693.652s-.955-2.347-1.042-2.477c-.087-.13-.912.174-1.085.39-.173.218.782 2.087.956 2.348.174.26-.825.52-1.302.52-.478 0-.868-2.128-1.042-2.433-.174-.304-.868.043-1.172.304-.304.26.695 2.216.695 2.216s-1.476.174-3.517.13c-2.04-.043-5.384-.13-10.463-2.955-5.08-2.825-9.117-8.865-10.94-14.297s-1-10.56 1.04-15.644c2.042-5.084 5.254-7.78 8.858-9.82 3.604-2.043 6.816-3.564 12.85-3.217 6.036.346 9.987 2.605 9.987 2.605l-1.693 4.128c-3.473-1.173-10.637-2.998-16.585.348s-9.638 8.953-9.725 14.993c-.087 6.04 1.78 10.43 5.08 13.515 3.3 3.086 8.51 4.694 14.285 4.172l-.002.002z" fill="#232021"/></svg>