<svg xmlns="http://www.w3.org/2000/svg" width="64" height="64" viewBox="0 0 64 64"><path d="M48.884 38.696c-5.61-2.81-6.524-2.353-7.437-.458-.913 1.896-1.696 4.51-3.588 5.295-1.894.784-5.61 1.438-10.31-2.353-4.696-3.79-5.283-5.818-4.305-9.217s3.327-4.445 4.24-5.752c.913-1.305.26-4.574-1.957-6.404-.465-.383-4.307-5.23-8.873-7.256s-7.567 0-8.872 1.176-5.023 6.34-5.676 11.83 1.695 11.505 5.348 15.82 10.764 11.96 20.68 17.386 15.526 7.06 22.572 2.876 7.96-4.314 8.155-7.452c.196-3.138.457-5.62-1.174-7.582-1.63-1.96-3.196-5.097-8.806-7.908h.002zm8.415 12.07c-.306.262-.74.96-.74.96s-2-3.704-2.35-3.704c-.348 0-.957.48-.783.74.174.262 2.305 3.574 2.13 3.836-.173.26-.825 1.002-1 .915-.173-.087-2.522-4.183-2.522-4.183s-.87.48-.74.697c.13.218 2.48 4.314 2.306 4.532-.173.216-1.304.695-1.304.695s-1.914-3.66-2.088-3.66c-.175 0-.958.436-.914.567.044.13 2.044 3.617 1.87 3.704-.174.087-1.26.697-1.435.654-.174-.043-1.52-2.875-1.74-2.92-.217-.043-.957.262-.913.48.044.218 1.653 3.094 1.48 3.18-.175.088-1.045.524-1.175.437s-1.392-2.963-1.522-2.963-.87.174-.87.523c0 .35 1.48 3.007 1.22 3.05-.262.044-1.697.48-1.784.305-.087-.174-1.13-3.05-1.348-3.094-.217-.044-1.087-.087-.913.218.174.305 1.48 3.007 1.174 3.05-.306.044-2.003.13-2.09-.087-.087-.22-.87-2.4-1-2.486s-1.087-.174-1.087.13c0 .306.913 2.267.783 2.267s-1.653.088-10.612-5.272c-8.96-5.36-14.352-9.5-19.702-16.69S4.412 25.32 5.197 21.09s5.306-7.147 6.09-7.582c1.623-.904 4.087-1.09 9.002 2.963 4.912 4.054 6.26 7.104 5.956 8.324-.304 1.22-3.35 4.445-4.132 6.32-.783 1.873-1.218 5.402 1.914 8.714 3.13 3.312 7.045 5.49 10.09 5.883 3.043.393 5.218-.48 6.13-1.916.914-1.438 2.523-5.447 3.045-5.62.522-.175 5.132.914 8.872 4.357s3.914 3.75 3.697 4.01c-.217.26-.522.566-.348.697.174.13 1.218 1.655 1.522 2.22.305.566.566 1.046.26 1.307l.003.002zM33.29 24.142c.174.132 1.957 0 5.132 2.136 3.175 2.135 3.566 4.968 3.87 5.23.305.26 4.394-.83 4.655-.96.26-.13 0-2.57 0-2.79 0-.217-.566-3.442-3.74-6.97-3.176-3.53-8.525-3.618-8.917-3.444s-1.914 3.094-2.088 3.573c-.174.48 1.087 3.226 1.087 3.226zm1.435-5.663c.13 0 5.176-.045 7.872 3.267 2.695 3.312 3 5.752 2.74 5.84-.262.086-1.958.26-1.958.26s-1.13-3.79-4.394-5.36-4.916-1.7-5.22-1.83c0 0 .827-2.178.957-2.178h.002zm10.047.26c4.74 4.01 4.262 9.413 4.35 10.546.086 1.133.455 1.092.65 1.264.35.305 4.133-.566 4.48-.784.35-.218.262-2.44.218-3.138-.044-.697-1.305-8.628-8.09-13.727S32.988 9.28 32.728 9.543s.348 4.837 1.218 5.055 6.088.13 10.83 4.14l-.004.002zM34.16 10.852c.087-.348 2.35-.478 4.697 0 2.348.48 6.218 1.744 10.09 5.797s3.957 10.197 3.957 10.72-1.392.566-1.783.566c0 0 .697-4.445-4.044-10.066-4.742-5.62-12.353-5.403-12.7-5.36-.35.043-.305-1.308-.218-1.656h.002zm26.747 8.41C59.3 13.683 57.56 8.106 49.252 3.14 40.946-1.83 31.812.523 31.726.785s1.14 6.24 1.348 6.32c.348.13 2.175-.916 7.393-.175 5.22.74 9.48 4.14 12.22 8.15s3.698 13.42 3.785 13.77c.087.348 5.176-.393 5.306-.437s.74-3.574-.87-9.152v.003zm-.132 5.492c-.304.174-2.218.436-2.35.174s-1.74-9.85-5.74-14.25S40.9 2.922 33.463 4.49L32.94 1.7S39.25.045 46.08 3.05s10.307 7.8 12.22 12.158c1.915 4.358 2.785 9.37 2.48 9.544l-.003.003z" fill="#232021"/></svg>