<svg xmlns="http://www.w3.org/2000/svg" width="64" height="64" viewBox="0 0 64 64"><path d="M63.607 29.808c-.462-.79-2.17-1.673-2.587-1.627-.416.048-5.774.513-7.945.28-2.17-.23-6.975-1.58-8.13-3.02-1.155-1.44-1.755-6.32-.97-9.062.785-2.742 4.435-2.88 4.758-2.696.323.187.508 1.953.23 5.206-.276 3.253-1.847 6.135-1.94 6.506-.09.372 2.403.976 4.297 1.162s3.696.232 5.405-.558c1.71-.79 2.54-2.742 3.187-8.04s-1.94-10.41-5.96-13.524C49.932 1.322 43.42 1.368 39.31 3.6c-4.113 2.23-6.654 7.435-6.84 11.617-.184 4.183 1.71 10.13 4.066 12.827 2.356 2.696 5.774 4.787 6.005 5.205.23.417-5.866 7.435-8.037 10.13s-3.418 3.44-3.834 3.393c-.417-.045-1.48-.79-3.604-3.717-2.125-2.928-4.897-8.086-6.56-12.27s-7.344-16.683-7.76-17.1c-.416-.42-7.3-.047-8.27.045-.97.094-4.244.716-4.434 1.35-.6 1.997 5.128 14.127 8.084 20.54 2.956 6.413 9.008 15.43 10.532 17.242s5.59 7.528 11.825 8.085c6.236.558 8.454-3.253 12.703-8.04C47.436 48.12 53.81 38.965 54.088 38.5s8.176-1.394 9.193-1.766c1.018-.37.787-6.134.325-6.924l.002-.002zm-2.39 2.742c-.14-.21-.73-1.534-.936-1.5-.206.036-1.21.35-1.037.768.173.418 1.143 1.22 1.005 1.464-.14.244-1.524.418-1.767.174s-1.28-2.405-1.523-2.44c-.243-.035-.97.14-.97.418 0 .28 1.386 2.51 1.247 2.51-.14 0-1.247.28-1.35.07-.105-.21-1.664-3.52-1.837-3.52s-1.247.244-1.074.523c.173.28 1.663 3.137 1.49 3.137-.173 0-1.49.174-1.698 0-.208-.174-1.35-3.31-1.698-3.346-.346-.035-1.005.627-.866.87.14.245 1.803 3.068 1.733 3.312s-.554 1.464-.693 1.115c-.14-.35-1.803-3.94-2.114-3.94s-.935.628-.866.872c.07.244 2.252 3.834 2.183 4.008s-.658 1.638-1.005 1.36-1.975-3.696-2.252-3.59c-.277.104-.762.905-.693 1.22.07.313 2.148 3.554 2.044 3.73-.104.173-.485 1.15-.693 1.045-.208-.105-2.113-3.764-2.356-3.66-.243.105-.797.94-.658 1.255.14.314 2.217 3.45 2.183 3.555-.035.105-1.143 1.534-1.247 1.464S43.653 39.8 43.48 39.8s-.45.904-.383 1.15 2.044 3.31 1.94 3.484c-.104.174-.797 1.29-.935 1.185-.14-.106-2.217-3.556-2.39-3.556-.174 0-.73.697-.555 1.046.173.35 2.183 3.173 2.183 3.173s-1.385 2.196-1.558 2.126-2.148-4.08-2.39-4.01c-.244.07-.763.662-.694.837s2.46 3.87 2.287 4.113c-.173.245-1.35 1.604-1.455 1.465-.104-.14-2.39-4.322-2.598-4.322s-.728.488-.658.767c.07.28 2.633 4.078 2.494 4.392-.14.314-1.455 1.882-1.56 1.812-.103-.07-2.805-4.845-2.91-4.81-.103.035-.865.593-.692.906.173.314 2.91 4.392 2.806 4.566-.104.174-1.386 1.29-1.386 1.29s-2.876-4.53-2.98-4.496c-.104.035-.693.418-.658.697.035.28 2.806 4.148 2.564 4.322-.243.172-1.04 1.01-1.282.8s-2.702-4.357-3.083-4.357-.9.697-.762.906 3.05 4.042 2.772 4.042-1.42.14-2.113-.383-2.598-4.323-2.876-4.358c-.277-.035-1.005.35-.83.662.172.314 2.32 3.207 1.974 3.172-.346-.035-3.29-1.743-5.647-3.87-2.356-2.125-6.375-7.702-9.528-12.756s-5.543-9.445-7.76-14.638-3.34-8.784-3.246-9.202c.038-.164 2.727-.697 6.146-.883 3.418-.186 4.25-.046 4.527.325.277.372 6.42 15.104 8.223 19.054 1.802 3.95 4.758 8.784 6.282 10.782 1.524 1.998 2.217 2.65 3.003 2.88.786.233 1.987-.092 2.45-.324.46-.232 5.68-6.274 7.99-9.062s4.25-4.508 3.604-5.763c-.647-1.257-3.927-3.3-5.128-4.65s-4.204-6.32-4.48-9.433c-.278-3.114 0-6.925 1.847-9.992 1.848-3.067 4.85-5.344 10.81-5.205 0 0 4.122.35 6.2 1.988 2.08 1.638 2.045 1.917 1.94 2.056-.103.14-.345 1.01-.276 1.115.07.103 3.707 7.422 3.707 7.7s.208 2.057 0 1.953-2.945-6.344-3.257-6.31c-.312.036-.624.907-.59 1.15s3.604 6.38 3.57 6.658-.347 2.3-.52 2.023c-.174-.28-2.565-5.786-2.807-5.786s-.832.697-.798.94 3.153 5.717 3.083 6.1-.45 1.326-.728.977-2.356-4.705-2.564-4.74-1.143.314-.83.732c.31.418 2.563 4.705 2.46 4.775-.105.07-1.42.28-1.63.07-.207-.21-1.974-4.077-2.112-4.077s-.97.593-.83.767c.14.175 1.768 3.382 1.63 3.417-.14.035-3.5-.488-3.5-.662s1.836-4.6 1.663-7.424c-.173-2.82.312-5.714-3.326-7.004s-6.513 2.3-6.825 6.065.763 8.087 3.604 10.388 6.79 2.928 8.765 3.242c1.975.313 7.865-.14 8.003.104.136.24.483 2.855.344 2.646zM4.362 17.493c-.104.314 1.248 5.76 1.802 5.89.59.14 1.178.036 1.178-.278s-1.005-3.87-1.005-4.148c0-.28.693-.418 1.317-.488s1.074-.664.762-1.013c-.312-.35-3.95-.28-4.054.036zm15.902 19.275c-.277-.14-1.293.315-1.213.523.417 1.083 3.5 8.82 3.81 9.064.314.244 1.18-.105 1.284-.383.104-.28-.14-1.045-.762-1.95-.623-.908-2.84-7.11-3.118-7.252zM43.27 5.712c-.554-.174-3.326.383-4.954 2.405s-2.598 4.81-2.287 4.984c.31.176 1.107.42 1.315.316.208-.105.104-1.638 1.49-3.764s4.33-2.474 4.677-2.718c.346-.245.31-1.046-.243-1.22v-.002z"/></svg>