<svg xmlns="http://www.w3.org/2000/svg" width="64" height="64" viewBox="0 0 64 64"><path d="M52.095 33.623c-.13-.32.322-.416 1.482-1.598 1.16-1.183 4.93-5.946 7.895-9.655 2.965-3.71 2.578-6.042 2.417-8.28-.163-2.238-1.42-3.325-2.74-3.804-1.32-.48-7.477-.224-8.54-.16-1.064.064-1.58.607-2.16 1.503-.58.893-4.254 6.49-5.704 8.214s-4.415 4.508-4.673 4.412c-.258-.096-.193-7.353-.42-9.015s-3.415-3.23-5.477-3.356-10.73.224-11.763.448c-1.03.224-1.708 1.215-1.58 1.598.13.385 1.902 2.11 2.386 2.782s1.03 6.873 1 9.463c-.034 2.59-1.065 3.676-1.42 3.58-.354-.095-1.998-.734-3.996-3.004s-7.22-12.88-7.444-13.233c-.225-.352-1.19-.48-4.124-.575s-5.888.248-6.38 1.088c-1.483 2.526-.742 7.673 0 10.006s2.158 6.17 5.026 10.582 7.186 9.047 11.344 13.075 7.283 5.34 9.088 5.915 5.06.384 7.863.288c2.804-.096 3.9-1.247 4.512-2.62.61-1.376.45-4.956.385-5.308-.064-.352-.097-1.95.483-1.982.58-.032 1.127.735 2.126 1.854 1 1.12 2.643 5.754 3.384 6.234.74.48 2.224.864 4.608.864 2.385 0 7.54-.16 8.54-.48s3.19-2.91 3.61-4.572c.418-1.662-.84-3.325-2.03-5.403-1.193-2.08-7.574-8.538-7.703-8.857l.002-.003zm8.186 14.48c-.095-.223-4.67-5.817-6.282-7.8-1.61-1.98-2.256-2.812-2.74-2.557-.482.256-.29.767-.03 1.055s8.12 9.593 8.023 9.753-1.48.448-1.61.192c-.13-.256-3.094-4.508-5.06-6.777s-3.254-3.325-3.61-3.23c-.352.097-.546.768-.127 1.088.42.32 2.965 2.27 4.608 4.604 1.645 2.333 3.385 4.123 3.127 4.347s-1.74.16-1.805.064c-.063-.094-3.48-4.38-5.058-6.17-1.58-1.79-1.934-1.916-2.417-1.724s.516 1.087 1.257 1.854 4.608 5.306 4.834 5.594.354.703.097.703-1.807.03-1.968-.097c-.16-.128-5.382-7.545-5.897-7.64-.516-.097-.806.19-.677.447.13.256 5.512 6.905 5.125 7-.387.097-1.225.065-1.58-.223-.353-.288-3.544-5.05-5.64-6.713-2.094-1.66-3.286-2.14-4.317-2.11-1.03.034-1.643.865-1.643.865s-2.9-3.42-3.352-3.26c-.45.16-.516.48-.226.862.29.384 2.996 2.973 2.996 3.133s-.226 1.725-.258 1.853c-.032.128-3.867-4.092-4.125-3.996s-.516.895-.354 1.15c.16.257 4.8 4.06 4.865 4.413s.29 2.78 0 2.59-5.124-5.98-5.382-5.915-.773.767-.58 1.055c.193.288 5.833 5.722 5.8 5.978-.03.256-.515.67-.9.543-.388-.126-5.415-5.976-5.898-5.784s-.87.543-.483.927 5.284 4.955 5.123 5.21-1.515.16-1.772.033c-.257-.128-4.253-5.275-4.93-5.115s-.773.704-.548 1.056c.226.352 4.447 3.996 4.19 4.156s-1.516.13-1.838-.03c-.322-.16-3.738-4.06-4.157-4.125-.42-.064-.773.543-.612.767.16.224 2.804 2.813 2.707 3.005-.097.19-3.674-.864-5.478-2.335-1.805-1.47-6.123-5.435-8.96-9.24S8.237 31.77 5.723 26.78 1.05 16.262 2.21 14.92c.414-.48 1.288-.735 2.48-.735s5.543-.128 5.8.256c.26.386 3.836 8.314 5.834 11.255s3.9 4.763 5.156 5.275c1.257.51 2.933.03 3.577-1.536.645-1.566.612-4.06.387-6.138-.226-2.078-.032-5.5-.935-6.84s-1.71-2.367-1.613-2.56c.097-.19 4.576-.51 7.638-.638s5.382-.384 5.446 1.247c.065 1.63.16 3.964 0 7.45-.16 3.484.033 4.283 1.16 4.826 1.13.545 2.708-.062 5.254-2.364s5.156-5.85 6.8-8.376c1.644-2.527 3.03-4.317 3.255-4.445.225-.128 5.574-.48 6.09-.096.516.382 2.127 2.492 2.417 2.683s.29.512.258.607c-.032.097-.42 1.12-.677.928s-2.225-2.238-2.61-2.142c-.388.096-.517.416-.194.83.322.417 2.385 2.015 2.353 2.303s-.71 1.373-.903 1.245-2.48-3.037-2.77-2.91-.71.704-.42 1.024c.29.32 2.45 2.525 2.45 2.75 0 .222-.71 1.405-.87 1.277-.162-.128-2.547-2.717-2.87-2.526-.32.193-.644.417-.353.768s2.805 2.397 2.676 2.748c-.13.352-.84 1.726-1.064 1.598-.226-.128-2.9-3.39-3.19-3.197s-.645.48-.42.766c.227.288 2.87 3.197 2.87 3.357s-.613 1.055-.71 1.055-2.578-2.91-2.77-2.845c-.194.064-.742.543-.613.767.13.224 2.674 2.717 2.352 3.197s-.677.895-.87.83c-.193-.063-2.836-3.164-3.126-3.1s-.806.32-.645.703c.16.384 3.03 3.037 2.9 3.293-.13.256-.934.895-1.16.735-.225-.16-2.513-2.78-2.932-2.685-.42.096-.645.16-.58.48s2.61 2.653 2.417 2.877-1.548.927-2.063 1.44c-.516.51-.483.926-.097 1.182.387.255 5.607 4.475 8.508 8.215 2.9 3.74 3.674 5.307 4.093 6.394s.447 2.175.35 1.95l.005.003zM7.464 16.01c-.354-.256-3.642-.256-3.803.16-.162.416 1.14 4.455 1.546 4.667.548.288.838-.064.967-.384s-.838-3.036-.806-3.324 1.772-.13 2.095-.16c.322-.03.355-.704 0-.96zm21.527-1.215c-.098.224.03.863.418 1.023s3.126.256 3.352.32c.226.064.193 1.535.29 2.046.097.512.87.256 1.128 0s.13-3.037 0-3.357c-.13-.32-5.096-.246-5.19-.032h.002z"/></svg>