<svg xmlns="http://www.w3.org/2000/svg" width="64" height="64" viewBox="0 0 64 64"><path d="M63.65 29.772c-.543-3.113-3.265-6.746-7.46-8.438-4.196-1.692-10.84-1.31-14.015-.97-3.175.338-6.123 1.985-6.51 1.985-.385 0 .318-.86 1.498-1.58s2.767-.994 3.31-1.467c.545-.474 1.022-1.985.613-3.046-.408-1.06-2.835-3.204-5.284-4.964C33.352 9.533 29.702 8 26.548 8c-3.152 0-8.3.654-11.952 1.624-3.65.97-7.733 4.038-9.638 5.956s-4.58 6.34-4.9 9.363c-.316 3.023.66 5.685 2.292 8.145 1.633 2.46 5.148 4.693 5.284 4.806.136.113-.113.722-1.09 2.28-.974 1.556-2.283 4.282-2.267 4.556.045.767 2.45 2.324 3.107 2.504.658.18 2.018-.135 3.63-.993 1.61-.855 5.01-4.397 5.01-4.397s3.244.52 4.968.52 4.31-.7 5.806-1.445c1.497-.745 1.406-2.143 1.406-2.143s.975 2.076 2.245 3.723c1.27 1.647 4.126 4.625 8.48 5.956 4.354 1.33 10.32.79 10.364.857s2.29 1.94 4.082 3.678 4.218 3.16 4.876 3c.658-.157.816-.766.884-2.684s.045-9.002.045-9.002 1.158-.63 3.153-3.61c1.997-2.977 1.86-7.805 1.317-10.918v-.002zm-37.056-2.64s-.84-4.24-1.27-4.24-.975.518-.84.72 1.475 4.017 1.452 4.58c-.023.565-.476 2.167-.567 1.964-.093-.203-1.567-5.866-2.134-6.137-.567-.273-.907.336-.816.494.092.158 1.27 3.317 1.566 4.22.295.9.816 2.323.862 2.503.045.18-.227 1.85-.16 2.55.07.698-.044 1.308-.044 1.308s-2.223-6.88-2.45-7.378c-.226-.496-.203-.857-.634-.902-.43-.045-.635.812-.544.97.09.158 2.812 8.257 3.084 8.528s.612.293.726.45c.113.16.18.723-.113 1.016-.295.292-1.18.54-1.43.405-.248-.135-2.222-6.768-2.63-8.122s-.09-1.624-.816-1.624-.658.315-.567.52c.09.2 1.202 4.67 1.928 6.79s1.066 2.57.907 2.73c-.16.157-.953.157-1.043.067s-2.608-7.332-2.744-7.874c-.136-.54-.318-1.038-.68-1.06-.363-.023-.658.338-.635.564s1.905 5.866 2.29 6.79c.387.926.75 1.693.68 1.716-.067.023-1.178-.045-1.224-.135s-1.816-4.58-2.338-5.867c-.522-1.285-.658-2.187-.953-2.21-.296-.023-.727.587-.66.72s1.974 5.28 2.178 5.665c.203.384.702 1.286.566 1.33-.136.046-.862.046-1.09-.428-.226-.475-2.267-5.754-2.54-5.98-.27-.226-1.042-.023-1.02.158.023.18 1.996 4.76 2.177 5.144.18.383.32.9.273.97s-.567.43-.68.337c-.113-.09-1.7-4.04-2.04-4.06-.34-.024-.84.382-.84.676 0 .293 1.497 3.023 1.587 3.25.09.225.544.518.204.766-.34.247-.59.383-.703.27-.112-.113-.59-1.534-.93-1.49-.34.046-1.02.43-.883.79.135.36.815 1.174.702 1.467S9.38 41.23 8.583 41.93c-.794.7-1.542 1.263-1.77 1.128-.137-.08 2.223-4.33 2.428-4.737s.295-1.105 0-1.285-3.697-2.707-4.853-4.016c-1.158-1.31-2.45-3.655-2.745-5.12-.295-1.468.045-4.49.884-6.318.84-1.827 2.88-4.963 5.895-7.197s6.35-3.7 11.067-4.377 8.686-1.4 13.267 1.105 6.145 4.445 6.553 5.144c.408.698.386 1.78.16 1.894-.228.114-2.632.994-4.15 1.738-1.52.746-2.654 1.355-2.654 1.355s1.54-2.098.566-3.18c-.976-1.084-3.085-2.505-5.4-1.76-2.312.744-3.106 2.842-2.584 4.015.522 1.173 2.72 1.737 3.697 1.85.974.113 2.54-.113 2.54-.113s-2.54 1.895-3.04 2.685c-.5.788-1.86 2.39-1.86 2.39l.004.002zm3.674-6.475c-1.11.18-1.905-.09-1.814-.835.034-.28.907-.902 1.656-1.128.748-.226 1.678-.18 1.882.383.203.565-.613 1.4-1.724 1.58zm31.16 13.31c-.09-.044-2.11-5.098-2.472-5.03-.363.068-.84 1.33-.726 1.534.113.205 2.812 5.19 2.835 5.394s-.272 1.286-.363 1.24c-.09-.044-2.72-5.955-3.13-5.865-.408.09-.612.9-.567 1.037.045.135 3.334 6.114 3.31 6.34-.022.226-.883 1.624-1.042 1.512-.16-.114-2.88-5.98-3.13-6.047-.25-.068-.975.564-.953.7.023.134 3.062 5.933 3.04 6.158-.024.227-1.09 1.197-1.294 1.107s-2.404-6.43-2.72-6.61c-.318-.18-1.226.474-1.18.7.045.225 2.653 6.294 2.7 6.632.044.337.657 5.166.407 5.053s-4.082-9.295-4.4-9.77c-.318-.473-.272-.563-.5-.54-.226.023-.498.36-.34.925.16.564 5.353 10.784 5.262 10.852-.09.067-2.79-1.603-3.22-2.212-.43-.61-4.354-8.528-4.558-8.618s-.998.27-.953.564c.045.293 4.196 6.79 3.946 6.86-.25.067-2.177-.18-2.268-.18-.09 0-3.016-6.43-3.266-6.52s-1.202.36-1.066.72c.136.362 3.175 5.8 2.926 5.844-.25.045-1.157.135-1.36.09-.205-.045-3.426-6.07-3.743-6.182-.318-.113-.93.43-.84.88.092.45 2.972 5.325 2.86 5.325-.114 0-1.475.047-1.657-.066-.18-.113-2.245-4.783-2.676-4.918-.43-.135-.975.52-.907.835.068.317 2.36 3.994 2.086 4.017-.274.023-3.585-4.13-3.925-4.13s-1.066.227-.794.813 2.04 2.345 1.86 2.594c-.18.248-4.74-1.286-6.87-3.497-2.133-2.21-3.425-5.505-3.38-7.85.045-2.347 2.245-5.37 3.29-6.5 1.04-1.127 3.785-3.135 5.305-3.857 1.83-.87 4.944-1.58 8.73-1.715 3.788-.135 6.306-.045 9.39 1.85s4.105 3.384 5.035 4.603c.93 1.218 1.226 3.452 1.362 4.22.138.762.047 1.755-.044 1.71zm-34.125-11.5c-.408-.118-.955.334-.8.558.188.27 1.056 1.506 1.243 1.59.187.086.476-.27.493-.557.014-.288-.53-1.472-.938-1.59zm-9.645-5.16c-1.633-1.2-3.952-.595-4.694-.034-1.99 1.506-1.395 3.96-.136 4.484s2.994.694 4.626-.203c1.633-.897 1.837-3.046.204-4.247zm-1.65 3.282c-.883.42-1.802.22-1.717-.493.087-.71.665-1.1 1.057-1.286.563-.267 1.53-.524 1.973-.033.44.49-.427 1.388-1.31 1.81l-.002.002zM6.774 19.2c-.816.186-2.534 1.963-2.977 3.333-.442 1.37-.714 3.69-.204 4.992.51 1.303 1.78 2.037 2.092 2.183.578.27.782-.22.833-.49.05-.272-.153-.475-.663-.95-.51-.473-1.208-1.42-.953-3.823.256-2.403 1.634-3.57 2.297-4.196s.39-1.235-.425-1.05zm28.064 6.362c-.816.152-1.973 1.506-2.568 2.37-.596.862-1.668 3.163-1.668 5.092 0 1.93 1.616 4.163 2.16 4.416.544.254 1.19-.338 1.055-.745-.136-.406-2.313-2.115-1.548-4.992.763-2.877 2.583-4.62 3.026-5.144.442-.523.01-1.084-.46-.997h.002zm5.51.254c-.986 0-2.21.237-3.18 1.184s-1.43 2.81-.136 4.247c1.294 1.437 3.165 2.114 4.832 1.268s2.892-2.47 2.16-4.383-2.424-2.317-3.674-2.317h-.002zm1.345 5.076c-.765.694-1.65.76-1.99.558-.34-.203-.493-2.2-.204-2.572s1.09-.812 1.547-.83c.498-.017 1.548.34 1.718.61s-.306 1.54-1.072 2.234zm8.93-4.162c-1.803-.05-3.52 1.675-3.215 3.486.306 1.81.867 2.707 2.28 3.18s2.822.644 3.877-.456 1.31-2.352.63-4.027c-.68-1.676-2.55-2.155-3.572-2.183zm1.718 5.414c-.63.237-1.41.39-1.836-.49s-.187-2.42 1.106-2.59c.32-.042 1.36.288 1.7 1.05.34.76-.34 1.793-.97 2.03z"/></svg>