<svg xmlns="http://www.w3.org/2000/svg" width="64" height="64" viewBox="0 0 64 64"><path d="M59.79 26.442c-.936-9.74-4.285-19.402-15.422-24.078S21.704.884 16.174 3.924 4.49 13.896 4.024 24.494 10.1 44.986 10.1 44.986 6.437 59.325 6.437 59.792c0 .468 3.66 4.208 4.206 4.208.545 0 15.187-7.013 15.187-7.013s6.076.7 12.93-.7 12.384-4.598 16.044-9.663 5.92-10.442 4.986-20.182zm-4.596 14.26c-2.26 5.377-10.177 9.792-10.852 10.104s-2.596.883-2.596.883-.727-1.508-.986-1.61c-.26-.106-.987.36-.935.57s.727 1.04.52 1.3c-.21.26-1.61.31-1.61.31s-1.04-2.13-1.35-2.286-1.195.156-1.09.416c.103.26 1.245 2.287 1.09 2.34-.157.05-2.078.467-2.13.31s-1.195-2.596-1.455-2.75c-.258-.158-1.4.102-1.4.362s1.298 2.7 1.298 2.7-1.66.21-1.765.053c-.104-.156-1.402-2.805-1.713-2.96-.312-.157-1.246.103-1.246.363s.987 2.7.987 2.7l-1.504-.207-1.87-2.96s-.986-.053-.934.31c.053.365 1.195 2.65 1.09 2.806-.103.156-.414.415-.622.312-.208-.104-1.973-2.39-2.13-2.44-.155-.053-.882.207-.83.518.052.312 1.87 1.922 1.66 2.234s-1.61 1.246-1.816 1.038c-.208-.208-1.973-2.65-2.18-2.753-.21-.104-1.195.57-1.09.727.103.156 1.557 2.598 1.557 2.598l-1.662.57s-1.66-2.13-1.87-2.18c-.207-.053-1.037.57-.934.778.104.208 1.713 1.506 1.454 1.714-.26.208-1.298.675-1.298.675s-1.3-1.403-1.61-1.403-.468.468-.468.623c0 .156.83 1.298.83 1.298s-5.918 2.7-6.385 2.39c-.467-.312-.935-.935-.805-1.22.133-.293 3.505-14.183 3.505-14.183S5.66 34.234 5.893 25.974c.234-8.26 5.686-17.454 9.813-20.493s17.29-5.375 25-3.193S55.193 11.95 57.452 20.13s0 15.196-2.258 20.573zM30.22 4.468c-6.75.675-11.476 2.805-15.63 8.57-4.154 5.767-5.763 10.65-4.673 17.87 1.09 7.222 6.23 13.663 6.335 13.87.104.21-3.81 9.493-4.102 10.027-.312.572.675 1.09 1.298 1.09s11.37-8.26 11.735-8.362c.363-.104 2.077.57 6.23.623 4.155.052 8.464-.415 13.605-2.44s10.125-6.34 10.696-14.858c.57-8.52-1.61-14.545-7.58-20.675-5.973-6.13-11.165-6.39-17.915-5.715zm19.99 10.857c5.087 6.285 4.828 15.273 3.062 20.155-1.765 4.883-5.504 8.208-11.215 9.818-5.71 1.61-10.54 1.766-12.46 1.35-1.922-.415-3.895-.882-4.363-.882s-8.827 6.078-9.606 6.442c-.14.066 2.908-6.7 2.856-7.17-.052-.467-4.83-6.39-6.023-10.648-1.192-4.26-1.296-11.688 1.715-17.558 3.012-5.87 11.89-9.974 18.07-10.078s12.877 2.286 17.965 8.57zm-18.122 8.052c.467-.727-.415-3.22-2.96-6.545-2.544-3.325-5.016-3.704-6.075-2.91-1.038.78-4.933 4.52-4.31 9.247.623 4.725 6.698 13.35 11.11 18.13 4.414 4.777 10.49 3.01 13.034 1.556s4.102-4.052 4.206-5.87-6.594-7.896-6.958-8.104c-.363-.208-4.362 3.43-4.777 3.376-.415-.053-4.725-6.91-4.673-7.222.053-.31.936-.934 1.403-1.66zm1.454 10.597c1.454 1.04 1.194 1.3 1.92.883.728-.415 3.79-3.948 4.363-3.74.57.208 5.867 5.04 5.608 5.714-.26.677-1.142 2.547-1.402 2.39-.26-.155-1.815-3.272-2.75-3.17-.935.106-.78.78-.675 1.093s2.18 2.493 1.973 2.753c-.208.26-.675.364-.675.364s-1.87-2.91-2.025-2.91c-.156 0-1.142.312-.986.623.157.312 1.974 2.338 1.662 2.598s-.935.625-1.09.417c-.156-.208-2.025-2.753-2.025-2.753s-1.35.104-1.143.468 1.558 2.235 1.298 2.235-2.492.675-6.802-3.43c-4.31-4.103-9.916-9.973-10.28-14.284-.363-4.31 2.18-8.103 3.894-7.895.393.047 6.283 5.974 5.4 6.7-.883.728-3.115 2.442-2.233 3.74.884 1.3 4.518 7.17 5.972 8.21l-.004-.004zm-9.71-16.623c-1.454.47-2.077 4.314-2.077 4.937s1.92.727 2.18.675c.26-.05 0-.26 0-1.35s.416-2.857.676-3.17c.26-.31-.144-1.292-.777-1.09z"/></svg>