<svg xmlns="http://www.w3.org/2000/svg" width="64" height="64" viewBox="0 0 64 64"><path d="M54.174 9.46C47.098 1.952 37.396-.264 30.32.024c-7.48.304-13.645 2.74-19.912 7.508-6.267 4.77-9.602 13.088-9.4 22.22.202 9.13 1.213 16.74 8.793 25.264S31.03 65.974 40.53 62.423c9.5-3.55 16.677-10.35 19.81-19.785 3.756-11.304.912-25.67-6.164-33.178zm2.83 32.214c-3.386 6.544-7.277 11.364-12.937 14.712s-13.29 4.718-19.608 2.942c-6.32-1.775-12.838-6.24-17.033-13.342s-3.94-14.712-3.385-20.394 2.426-10.095 6.115-14.205c3.69-4.11 10.663-7.863 20.063-8.928 7.49-.85 13.947 1.977 19.052 5.883 5.104 3.906 7.075 7.66 7.075 7.66s-3.64-1.167-3.84-.913c-.203.255-.658 1.37-.203 1.523s4.548 1.167 4.852 1.37c.303.203.96 2.18.708 2.03-.253-.153-4.195-1.726-4.498-1.675s-.404 1.37-.1 1.47c.302.102 4.75 1.42 5.103 1.776.352.355.402 1.37.402 1.37s-4.902-1.522-5.054-1.522.05 1.32.05 1.32 5.256 1.572 5.256 1.724.152 1.218.152 1.218-4.548-1.877-4.902-1.674c-.354.203-.556.812-.1.964s4.85 2.283 5.002 2.536c.15.254 1.212 7.61-2.174 14.154h.002zM10.712 14.33c.253-.05.455-.71 2.577-2.587s4.142-2.587 4.294-2.638c.152-.05.05-1.065-.505-1.218-.557-.152-1.568.61-4.145 2.537s-3.024 2.82-3.133 3.095c-.102.25.656.86.91.81zm38.105 13.14c-.202-.305-3.84-2.538-3.487-6.393.354-3.855 3.992-5.276 4.498-5.783.505-.507-.303-2.486-4.953-5.225-4.65-2.74-10.107-3.3-18.85-1.676-8.743 1.623-12.634 5.327-14.858 7.56-2.224 2.23-2.652 4.18-2.78 4.565-.354 1.064.606 1.724 1.314 1.927.71.203 6.117-.05 6.32-.05.2 0 .302 1.52.252 1.774s-1.212.407-1.414.813 9.5 17.3 9.653 17.654c.15.355 1.06 1.065 1.617 1.015s4.902-8.573 5.155-9.03-3.284-9.436-3.79-9.842c-.504-.405-3.537-.354-4.093-.405-.557-.05-.355-1.42-.153-1.776.202-.357 12.786-.104 13.19 0 .404.1.1 1.317.1 1.62s-3.486.153-3.79.05c-.302-.1-.403 1.118-.2 1.676.2.558 7.024 14.965 7.53 15.828.504.862 1.818 1.268 2.374.812.556-.457 6.57-14.813 6.368-15.118v.002zm-7.58 11.06s-5.762-11.415-5.257-11.415 3.083.1 3.083-.102c0-.203.707-6.088-.152-6.443-.857-.355-17.84-.457-18.04-.102-.202.355-.253 6.29.657 6.29s3.538-.1 3.79.052c.253.152 2.982 6.798 2.93 7.102S25.52 38.63 25.52 38.63s-7.63-12.683-7.176-12.683c.455 0 .81-.304.81-.304s-.102-5.63-.506-5.783c-.404-.152-5.407 0-5.508-.304 0 0 5.458-6.24 15.06-8.015 9.602-1.773 18.244 2.894 17.89 3.5-.354.61-5.61 4.365-3.133 8.373 2.476 4.008 2.982 4.363 2.982 4.515s-4.7 10.602-4.7 10.602h-.003zM8.79 27.316c-2.677.862-.91 9.842 1.163 15.27 2.072 5.428 6.924 8.472 8.34 8.776 1.414.304 3.132-1.065 3.03-2.13-.1-1.066-6.518-14.713-8.338-18.822s-3.31-3.378-4.194-3.093zm9.907 21.256c-.354.1-3.69-.913-6.267-7s-2.527-10.4-1.97-10.756c.3-.192 8.59 17.655 8.237 17.756zm14.15-10.044c-.86-.153-1.92 1.927-3.89 5.68s-4.802 9.082-3.437 10.35 7.58 1.167 9.45.66c1.87-.508 3.588-2.233 3.588-3.603s-4.765-12.92-5.71-13.088zm1.112 8.217c.49-.11 2.93 3.805 1.817 5.174-1.112 1.37-5.407 1.877-5.508 1.522-.1-.355 3.233-6.595 3.69-6.697zM53.363 26.86c-.86.458-10.368 20.426-10.512 20.953-.152.558 1.365 1.47 2.678 1.42s3.993-.76 8.137-5.783c4.144-5.022 3.184-12.277 2.93-14.712s-2.373-2.334-3.232-1.877zm0 12.53c-1.263 3.197-4.447 5.683-4.953 4.922-.275-.416 5.206-10.248 5.61-10.197.405.05.607 2.08-.656 5.276z"/></svg>