<svg xmlns="http://www.w3.org/2000/svg" width="64" height="64" viewBox="0 0 64 64"><path d="M43.326 49.277c-.172 0-1.03.916-.86 1.202.173.284 7.733 6.466 8.077 6.523s0 0 .172-.4c.17-.4-7.183-7.327-7.39-7.327zM58.13 1.46c-1.89-.516-6.614-.26-6.614-.26s-1.46-.686-2.32-.686C48.336.514 15.346 0 13.37 0s-2.834 1.545-2.834 1.545C2.203 1.03 2.203 5.237 2.03 9.873c-.17 4.635.43 38.117.516 42.495s.945 7.297 3.18 8.757c2.233 1.46 16.58 2.66 28.178 2.747 11.598.086 17.784.6 21.908-1.288s4.64-5.065 5.24-9.1c.602-4.035.86-30.562.946-40.177.085-9.615-1.977-11.332-3.868-11.847zm-47.05 9.93s-.057 39.947-.23 39.947-1.717-.057-1.717-.057-.687-38.46 0-40.006c.186-.417 1.947.115 1.947.115zm-.172 45.957c-.172 0-5.327.973-6.3-2.747-.974-3.72-.687-19.516-.745-28.445-.057-8.928-1.145-21.233 1.03-22.55 2.177-1.315 5.442-.8 5.442-.8V6.81s-2.92-.8-3.036 2.633c-.116 3.434-.173 42.524.572 43.097.745.572 3.265.687 3.265.687s-.058 4.12-.23 4.12zm15.293.916c-9.105-.23-10.08-.286-10.02-.515.056-.23 6.7-3.892 6.7-3.892s4.582 1.03 10.71 1.03c6.13 0 7.217-.23 7.62-.115.4.117 5.783 3.665 5.44 3.95-.345.288-11.34-.227-20.45-.457zm-.8-5.952c-.394-.21 7.045-3.947 7.274-3.89.23.057 6.758 4.52 6.53 4.693-.23.172-13.06-.4-13.804-.8v-.002zm26.23 6.755c-.685.057-17.87-12.42-18.956-12.59-1.088-.173-18.958 10.93-19.588 10.587-.63-.342-1.03-53.57-.458-54.942.19-.454 5.155-.458 9.622-.4 4.466.056 28.178.17 28.407.8.23.63.286 15.91.286 15.91s-2.806-2.574-3.15-2.574-.573.973-.344 1.202c.227.23 3.32 2.346 3.32 2.575s.057 2.863.057 2.863-2.92-3.148-3.207-3.148c-.285 0-.17 1.545-.17 1.545s3.206 2.92 3.378 3.148c.172.23.057 1.947.057 1.947S48.02 23.24 47.85 23.24s-.403 1.088-.23 1.374c.17.287 3.206 2.863 3.32 3.263.116.4.058 2.69.058 2.69s-2.693-2.804-2.865-2.69c-.172.114-.4.973-.172 1.374.23.4 3.15 2.748 3.208 3.206.057.458.057 2.404.057 2.404s-3.093-3.434-3.265-3.49c-.172-.058-.458 1.315-.286 1.544.172.23 3.494 3.548 3.608 3.834.115.286-.057 2.347-.057 2.347s-3.666-4.063-3.952-4.063-.172 1.488-.172 1.488 4.18 3.95 4.24 4.407c.057.458.286 3.09.172 2.92-.115-.173-4.41-4.694-4.697-4.694-.286 0-.63 1.145-.344 1.43.287.287 4.984 4.923 4.984 4.923l.057 3.092s-5.04-5.494-5.21-5.55c-.173-.058-.63 1.086-.46 1.258s5.557 5.723 5.557 6.067.057 3.434.057 3.434-5.9-6.81-6.128-6.81c-.23 0-.344 1.717-.344 1.717s6.7 6.295 6.7 6.696c.005.4.635 3.604-.052 3.66v-.005zm.746-47.503s2.806-.57 3.38 0c.572.573-.23 35.313-.23 37.374S53.12 50.54 53.12 50.54l-.744-38.978zm7.217 40.865c-.458 1.088-1.26 3.09-3.723 3.95-2.464.857-2.235 1.373-2.464.857-.23-.515-.172-5.208 0-5.265.163-.055 2.75.4 3.15-.974.4-1.374.344-15.682.687-24.495.344-8.814.344-17.914-.23-18.83-.572-.915-.915-1.087-2.175-1.087s-2.12-.057-2.12-.057-.17-3.777 0-3.892c.173-.114 5.843-.343 6.874 3.148 1.03 3.492.458 45.558 0 46.645zM16.463 4.693c-.514.286-.285 6.868-.23 7.21.06.344.976.173 1.26.058.288-.113.06-6.466-.055-6.98-.115-.515-.774-.397-.974-.287zM42.697 23.35c-.63-1.43-7.102-1.2-7.102-1.2s-2.234-7.784-3.494-7.44c-1.26.342-5.212 7.382-5.27 7.668 0 0-7.044.23-7.216 1.43-.172 1.203 6.128 6.067 6.128 6.067l-2.635 7.498s-.115 1.145.745 1.316c.86.17 7.56-4.81 7.56-4.81s8.248 4.98 8.65 4.407c.4-.572-1.89-8.413-1.89-8.413s5.154-5.093 4.524-6.524zm-4.754 12.42c-.23 0-6.07-3.72-6.53-3.72-.457 0-5.956 4.236-5.956 3.893s2.29-6.295 2.062-6.467c-.23-.172-3.38-3.777-3.207-4.12 0 0 3.897.4 4.183.17.286-.228 2.92-4.75 3.15-4.635s1.317 4.18 1.66 4.294c.345.114 6.015.458 6.015.458s-2.52 3.664-2.52 3.836 1.374 6.295 1.145 6.295v-.003z"/></svg>