<svg xmlns="http://www.w3.org/2000/svg" width="64" height="64" viewBox="0 0 64 64"><path d="M61.138 19.16c-1.962-5.654-6.913-9.64-10.416-10.197s-12.05-1.112-19.197-.927-20.177 1.252-24.66 2.318C2.38 11.42.885 14.11.277 16.334-.33 18.557.23 25.788.325 31.12s.67 9.534 1.495 13.303c.84 3.847 3.316 8.02 5.465 9.363 2.15 1.344 8.78 1.854 15.647 2.132 6.866.278 18.03-.232 24.848-.417 6.82-.183 9.575-1.203 11.864-2.733 2.288-1.53 4.204-8.02 4.344-14.926.14-6.904-.888-13.023-2.85-18.68zm.888 14.092c-.14-.278-2.336-4.635-3.083-5.423-.747-.79-.98-.234-1.028.044-.047.278 1.308 2.086 1.495 2.503s2.57 4.82 2.57 5.284-.14 3.71-.328 3.617c-.187-.093-3.503-7.973-3.83-7.88-.327.093-.98.65-.747 1.112s4.11 7.925 4.11 8.296c0 .37-.607 2.828-.794 2.457-.185-.37-3.69-8.853-4.015-8.9-.327-.046-.7.927-.7 1.112s4.25 8.9 4.25 8.9-.985 2.505-1.125 2.505-4.11-9.78-4.437-9.735c-.327.046-.514.927-.514.927s4.11 9.873 4.017 10.012c-.093.14-1.26 1.67-1.354 1.483-.093-.185-3.176-9.595-3.736-9.595s-.934.278-.84.695c.092.417 3.97 8.946 3.735 9.178-.233.232-1.448.742-1.635.556-.187-.183-3.597-8.434-3.83-8.527s-.7.185-.7.37c0 .186 3.595 8.854 3.595 8.854s-2.382.788-2.475.603c-.093-.186-3.27-8.437-3.55-8.484s-.934.417-.887.695c.048.28 3.457 7.836 3.224 7.928-.234.093-2.29.185-2.43.093-.14-.092-2.474-7.137-2.708-7.184-.233-.046-.98.417-1.027.556-.05.14 2.567 6.908 2.38 6.86-.187-.045-1.635.094-1.728-.092-.093-.185-2.15-7-2.29-7s-1.026.28-1.026.418 2.475 6.907 2.288 6.907c-.187 0-1.868 0-2.008-.14-.14-.138-2.15-6.21-2.382-6.257-.234-.046-1.168.185-1.12.464.046.278 2.24 5.84 2.007 5.84s-2.007 0-2.194-.185-2.055-6.072-2.382-6.072-1.12.093-1.028.603c.094.51 2.522 5.7 2.242 5.7s-1.916.186-2.15 0c-.233-.184-2.24-6.303-2.66-6.303s-1.03.463-1.03.742c0 .278 2.663 5.7 2.476 5.7s-1.588 0-1.728-.138c-.14-.14-2.336-5.61-2.57-5.61-.232 0-1.26 0-1.12.324.14.324 2.71 5.284 2.475 5.284-.232 0-1.494 0-1.634-.046s-2.01-5.238-2.382-5.238c-.374 0-1.308.37-1.214.603.093.232 2.382 4.682 2.195 4.682s-1.867-.09-1.867-.09-1.775-4.45-2.055-4.497c-.28-.045-1.12.325-1.028.604.094.278 2.15 3.847 1.915 3.894-.234.047-1.54.094-1.68-.092-.14-.185-1.542-3.43-1.73-3.43s-1.307.14-1.12.464c.187.323 1.635 3.105 1.495 3.105s-1.448 0-1.68-.185c-.234-.185-1.122-2.967-1.45-2.967-.326 0-1.12.232-.933.556.187.324 1.168 2.41.98 2.41-.186 0-1.26.046-1.4-.185-.14-.232-1.074-2.688-1.4-2.688-.328 0-1.31.278-1.122.556.187.278 1.028 2.04.84 2.04-.186 0-1.213-.14-1.213-.14s-.935-2.27-1.355-2.364c-.42-.094-1.308.23-1.12.416.186.185.793 1.808.56 1.715-.235-.092-3.458-.787-5.045-2.18-1.59-1.39-3.926-5.7-4.16-10.243-.233-4.543-.7-14.74-.747-17.8-.047-3.058.374-4.634 1.167-6.257.658-1.346 2.195-2.643 6.68-3.477S20.362 9.66 26.76 9.52c6.4-.14 14.666.417 17.375.417 2.71 0 8.968.37 11.957 3.94s3.83 5.933 4.717 8.853c.89 2.92.84 3.894.84 3.894s-2.194-4.264-2.334-3.662c-.14.603-.327 1.53-.14 1.808s2.662 4.357 2.71 4.82c.045.464.28 3.94.14 3.662zm-18.964-4.08c-.047-.972-1.354-1.343-4.95-2.548-3.597-1.205-8.83-2.874-10.65-2.967-1.822-.093-3.036 1.622-3.083 3.152-.05 1.53.045 10.66.14 11.262.092.603.51 1.19 1.166 1.205 2.195.046 7.567-2.92 12.097-5.516s5.325-3.614 5.278-4.59l.002.002zm-15.226 8.113c-.33-.03-.327-9.317.093-9.41.42-.093 7.33.973 9.106 1.622 1.775.65 2.802.927 2.71 1.298-.095.37-3.458 2.18-6.447 3.8-2.99 1.624-4.95 2.736-5.464 2.69zM11.862 13.69c-.84.094-3.363 1.067-5.885 2.69s-3.316 3.893-3.223 5.978c.093 2.086.374 2.642.794 2.642.56 0 .84-1.808.7-2.503-.14-.695.655-2.874 1.59-4.033.933-1.16 5.65-3.106 6.21-3.57.56-.46.655-1.295-.186-1.203zM6.678 44.1c-.654-.557-.747-2.365-.84-2.643-.095-.278-1.334-.37-1.356-.14-.233 2.458 1.495 4.73 2.15 5.007.653.278 1.353-.185 1.353-.65 0-.463-.654-1.02-1.307-1.575zm16.3-14.14c-.187-.23-1.16-.63-1.4-.092-.188.417.046 6.397.046 7.138 0 .742.28 1.622.7 1.76.42.14.842-.555.702-1.39-.14-.833.14-7.183-.048-7.416zm23.4 1.902c-.793.463-9.486 5.42-9.667 5.84-.14.324.05.695.47.788s.98.324 2.29-.51c1.306-.834 8.36-4.728 8.78-5.145s.28-.88-.094-1.16c-.375-.277-.982-.277-1.776.187h-.002zm2.29-19.7c-.234.046-.456 1.254-.048 1.344.84.185 2.57.324 4.39 1.53 1.823 1.205 2.57 3.337 2.897 3.894.327.556.794.232 1.12-.37.328-.604-.092-1.3-2.334-4.08-2.242-2.782-5.792-2.365-6.026-2.318z"/></svg>